<svg xmlns="http://www.w3.org/2000/svg" fill="none" viewBox="0 0 33 40"><path fill="#6BC9FF" fill-rule="evenodd" d="M11.562 30.574a7.257 7.257 0 00.42 3.11l.342.94c.724 1.998 2.305 3.776 4.756 4.413 2.055.535 4.012.067 5.407-.44l3.272-1.186c1.4-.507 3.202-1.4 4.443-3.114 1.486-2.054 1.582-4.441.848-6.463l-.34-.94a7.23 7.23 0 00-1.683-2.667 7.743 7.743 0 00-.204-1.877c.09-.124.2-.265.328-.425l.01-.013.01-.012c1.36-1.708 2.495-3.6 3.068-5.66.69-2.462.398-4.918-.413-7.154-1.408-3.882-4.242-6.667-8.283-7.79C19.881.264 16.05.724 12.31 2.08c-2.333.846-4.46 1.931-6.268 3.329A21.677 21.677 0 001.594 9.99l-.069.095-.064.098C.718 11.32-.05 13.29.766 15.541c.548 1.513 1.643 2.493 2.119 2.903l.027.023 3.106 2.598.027.021c.58.471 1.732 1.238 3.237 1.42-.18 1.793.109 3.56.71 5.22l.096.263c.28.774.734 1.722 1.474 2.585zm2.967-5.05c.048.164.103.33.164.497l.095.264c.264.727.622 1.206 1.076 1.44.478.223 1.13.185 1.958-.115l4.475-1.623c.852-.309 1.378-.698 1.576-1.167.224-.478.204-1.081-.06-1.808l-.068-.188a2.269 2.269 0 01-.127-.563 2.482 2.482 0 01.183-1.16c.229-.621.715-1.393 1.458-2.315 1.111-1.396 1.832-2.693 2.164-3.89.347-1.233.248-2.601-.297-4.105-.891-2.457-2.535-4.017-4.931-4.68-2.371-.672-5.098-.449-8.182.67-1.98.718-3.624 1.583-4.93 2.596a16.674 16.674 0 00-3.438 3.544c-.219.335-.278.64-.178.916.081.225.308.498.679.817l3.053 2.552c.362.294.68.392.956.292.251-.091.486-.304.705-.639a10.94 10.94 0 011.42-1.573 9.736 9.736 0 01.684-.578l.016-.011a9.15 9.15 0 01.337-.245c.442-.306.89-.556 1.345-.748a6.5 6.5 0 01.326-.129c1.755-.636 2.814-.453 3.178.55.172.476.179.885.019 1.227-.16.341-.593 1.023-1.3 2.046a34.308 34.308 0 00-.798 1.219c-.798 1.288-1.34 2.409-1.626 3.361-.33 1.099-.307 2.28.068 3.545zm11.48 3.074c-.448-1.235-1.51-1.622-3.186-1.16a8.183 8.183 0 00-.61.196l-3.271 1.187c-.212.076-.41.157-.594.24-1.557.713-2.112 1.686-1.665 2.919l.341.94c.5 1.379 1.753 1.704 3.758.977l3.272-1.186c2.03-.736 2.796-1.794 2.296-3.173l-.34-.94z" clip-rule="evenodd"/><path fill="#fff" d="M17.822 27.61c-.827.3-1.48.338-1.958.114-.454-.233-.812-.712-1.076-1.44l-.095-.263c-.527-1.454-.605-2.801-.232-4.043.372-1.241 1.18-2.768 2.423-4.58.708-1.023 1.141-1.704 1.3-2.046.16-.342.154-.75-.018-1.227-.364-1.003-1.423-1.186-3.178-.55-.777.282-1.538.728-2.28 1.338-.72.6-1.335 1.25-1.848 1.946-.219.335-.454.548-.705.639-.275.1-.594.002-.956-.292l-3.053-2.552c-.371-.32-.598-.592-.68-.817-.1-.276-.04-.581.18-.916a16.674 16.674 0 013.437-3.544c1.306-1.013 2.95-1.878 4.93-2.596 3.084-1.119 5.811-1.342 8.182-.67 2.396.663 4.04 2.223 4.93 4.68.546 1.504.645 2.872.298 4.104-.332 1.198-1.053 2.495-2.164 3.89-.743.923-1.23 1.695-1.458 2.317-.237.596-.256 1.17-.056 1.722l.068.188c.264.727.284 1.33.06 1.808-.198.469-.724.858-1.576 1.167l-4.475 1.623zm2.96 6.287c-2.005.727-3.258.402-3.758-.977l-.34-.94c-.5-1.38.252-2.432 2.258-3.16l3.271-1.186c2.03-.736 3.296-.415 3.796.964l.341.94c.5 1.379-.265 2.437-2.296 3.173l-3.271 1.186z"/></svg>