<svg xmlns="http://www.w3.org/2000/svg" fill="none" viewBox="0 0 17 16"><path fill="#fff" stroke="#fff" stroke-linecap="round" stroke-linejoin="round" stroke-width="1.5" d="M14.5 7.667a5.587 5.587 0 01-.6 2.533 5.666 5.666 0 01-5.067 3.133 5.588 5.588 0 01-2.533-.6L2.5 14l1.267-3.8a5.586 5.586 0 01-.6-2.533A5.667 5.667 0 016.3 2.6 5.587 5.587 0 018.833 2h.334A5.654 5.654 0 0114.5 7.333v.334z"/><path fill="#6BC9FF" d="M11.917 8.083H9.583v2.334a.583.583 0 11-1.166 0V8.083H6.083a.583.583 0 110-1.166h2.334V4.583a.583.583 0 111.166 0v2.334h2.334a.583.583 0 110 1.166z"/></svg>