<svg xmlns="http://www.w3.org/2000/svg" fill="none" viewBox="0 0 44 44"><g clip-path="url(#a)"><mask id="b" style="mask-type:luminance" width="44" height="44" x="0" y="0" maskUnits="userSpaceOnUse"><path fill="#fff" d="M43 18H22.5v8.5h11.8c-1.1 5.4-5.7 8.5-11.8 8.5-7.2 0-13-5.8-13-13s5.8-13 13-13c3.1 0 5.9 1.1 8.1 2.9L37 5.5C33.1 2.1 28.1 0 22.5 0 10.3 0 .5 9.8.5 22s9.8 22 22 22c11 0 21-8 21-22 0-1.3-.2-2.7-.5-4z"/></mask><g mask="url(#b)"><path fill="#FBBC05" d="M-1.5 35V9l17 13-17 13z"/></g><mask id="c" style="mask-type:luminance" width="44" height="44" x="0" y="0" maskUnits="userSpaceOnUse"><path fill="#fff" d="M43 18H22.5v8.5h11.8c-1.1 5.4-5.7 8.5-11.8 8.5-7.2 0-13-5.8-13-13s5.8-13 13-13c3.1 0 5.9 1.1 8.1 2.9L37 5.5C33.1 2.1 28.1 0 22.5 0 10.3 0 .5 9.8.5 22s9.8 22 22 22c11 0 21-8 21-22 0-1.3-.2-2.7-.5-4z"/></mask><g mask="url(#c)"><path fill="#EA4335" d="M-1.5 9l17 13 7-6.1 24-3.9V-2h-48V9z"/></g><mask id="d" style="mask-type:luminance" width="44" height="44" x="0" y="0" maskUnits="userSpaceOnUse"><path fill="#fff" d="M43 18H22.5v8.5h11.8c-1.1 5.4-5.7 8.5-11.8 8.5-7.2 0-13-5.8-13-13s5.8-13 13-13c3.1 0 5.9 1.1 8.1 2.9L37 5.5C33.1 2.1 28.1 0 22.5 0 10.3 0 .5 9.8.5 22s9.8 22 22 22c11 0 21-8 21-22 0-1.3-.2-2.7-.5-4z"/></mask><g mask="url(#d)"><path fill="#34A853" d="M-1.5 35l30-23 7.9 1L46.5-2v48h-48V35z"/></g><mask id="e" style="mask-type:luminance" width="44" height="44" x="0" y="0" maskUnits="userSpaceOnUse"><path fill="#fff" d="M43 18H22.5v8.5h11.8c-1.1 5.4-5.7 8.5-11.8 8.5-7.2 0-13-5.8-13-13s5.8-13 13-13c3.1 0 5.9 1.1 8.1 2.9L37 5.5C33.1 2.1 28.1 0 22.5 0 10.3 0 .5 9.8.5 22s9.8 22 22 22c11 0 21-8 21-22 0-1.3-.2-2.7-.5-4z"/></mask><g mask="url(#e)"><path fill="#4285F4" d="M46.5 46l-31-24-4-3 35-10v37z"/></g></g><defs><clipPath id="a"><path fill="#fff" d="M0 0h44v44H0z"/></clipPath></defs></svg>