<svg xmlns="http://www.w3.org/2000/svg" fill="none" viewBox="0 0 40 41"><path fill="#00B900" fill-rule="evenodd" d="M40 20.105c0 11.045-8.954 20-20 20s-20-8.955-20-20c0-11.046 8.954-20 20-20s20 8.954 20 20zm-20.012-12c7.362 0 13.35 4.862 13.35 10.837 0 2.387-.925 4.538-2.863 6.675-2.8 3.225-9.062 7.15-10.487 7.75-1.408.593-1.23-.363-1.165-.712l.002-.013c.025-.2.188-1.138.188-1.138.05-.35.1-.875-.038-1.212-.15-.375-.737-.563-1.175-.663-6.412-.85-11.162-5.337-11.162-10.687 0-5.975 5.987-10.838 13.35-10.838z" clip-rule="evenodd"/><path fill="#00B900" d="M28.9 22.394a.25.25 0 00.25-.25v-.95a.25.25 0 00-.25-.25h-2.55v-.987h2.55a.25.25 0 00.25-.25v-.95a.25.25 0 00-.25-.25h-2.55v-.988h2.55a.25.25 0 00.25-.25v-.95a.25.25 0 00-.25-.25h-3.75a.25.25 0 00-.25.25v5.813c0 .137.112.25.25.25h3.75v.012zm-13.876 0a.25.25 0 00.25-.25v-.95a.25.25 0 00-.25-.25h-2.55V16.32a.25.25 0 00-.25-.25h-.95a.25.25 0 00-.25.25v5.825c0 .138.113.25.25.25h3.75zm2.25-6.338h-.95a.25.25 0 00-.25.25v5.825c0 .137.113.25.25.25h.95a.25.25 0 00.25-.25v-5.825c.013-.138-.1-.25-.25-.25zm6.45 0h-.95a.25.25 0 00-.25.25v3.462l-2.662-3.6c0-.012-.013-.012-.025-.025l-.013-.012-.012-.013h-.013l-.012-.012h-.013s-.012 0-.012-.013h-.013s-.012 0-.012-.012h-1.038a.25.25 0 00-.25.25v5.825c0 .137.113.25.25.25h.95a.25.25 0 00.25-.25v-3.463l2.675 3.6a.15.15 0 00.063.063l.012.012h.063c.025 0 .037.013.062.013h.938a.25.25 0 00.25-.25v-5.825a.233.233 0 00-.238-.25z"/></svg>