<svg xmlns="http://www.w3.org/2000/svg" fill="none" viewBox="0 0 16 17"><g fill="#3C55AB" clip-path="url(#a)"><path fill-rule="evenodd" d="M8 15.507s6-4 6-8.667a6 6 0 10-12 0c0 4.667 6 8.667 6 8.667zm2-8.667a2 2 0 11-4 0 2 2 0 014 0z" clip-rule="evenodd"/><path d="M8 15.507l-.277.416a.5.5 0 00.554 0L8 15.507zm4.243-12.91l.353-.353-.353.354zm-8.486 0l.354.354-.354-.353zM13.5 6.84c0 2.133-1.383 4.178-2.863 5.74a19.77 19.77 0 01-2.854 2.47 8.7 8.7 0 01-.047.032l-.01.007-.003.002.277.416.278.416.001-.001.004-.003a1.116 1.116 0 00.07-.047l.198-.14a20.775 20.775 0 002.812-2.464c1.52-1.605 3.137-3.893 3.137-6.428h-1zm-1.61-3.889a5.5 5.5 0 011.61 3.89h1a6.5 6.5 0 00-1.904-4.597l-.707.707zM8 1.341a5.5 5.5 0 013.89 1.61l.706-.707A6.5 6.5 0 008 .34v1zM4.11 2.95A5.5 5.5 0 018 1.341v-1a6.5 6.5 0 00-4.596 1.903l.707.707zM2.5 6.841a5.5 5.5 0 011.61-3.89l-.706-.707A6.5 6.5 0 001.5 6.84h1zM8 15.506l.277-.416-.002-.002-.011-.007a8.7 8.7 0 01-.23-.161 19.772 19.772 0 01-2.672-2.34c-1.48-1.563-2.862-3.608-2.862-5.74h-1c0 2.534 1.617 4.822 3.137 6.426a20.771 20.771 0 003.01 2.605 6.197 6.197 0 00.07.047l.004.003h.001L8 15.508zM8 9.34a2.5 2.5 0 002.5-2.5h-1A1.5 1.5 0 018 8.34v1zm-2.5-2.5A2.5 2.5 0 008 9.34v-1a1.5 1.5 0 01-1.5-1.5h-1zM8 4.34a2.5 2.5 0 00-2.5 2.5h1A1.5 1.5 0 018 5.34v-1zm2.5 2.5A2.5 2.5 0 008 4.34v1a1.5 1.5 0 011.5 1.5h1z"/></g><defs><clipPath id="a"><path fill="#fff" d="M0 0h16v16H0z" transform="translate(0 .174)"/></clipPath></defs></svg>