<svg xmlns="http://www.w3.org/2000/svg" fill="none" viewBox="0 0 16 17"><g fill="#3C55AB" clip-path="url(#a)"><path fill-rule="evenodd" d="M4 4.654l4-3.68 4 3.68v9.92H4v-9.92zm6.4 2.72a2.4 2.4 0 11-4.8 0 2.4 2.4 0 014.8 0z" clip-rule="evenodd"/><path d="M8 .974l.508-.552a.75.75 0 00-1.016 0L8 .974zm-4 3.68l-.508-.552a.75.75 0 00-.242.552H4zm8 0h.75a.75.75 0 00-.242-.552L12 4.654zm0 9.92v.75a.75.75 0 00.75-.75H12zm-8 0h-.75c0 .414.336.75.75.75v-.75zM7.492.422l-4 3.68 1.016 1.104 4-3.68L7.492.422zm5.016 3.68l-4-3.68-1.016 1.104 4 3.68 1.016-1.104zm.242 10.472v-9.92h-1.5v9.92h1.5zm-8.75.75h8v-1.5H4v1.5zm-.75-10.67v9.92h1.5v-9.92h-1.5zM8 10.524a3.15 3.15 0 003.15-3.15h-1.5A1.65 1.65 0 018 9.024v1.5zm-3.15-3.15A3.15 3.15 0 008 10.524v-1.5a1.65 1.65 0 01-1.65-1.65h-1.5zM8 4.224a3.15 3.15 0 00-3.15 3.15h1.5c0-.912.739-1.65 1.65-1.65v-1.5zm3.15 3.15A3.15 3.15 0 008 4.224v1.5c.911 0 1.65.738 1.65 1.65h1.5z"/><path stroke="#3C55AB" stroke-width="1.5" d="M.8 8.374a1 1 0 011-1H4v7.2H1.8a1 1 0 01-1-1v-5.2zM15.2 8.374a1 1 0 00-1-1H12v7.2h2.2a1 1 0 001-1v-5.2z"/></g><defs><clipPath id="a"><path fill="#fff" d="M0 0h16v16H0z" transform="translate(0 .174)"/></clipPath></defs></svg>