<svg xmlns="http://www.w3.org/2000/svg" fill="none" viewBox="0 0 24 24"><path fill="#3C55AB" d="M9 22a.965.965 0 01-.712-.288A.965.965 0 018 21c0-.283.096-.52.288-.712A.965.965 0 019 20h1v-2H4c-.55 0-1.02-.196-1.412-.587A1.927 1.927 0 012 16V5c0-.55.196-1.021.588-1.413A1.925 1.925 0 014 3h16c.55 0 1.021.196 1.413.587.391.392.587.863.587 1.413v11c0 .55-.196 1.021-.587 1.413A1.928 1.928 0 0120 18h-6v2h1c.283 0 .521.096.713.288A.967.967 0 0116 21c0 .283-.096.52-.287.712A.968.968 0 0115 22H9z"/></svg>