<svg xmlns="http://www.w3.org/2000/svg" fill="none" viewBox="0 0 24 24"><path fill="#3C55AB" d="M4.94 14.397a1.458 1.458 0 01-.448-1.133c.017-.438.193-.781.527-1.027a11.527 11.527 0 013.227-1.726A11.341 11.341 0 0112 9.893c1.334 0 2.595.21 3.78.632 1.185.421 2.261 1.01 3.227 1.765.334.246.505.584.514 1.015.009.43-.145.803-.461 1.119a1.536 1.536 0 01-1.093.461c-.43.009-.83-.11-1.2-.356a8.323 8.323 0 00-2.225-1.093A8.318 8.318 0 0012 13.054c-.896 0-1.743.131-2.542.395-.8.263-1.533.623-2.2 1.08a1.922 1.922 0 01-1.225.356 1.64 1.64 0 01-1.093-.488zM.46 9.945a1.488 1.488 0 01-.448-1.094c0-.43.158-.785.475-1.066A18.233 18.233 0 015.756 4.69C7.706 3.943 9.786 3.57 12 3.57c2.213 0 4.294.373 6.243 1.12a18.234 18.234 0 015.269 3.095c.316.281.478.632.488 1.054.008.421-.146.79-.462 1.106a1.584 1.584 0 01-1.093.474 1.714 1.714 0 01-1.172-.395 15.038 15.038 0 00-4.28-2.423A14.318 14.318 0 0012 6.73c-1.757 0-3.42.29-4.992.87-1.572.58-3 1.387-4.281 2.423a1.713 1.713 0 01-1.172.396 1.585 1.585 0 01-1.094-.475zM12 20.43c-.598 0-1.098-.202-1.502-.606-.404-.404-.606-.904-.606-1.502 0-.597.202-1.097.606-1.501.404-.404.905-.606 1.502-.606s1.097.202 1.501.606c.404.404.606.904.606 1.502 0 .597-.202 1.097-.606 1.501-.404.404-.904.606-1.501.606z"/></svg>