<svg width="200" height="132" viewBox="0 0 200 132" fill="none" xmlns="http://www.w3.org/2000/svg">
<path d="M184.22 21.9981H119.817L99.5455 2.61292L77.7001 22.7035H45.317C45.4396 23.0992 45.5492 23.4992 45.6417 23.9056C45.7277 24.2798 46.0632 25.7917 46.0697 27.6648C46.0783 30.2885 45.4353 32.3896 45.1987 33.1487C43.6804 37.9896 40.2158 41.394 38.8782 42.6112C37.3319 43.6306 35.4588 44.7166 33.2609 45.7231C31.2523 46.6435 29.3706 47.3123 27.7082 47.8048L28.8544 44.9768C27.491 45.0628 25.1791 45.037 22.5339 44.1166C20.1554 43.2886 18.4672 42.0736 17.4672 41.2305C16.3876 40.1983 15.0199 38.6735 13.8177 36.5896C12.3682 34.0799 11.7274 31.7466 11.4198 30.1379C10.8843 31.1272 10.351 32.1186 9.81552 33.1079C8.73379 35.5402 7.65206 37.9724 6.56817 40.4047L5.87354 41.7789L1.61328 50.2177H8.5897V129.231H190.94V49.4263H198.387L184.217 22.0002L184.22 21.9981Z" fill="#3C55AB"/>
<path fill-rule="evenodd" clip-rule="evenodd" d="M98.4533 1.42573C99.0794 0.849907 100.045 0.859315 100.66 1.44722L120.463 20.3852H184.219C184.859 20.3852 185.436 20.7626 185.694 21.3449L199.82 48.686C200.078 49.186 200.057 49.7845 199.765 50.2652C199.472 50.7459 198.95 51.0392 198.387 51.0392H192.553V129.231C192.553 130.122 191.83 130.844 190.94 130.844H8.58934C7.69855 130.844 6.97642 130.122 6.97642 129.231V51.8307H1.61292C1.05281 51.8307 0.5328 51.5401 0.239253 51.063C-0.0542933 50.586 -0.079343 49.9908 0.173081 49.4908L4.43334 41.052L5.11058 39.7122C6.18882 37.2926 7.26498 34.8728 8.34142 32.4524C8.35839 32.4143 8.37684 32.3768 8.39672 32.3401C8.66388 31.8465 8.93059 31.3523 9.19788 30.8569L9.20025 30.8525C9.46659 30.359 9.7335 29.8644 10.001 29.3701C10.3257 28.7704 10.9924 28.4397 11.6663 28.544C12.3402 28.6484 12.8757 29.1653 13.0037 29.8351C13.2876 31.3198 13.8785 33.4705 15.2141 35.783C16.3082 37.6797 17.5527 39.076 18.5448 40.0296C19.449 40.7865 20.9548 41.8591 23.0636 42.5933C25.4423 43.4209 27.5235 43.4446 28.7525 43.3671C29.306 43.3322 29.8385 43.584 30.1627 44.0339C30.4004 44.3639 30.5016 44.7663 30.4566 45.1602C31.1467 44.891 31.859 44.5911 32.5886 44.2568C34.6527 43.3116 36.4189 42.2935 37.8844 41.334C39.221 40.1049 42.3044 36.9847 43.6589 32.6673C43.8825 31.9498 44.4641 30.0401 44.4564 27.6704C44.4506 25.9718 44.1446 24.5939 44.0694 24.267L44.0686 24.2634C43.9865 23.9027 43.8881 23.5428 43.7759 23.1807C43.6243 22.6913 43.7143 22.1589 44.0183 21.7465C44.3223 21.334 44.8042 21.0905 45.3166 21.0905H77.0708L98.4533 1.42573ZM26.4681 46.5697C25.1795 46.4709 23.6506 46.2131 22.0035 45.6399C19.3856 44.7286 17.5277 43.3914 16.4273 42.4637C16.4015 42.442 16.3765 42.4196 16.3522 42.3963C15.1912 41.2862 13.7172 39.6436 12.4206 37.3963C11.8281 36.3703 11.3609 35.3718 10.9911 34.4329C10.0086 36.642 9.02575 38.8516 8.04107 41.0612C8.03039 41.0852 8.01913 41.1089 8.00729 41.1323L7.31302 42.5058L4.234 48.6048H8.58934C9.48013 48.6048 10.2023 49.3269 10.2023 50.2177V127.619H189.327V49.4263C189.327 48.5355 190.049 47.8134 190.94 47.8134H195.738L183.234 23.611H119.816C119.401 23.611 119.002 23.4508 118.702 23.1638L99.5236 4.82404L78.7916 23.8907C78.4939 24.1644 78.1042 24.3164 77.6998 24.3164H47.3715C47.5098 25.0795 47.6775 26.2779 47.6822 27.6592C47.6917 30.535 46.9881 32.8266 46.7382 33.6286L46.7373 33.6314C45.0872 38.8928 41.3571 42.5359 39.9634 43.8041C39.9015 43.8604 39.8354 43.9118 39.7656 43.9578C38.1591 45.0169 36.2139 46.1446 33.9321 47.1895C33.932 47.1896 33.9322 47.1895 33.9321 47.1895C31.8458 48.1455 29.8917 48.84 28.166 49.3513C27.572 49.5273 26.9296 49.3474 26.5133 48.8886C26.097 48.4298 25.9803 47.7731 26.213 47.1989L26.4681 46.5697Z" fill="white"/>
<path d="M181.685 50.8629C180.894 49.822 178.322 46.8112 174.819 42.8521C174.337 42.1424 173.533 41.852 172.911 42.0886C172.438 42.2693 172.214 42.7058 172.148 42.8521C170.494 45.9037 168.842 48.9553 167.189 52.007C166.885 51.7962 166.5 51.536 166.044 51.2435C165.442 50.8586 165.036 50.622 164.481 50.6005C164.449 50.6005 164.425 50.6005 164.419 50.6005C162.371 50.0736 160.021 49.8113 157.371 49.8113C154.722 49.8113 152.014 50.0951 149.455 50.6629C147.603 51.0737 145.962 51.5833 144.526 52.1919C144.474 52.2134 144.44 52.2651 144.44 52.3231V55.8995C144.44 55.9748 144.38 56.0371 144.304 56.0393L143.304 56.0823C143.201 56.0866 143.139 56.1963 143.186 56.2866L144.188 58.2565C144.504 58.8243 144.844 59.1081 145.208 59.1081C145.298 59.1081 145.612 59.0157 146.152 58.8264C146.156 58.8264 146.162 58.8221 146.167 58.82C147.614 58.1124 149.221 57.5447 150.984 57.121C152.752 56.6952 154.539 56.4823 156.352 56.4823C159.885 56.4823 162.354 57.1103 163.758 58.3619C165.163 59.6157 165.866 61.5899 165.866 64.2867V66.3448C165.866 66.4222 165.804 66.4846 165.726 66.4846H154.995C150.147 66.4846 146.375 67.3835 143.681 69.1814C140.984 70.9792 139.638 74.0072 139.638 78.2653C139.638 81.7191 140.726 84.403 142.9 86.3192C145.074 88.2353 147.883 89.1923 151.326 89.1923C154.769 89.1923 157.124 88.7665 158.801 87.9149C159.345 87.6783 159.616 87.3472 159.616 86.9213C159.616 86.7321 159.593 86.5665 159.548 86.4246L158.597 82.8761C158.462 82.2611 158.212 81.9536 157.849 81.9536L157.313 82.0933C157.313 82.0933 157.302 82.0955 157.298 82.0998C156.077 82.6181 154.696 82.8783 153.16 82.8783C151.347 82.8783 150.001 82.5235 149.117 81.8138C148.233 81.1041 147.793 79.874 147.793 78.1234C147.793 76.1836 148.324 74.8244 149.39 74.0438C150.455 73.2631 152.21 72.8739 154.657 72.8739H165.728C165.806 72.8739 165.868 72.9362 165.868 73.0137V85.5751C165.868 86.4267 166.072 87.0654 166.479 87.4912C166.887 87.9171 167.543 88.13 168.449 88.13H171.982C172.933 88.13 173.602 87.9171 173.986 87.4912C174.371 87.0654 174.565 86.4267 174.565 85.5751C174.651 78.8352 174.735 72.0975 174.821 65.3577C174.963 63.5598 174.959 59.9899 172.758 56.7318C172.324 56.0866 171.855 55.5339 171.386 55.0586C174.565 54.2952 177.743 53.5317 180.924 52.7704C181.208 52.7059 181.909 52.5124 182.068 52.007C182.208 51.5661 181.858 51.0866 181.688 50.8629H181.685Z" fill="white"/>
<path d="M53.5471 81.9558C50.9019 80.8482 48.9406 83.3795 44.8438 84.102C45.0954 84.302 45.3276 84.5451 45.4975 84.8139C45.7685 85.2418 45.8524 85.672 45.8782 85.958C46.4158 86.1257 47.4115 86.5257 48.1664 87.4849C48.704 88.1666 49.0825 89.0827 49.1771 89.8139C52.304 88.7085 55.9643 86.8139 55.8761 84.6741C55.8267 83.4956 54.6503 82.4182 53.5449 81.9558H53.5471Z" fill="#FFCE4F"/>
<path d="M50.2197 85.8525C47.1917 83.3686 45.6777 79.8804 45.6777 75.3857V53.8844C45.6777 52.9855 45.8777 52.3231 46.2799 51.8973C46.682 51.4715 47.3552 51.2586 48.3014 51.2586H52.0628C53.009 51.2586 53.695 51.4715 54.1208 51.8973C54.5467 52.3231 54.7596 52.9855 54.7596 53.8844V75.7406C54.7596 80.5191 57.7166 82.9084 63.6306 82.9084C69.5447 82.9084 72.5017 80.5191 72.5017 75.7406V41.4649C72.5017 40.566 72.7146 39.9036 73.1404 39.4778C73.5662 39.052 74.2522 38.8391 75.1985 38.8391H78.8888C80.734 38.8391 81.6566 39.7144 81.6566 41.4649V75.3857C81.6566 79.8331 80.1426 83.3106 77.1146 85.8181C74.0866 88.3257 69.592 89.5794 63.6306 89.5794C57.6693 89.5794 53.2456 88.3386 50.2176 85.8547L50.2197 85.8525Z" fill="white"/>
<path d="M96.8065 43.4865C96.4043 43.1317 96.2021 42.4586 96.2021 41.465V32.9488C96.2021 31.9552 96.4043 31.28 96.8065 30.9273C97.2086 30.5724 97.9312 30.3939 98.9699 30.3939H102.376C103.37 30.3939 104.069 30.5703 104.469 30.9273C104.871 31.2821 105.071 31.9552 105.071 32.9488V41.465C105.071 42.4586 104.871 43.1338 104.469 43.4865C104.067 43.8414 103.37 44.0199 102.376 44.0199H98.9699C97.929 44.0199 97.2086 43.8414 96.8065 43.4865Z" fill="#FA7CC7"/>
<path d="M52.5508 77.2954C52.3895 77.8395 51.74 77.8309 51.5701 78.276C51.4497 78.5943 51.611 79.061 51.897 79.2567C52.5293 79.6847 53.7766 78.7922 53.8562 78.9298C53.897 79.0008 53.5594 79.2223 53.2024 79.5836C52.94 79.8503 51.9637 80.8374 52.2218 81.5428C52.3594 81.9169 52.8218 82.1535 53.2024 82.1965C54.1143 82.2976 54.9508 81.3298 55.1616 81.5428L55.1917 81.6008C54.639 82.2976 54.6089 83.1772 55.0304 83.674C55.4003 84.1084 56.0691 84.1922 56.5573 84.0546C57.4713 83.7965 57.8283 82.7342 58.1014 82.8481C58.3057 82.932 58.0691 83.5127 58.4648 84.0546C58.5315 84.1471 58.7401 84.431 59.0799 84.4804C59.5358 84.5492 59.8993 84.1535 59.9896 84.0546C60.2498 83.7707 60.338 83.4438 60.3853 83.175C60.4627 82.7363 60.5315 81.8761 60.0584 80.5621C59.9573 80.2825 59.6089 79.3621 58.8433 78.332C58.7057 78.1449 58.0584 77.2911 56.9358 76.4244C56.239 75.8868 55.8261 75.5685 55.1594 75.3362C54.9315 75.2567 53.639 74.8287 52.2196 75.3362C51.8003 75.4868 50.8949 75.8094 50.8325 76.4244C50.8045 76.7061 50.9508 77.0631 51.2131 77.1879C51.6906 77.4137 52.3551 76.7707 52.5465 76.9707C52.6239 77.0502 52.5723 77.2115 52.5465 77.2975L52.5508 77.2954Z" fill="#FFCE4F"/>
<path d="M105.631 74.0761C104.969 72.7986 103.844 71.676 102.262 70.7061C100.677 69.7362 98.4185 68.7556 95.4851 67.762C94.8227 67.5255 94.2313 67.3362 93.7109 67.1943C91.298 66.39 89.513 65.7405 88.3539 65.2437C87.1947 64.7469 86.2614 64.1555 85.5517 63.4695C84.842 62.7835 84.4871 61.9211 84.4871 60.8802C84.4871 59.3189 85.113 58.22 86.3667 57.5813C87.6184 56.9426 89.5238 56.6243 92.0786 56.6243C93.9711 56.6243 95.8034 56.8135 97.5776 57.192C99.3518 57.5705 100.877 58.091 102.154 58.7533C102.485 58.9426 102.793 59.0372 103.077 59.0372C103.455 59.0372 103.763 58.7533 103.999 58.1856L105.631 55.1339C105.821 54.8027 105.915 54.5189 105.915 54.2823C105.915 53.8113 105.513 53.3597 104.709 52.9339C102.816 51.9877 100.853 51.2909 98.8206 50.8414C96.7862 50.3919 94.4442 50.1661 91.7969 50.1661C86.7818 50.1661 82.8441 51.078 79.9839 52.8974C77.1215 54.7189 75.6914 57.3791 75.6914 60.8802C75.6914 63.719 76.672 66.0007 78.6355 67.7276C80.5968 69.4545 83.4957 71.0266 87.328 72.4459C88.5108 72.8244 89.4808 73.1793 90.2377 73.5105C90.799 73.7105 91.3152 73.8976 91.7926 74.0718L93.2722 69.6782C93.3367 69.4868 93.5969 69.4588 93.7002 69.633L96.4894 74.3578C96.5303 74.4288 96.6056 74.4718 96.6894 74.4739L101.982 74.5879C102.182 74.5922 102.287 74.8245 102.158 74.9772L98.8034 78.9578C98.7518 79.0181 98.7346 79.0998 98.7561 79.1751L100.244 84.3816C100.298 84.5708 100.111 84.7407 99.9282 84.6676L95.083 82.7299C95.0098 82.6998 94.9281 82.7106 94.8615 82.7536L90.2829 85.8439C90.1173 85.9558 89.898 85.8267 89.913 85.6267L90.1195 83.1536C90.0162 83.1536 89.9173 83.1579 89.8098 83.1579C87.9173 83.1579 85.9173 82.9106 83.814 82.4138C81.7086 81.917 79.9237 81.3149 78.457 80.6052C77.8892 80.4181 77.558 80.3213 77.4634 80.3213C77.1795 80.3213 76.8957 80.5579 76.6118 81.031L74.7666 84.6504C74.6247 84.9343 74.5537 85.1708 74.5537 85.3601C74.5537 85.7859 74.9795 86.2117 75.8311 86.6375C77.7709 87.5837 80.0398 88.3042 82.642 88.801C85.242 89.2977 87.9388 89.5451 90.7302 89.5451C95.7432 89.5451 99.6464 88.5881 102.438 86.6719C105.229 84.7558 106.625 82.1901 106.625 78.9729C106.625 76.9858 106.294 75.3535 105.631 74.0761Z" fill="#FA7CC7"/>
<path d="M142.115 60.4674C142.801 59.2846 143.853 57.8674 145.272 56.2093C146.833 54.3641 148.003 52.7576 148.784 51.3834C149.564 50.0114 149.954 48.4285 149.954 46.6285C149.954 43.1296 148.784 40.4672 146.442 38.6456C144.1 36.8263 140.754 35.9144 136.401 35.9144C133.704 35.9144 131.315 36.4241 129.235 37.4392C127.153 38.4564 125.545 39.8758 124.409 41.6973C123.274 43.5188 122.706 45.6113 122.706 47.9769C122.706 48.3554 122.766 48.6285 122.882 48.792C123.001 48.9576 123.226 49.0415 123.556 49.0415H128.052C127.964 47.4199 128.358 45.7425 129.347 44.2995C131.437 41.25 134.997 41.0199 135.687 40.9747C136.414 40.9274 140.04 40.7833 142.496 43.5597C144.162 45.4436 144.356 47.6178 144.401 48.2328C144.573 50.5576 143.685 52.2565 143.504 52.5899C143.033 53.4566 142.478 54.0716 142.078 54.4566C142.418 55.0351 142.758 55.6136 143.098 56.1921C140.418 55.9319 139.201 55.8136 139.188 55.8093C139.188 55.8093 139.188 55.8093 139.186 55.8093C139.179 55.8093 139.166 55.805 139.151 55.8093C139.143 55.8093 139.134 55.8136 139.126 55.8179C138.665 56.0458 137.992 56.3189 137.145 56.463C136.472 56.577 135.872 56.5749 135.362 56.5319C134.521 57.5813 133.827 58.562 133.278 59.4738C132.427 60.8932 132.001 62.4545 132.001 64.1577V84.2375C132.001 85.8935 132.366 87.1236 133.1 87.9279C133.833 88.7322 135.074 89.1344 136.824 89.1344H143.919C144.96 89.1344 145.67 89.0053 146.048 88.743C146.427 88.4827 146.616 87.9515 146.616 87.1472V84.0246C146.616 83.3149 146.474 82.8182 146.19 82.5343C145.906 82.2504 145.386 82.1085 144.629 82.1085H142.713C142.05 82.1085 141.614 81.9794 141.401 81.7192C141.188 81.459 141.083 80.9751 141.083 80.2654V64.4416C141.083 62.9749 141.425 61.6502 142.111 60.4674H142.115Z" fill="#6BC9FF"/>
<path d="M107.913 87.1298C105.547 85.4975 103.82 82.9319 102.732 79.4308L98.332 65.6651C98.1901 65.1446 98.1191 64.7425 98.1191 64.4586C98.1191 63.7962 98.474 63.3704 99.1837 63.1812L104.01 61.5489C104.388 61.407 104.672 61.336 104.861 61.336C105.192 61.336 105.453 61.4672 105.642 61.7274C105.831 61.9876 106.02 62.45 106.21 63.1102L110.964 77.8007C111.579 79.6459 112.384 80.9706 113.377 81.7749C114.371 82.5792 115.956 82.9814 118.132 82.9814C121.113 82.9814 123.253 81.8803 124.554 79.6824C125.855 77.4824 126.504 74.0888 126.504 69.4995C126.504 64.9102 125.924 61.9188 124.767 59.9553C123.608 57.9919 121.681 57.0112 118.984 57.0112C117.659 57.0112 116.216 57.3187 114.655 57.9338C114.371 58.0284 114.158 58.0757 114.016 58.0757C113.543 58.0757 113.212 57.7682 113.023 57.1532L111.816 53.2499L111.674 52.6821C111.674 52.351 111.934 52.0671 112.455 51.8305C114.537 50.7423 117.162 50.1982 120.332 50.1982C125.345 50.1982 129.132 51.9359 131.687 55.4134C134.242 58.8908 135.52 63.6091 135.52 69.5705C135.52 76.0996 133.995 81.0674 130.943 84.4717C127.892 87.8782 123.457 89.5815 117.638 89.5815C113.521 89.5815 110.281 88.7664 107.915 87.1341L107.913 87.1298Z" fill="white"/>
<path d="M106.915 71.4631C106.793 71.5513 106.01 72.1169 106.152 72.6072C106.223 72.8481 106.483 72.9664 106.533 72.9879C107.006 73.1922 107.541 72.8459 107.567 72.9019C107.593 72.9578 107.01 73.1922 106.533 73.7513C106.341 73.975 106.158 74.1943 106.152 74.5148C106.145 74.7685 106.253 75.1062 106.533 75.2782C106.952 75.5342 107.457 75.2331 107.539 75.1836C107.793 75.0331 107.95 74.8116 107.95 74.8094C107.948 74.8073 106.713 75.7793 106.915 76.4223C106.991 76.661 107.238 76.7772 107.296 76.803C107.778 77.0288 108.339 76.646 108.404 76.5987C108.584 76.4718 108.7 76.3234 108.713 76.3342C108.741 76.3578 107.988 76.9535 108.059 77.5643C108.105 77.9557 108.485 78.3363 108.823 78.3277C109.27 78.3148 109.556 77.6116 109.668 77.6697C109.756 77.717 109.515 78.1363 109.586 78.7105C109.606 78.8568 109.67 79.3751 109.967 79.474C110.236 79.5621 110.55 79.2632 110.73 79.0933C110.943 78.8912 111.081 78.6718 111.193 78.4353C111.361 78.0826 111.539 77.5836 111.573 76.9084C111.61 76.2223 111.498 75.7126 111.382 75.1922C111.333 74.9621 111.173 74.2954 110.81 73.4761C110.685 73.1965 110.586 72.9707 110.429 72.7126C110.094 72.1621 109.429 71.076 108.33 70.9965C107.634 70.947 107.105 71.3277 106.913 71.4653L106.915 71.4631Z" fill="#FA7CC7"/>
<path d="M147.778 79.2868C147.001 79.4503 146.885 79.5728 146.825 79.6847C146.72 79.8825 146.743 80.1535 146.872 80.3363C147.047 80.5815 147.373 80.603 147.548 80.6137C147.922 80.6374 148.163 80.4976 148.199 80.5664C148.242 80.646 147.933 80.889 147.898 80.9148C147.627 81.1255 147.511 81.0933 147.272 81.289C147.145 81.3922 147.004 81.5062 146.941 81.7083C146.892 81.8632 146.868 82.1406 147.019 82.289C147.231 82.4976 147.713 82.3772 147.995 82.218C148.227 82.0868 148.311 81.9385 148.621 81.8438C148.662 81.8309 148.913 81.7578 148.946 81.8202C148.971 81.8696 148.851 81.9707 148.644 82.1686C148.283 82.517 148.102 82.6933 148.042 82.8675C148.029 82.9019 147.924 83.2223 148.09 83.5191C148.126 83.5836 148.24 83.7901 148.438 83.8202C148.726 83.8654 149.01 83.5148 149.064 83.446C149.193 83.2847 149.212 83.1772 149.365 83.0976C149.389 83.0847 149.589 82.9858 149.69 83.074C149.793 83.1643 149.72 83.3793 149.713 83.3987C149.668 83.5277 149.591 83.5686 149.412 83.7471C149.238 83.9213 149.152 84.0073 149.111 84.0955C149.023 84.2847 148.989 84.6052 149.158 84.7471C149.352 84.9084 149.705 84.7557 149.872 84.6439C150.006 84.5557 149.997 84.5062 150.199 84.317C150.335 84.1901 150.632 83.9105 150.739 83.9772C150.859 84.0503 150.621 84.4976 150.786 84.6288C150.89 84.7105 151.087 84.6159 151.111 84.6052C151.234 84.5471 151.309 84.4482 151.412 84.2568C151.621 83.8654 151.69 83.5815 151.69 83.5815C151.752 83.332 151.857 82.9191 151.829 82.3621C151.812 82.0266 151.761 81.2008 151.178 80.4051C150.816 79.9148 150.389 79.6202 150.077 79.4481C149.89 79.2782 149.687 79.233 149.401 79.1707C148.894 79.0589 148.509 79.1341 147.776 79.2911L147.778 79.2868Z" fill="#6BC9FF"/>
<path d="M38.755 101.143C37.5356 100.027 35.7248 99.4613 33.3721 99.4613C31.5097 99.4613 29.9957 99.7903 28.871 100.44C28.028 100.926 27.3161 101.532 26.7527 102.242C26.3914 102.698 26.4624 103.36 26.9161 103.752L27.7312 104.455C27.9376 104.633 28.2 104.73 28.471 104.73C28.8 104.73 29.1097 104.586 29.3205 104.337C29.6452 103.952 30.0194 103.603 30.4301 103.302C31.0818 102.825 31.9463 102.582 32.9979 102.582C34.2194 102.582 35.127 102.887 35.6969 103.487C36.2668 104.091 36.5571 104.96 36.5571 106.072V111.713H36.4453C35.2259 111.713 34.2216 112.055 33.4538 112.726C32.6818 113.403 32.2904 114.345 32.2904 115.526C32.2904 116.707 32.6818 117.649 33.4538 118.326C34.2194 118.997 35.2259 119.339 36.4453 119.339C37.6646 119.339 38.6689 118.999 39.4367 118.326C40.2087 117.649 40.6001 116.707 40.6001 115.526V105.9C40.6001 103.859 39.9786 102.257 38.755 101.139V101.143ZM37.8195 115.53C37.8195 116.016 37.6883 116.393 37.4195 116.683C37.1528 116.969 36.8001 117.109 36.342 117.109C35.884 117.109 35.5313 116.969 35.2668 116.683C34.9979 116.393 34.8668 116.016 34.8668 115.53C34.8668 115.044 34.9979 114.668 35.2668 114.378C35.5334 114.092 35.884 113.952 36.342 113.952C36.8001 113.952 37.1528 114.092 37.4195 114.378C37.6861 114.664 37.8195 115.053 37.8195 115.53Z" fill="white"/>
<path d="M64.0178 99.4635C62.3511 99.4635 60.8951 99.9281 59.6887 100.844C58.5768 101.689 57.7123 102.896 57.1145 104.438V103.276C57.1145 102.096 56.7231 101.154 55.951 100.476C55.1833 99.8055 54.1789 99.4635 52.9596 99.4635C51.7402 99.4635 50.7359 99.8033 49.9681 100.476C49.1961 101.154 48.8047 102.096 48.8047 103.276C48.8047 104.457 49.1961 105.399 49.9681 106.077C50.7337 106.747 51.7402 107.089 52.9596 107.089H53.0714V117.821C53.0714 118.434 53.5703 118.933 54.1832 118.933H56.0026C56.6155 118.933 57.1145 118.434 57.1145 117.821V109.625C57.1145 108.044 57.5661 106.599 58.422 105.446C58.594 105.216 58.7811 104.993 58.9811 104.786C59.5338 104.212 60.1575 103.745 60.8328 103.401C61.5016 103.061 62.1704 102.889 62.8242 102.889C63.5124 102.889 64.0651 103.119 64.5167 103.59C64.9618 104.057 65.1898 104.928 65.1898 106.175V117.819C65.1898 118.431 65.6887 118.93 66.3016 118.93H68.1189C68.7318 118.93 69.2307 118.431 69.2307 117.819V105.799C69.2307 103.702 68.8243 102.107 68.0199 101.059C67.207 99.999 65.8608 99.4592 64.0178 99.4592V99.4635ZM54.3338 103.276C54.3338 103.763 54.2026 104.139 53.9338 104.429C53.6671 104.715 53.3166 104.855 52.8585 104.855C52.4004 104.855 52.0477 104.715 51.7811 104.429C51.5122 104.139 51.3811 103.763 51.3811 103.276C51.3811 102.79 51.5122 102.414 51.7811 102.124C52.0477 101.838 52.3983 101.698 52.8585 101.698C53.3187 101.698 53.6693 101.838 53.9359 102.124C54.2047 102.414 54.3359 102.793 54.3359 103.276H54.3338Z" fill="white"/>
<path d="M94.5016 99.8722H92.6844C92.0715 99.8722 91.5726 100.371 91.5726 100.984V113.003C91.5726 113.999 91.2693 114.786 90.6693 115.343C90.0672 115.902 89.1962 116.188 88.0822 116.188H86.751C85.6607 116.188 84.8306 115.933 84.2843 115.429C83.7338 114.922 83.465 114.274 83.465 113.449C83.465 112.765 83.6865 112.176 84.123 111.698C84.5574 111.221 85.1575 110.958 85.908 110.913H86.4155C87.0284 110.913 87.5274 110.414 87.5274 109.801V109.143C87.5274 108.53 87.0284 108.031 86.4155 108.031H84.9768C84.0994 108.031 83.5316 107.885 83.2929 107.595L83.2865 107.586C83.1359 107.401 83.1101 107.156 83.2176 106.93C83.3338 106.689 83.5639 106.539 83.822 106.539C83.8327 106.539 83.8456 106.539 83.8564 106.539C83.9338 106.543 84.0112 106.545 84.0908 106.545C85.2177 106.545 86.1489 106.234 86.8585 105.618C87.5747 104.997 87.9381 104.117 87.9381 103.006C87.9381 101.894 87.5747 101.012 86.8585 100.393C86.1489 99.7775 85.2177 99.4657 84.0908 99.4657C82.6865 99.4657 81.5402 99.9066 80.6821 100.778C79.8241 101.646 79.3896 102.868 79.3896 104.406V106.214C79.3896 107.287 79.6327 108.218 80.1144 108.98C80.5596 109.687 81.2735 110.214 82.2413 110.55C81.4929 110.812 80.8542 111.21 80.3402 111.735C79.7552 112.333 79.4585 113.163 79.4585 114.203C79.4585 115.849 80.1789 117.135 81.5983 118.027C82.994 118.905 84.9467 119.348 87.4005 119.348C89.8543 119.348 92.0048 118.784 93.4393 117.677C94.8844 116.556 95.6178 114.872 95.6178 112.668V100.99C95.6178 100.378 95.1189 99.8786 94.5059 99.8786L94.5016 99.8722ZM85.4951 103.003C85.4951 103.487 85.3661 103.851 85.0994 104.117C84.8327 104.384 84.5015 104.513 84.0865 104.513C83.6714 104.513 83.3402 104.384 83.0736 104.117C82.8069 103.851 82.6779 103.487 82.6779 103.003C82.6779 102.519 82.8069 102.156 83.0736 101.889C83.3402 101.623 83.6714 101.494 84.0865 101.494C84.5015 101.494 84.8306 101.623 85.0994 101.889C85.3661 102.156 85.4951 102.522 85.4951 103.003Z" fill="white"/>
<path d="M116.091 101.109C114.872 100.016 113.085 99.4635 110.779 99.4635C108.939 99.4635 107.442 99.7925 106.33 100.442C105.496 100.928 104.788 101.534 104.227 102.244C103.868 102.7 103.939 103.362 104.39 103.752L105.207 104.459C105.412 104.636 105.674 104.732 105.943 104.732C106.272 104.732 106.582 104.588 106.792 104.337C107.115 103.952 107.483 103.603 107.887 103.302C108.528 102.825 109.384 102.584 110.435 102.584C111.612 102.584 112.491 102.883 113.048 103.472C113.607 104.064 113.891 104.928 113.891 106.04V117.821C113.891 118.434 114.39 118.933 115.003 118.933H116.823C117.435 118.933 117.934 118.434 117.934 117.821V105.836C117.934 103.795 117.313 102.203 116.089 101.107L116.091 101.109Z" fill="white"/>
<path d="M145.418 101.582C144.62 100.913 143.644 100.386 142.515 100.016C141.388 99.6484 140.096 99.4613 138.676 99.4613C137.257 99.4613 135.964 99.6484 134.838 100.016C133.709 100.386 132.73 100.913 131.934 101.582C131.134 102.255 130.511 103.083 130.083 104.046C129.655 105.008 129.438 106.091 129.438 107.27V117.823C129.438 118.436 129.936 118.935 130.549 118.935H132.369C132.982 118.935 133.481 118.436 133.481 117.823V115.191C133.481 114.352 133.638 113.582 133.945 112.902C134.22 112.289 134.638 111.741 135.184 111.27C135.25 112.18 135.584 112.928 136.177 113.498C136.82 114.117 137.672 114.431 138.713 114.431C139.842 114.431 140.762 114.113 141.451 113.485C142.143 112.853 142.494 111.958 142.494 110.823C142.494 109.687 142.143 108.793 141.451 108.16C140.762 107.532 139.842 107.214 138.713 107.214C138.059 107.214 137.438 107.322 136.866 107.532C136.293 107.743 135.773 108.031 135.319 108.395C134.866 108.756 134.463 109.18 134.128 109.657C133.87 110.023 133.653 110.416 133.483 110.831V107.616C133.483 106.031 133.936 104.784 134.833 103.909C135.73 103.033 137.025 102.588 138.681 102.588C140.337 102.588 141.629 103.031 142.528 103.909C143.425 104.784 143.879 106.031 143.879 107.616V117.827C143.879 118.44 144.377 118.939 144.99 118.939H146.81C147.423 118.939 147.922 118.44 147.922 117.827V107.274C147.922 106.098 147.704 105.012 147.276 104.051C146.846 103.087 146.223 102.259 145.425 101.586L145.418 101.582ZM137.369 110.818C137.369 110.339 137.491 109.962 137.737 109.7C137.98 109.436 138.311 109.309 138.745 109.309C139.18 109.309 139.509 109.438 139.754 109.7C139.997 109.965 140.121 110.341 140.121 110.818C140.121 111.296 139.999 111.674 139.754 111.939C139.511 112.203 139.182 112.33 138.745 112.33C138.309 112.33 137.982 112.201 137.737 111.939C137.493 111.674 137.369 111.298 137.369 110.818Z" fill="white"/>
<path d="M173.9 99.8721H172.081C171.468 99.8721 170.969 100.371 170.969 100.984V115.629L165.365 113.012C165.087 112.883 164.909 112.601 164.909 112.296V103.276C164.909 102.096 164.517 101.154 163.745 100.476C162.977 99.8054 161.973 99.4635 160.754 99.4635C159.534 99.4635 158.53 99.8033 157.762 100.476C156.99 101.154 156.599 102.096 156.599 103.276C156.599 104.457 156.99 105.399 157.762 106.076C158.528 106.747 159.534 107.089 160.754 107.089H160.866V110.513C160.866 110.92 160.896 111.281 160.956 111.588C160.876 111.584 160.786 111.58 160.687 111.58C159.468 111.58 158.461 111.926 157.696 112.61C156.924 113.298 156.532 114.257 156.532 115.462C156.532 116.666 156.924 117.625 157.696 118.313C158.461 118.997 159.468 119.343 160.687 119.343C161.906 119.343 162.87 119.014 163.625 118.367C164.111 117.95 164.457 117.416 164.651 116.78C164.754 116.44 165.059 116.212 165.41 116.212C165.526 116.212 165.64 116.238 165.747 116.289L171.038 118.825C171.186 118.896 171.354 118.935 171.519 118.935H173.902C174.515 118.935 175.014 118.436 175.014 117.823V100.986C175.014 100.373 174.515 99.8743 173.902 99.8743L173.9 99.8721ZM159.106 115.12C159.106 114.685 159.24 114.358 159.513 114.113C159.788 113.868 160.184 113.743 160.685 113.743C161.186 113.743 161.582 113.868 161.857 114.113C162.13 114.356 162.263 114.685 162.263 115.12V115.735C162.263 116.169 162.13 116.498 161.857 116.741C161.582 116.986 161.186 117.111 160.685 117.111C160.184 117.111 159.788 116.986 159.513 116.741C159.24 116.498 159.106 116.169 159.106 115.735V115.12ZM162.128 103.276C162.128 103.762 161.997 104.139 161.728 104.429C161.461 104.715 161.111 104.855 160.651 104.855C160.19 104.855 159.84 104.715 159.575 104.429C159.306 104.139 159.175 103.762 159.175 103.276C159.175 102.79 159.306 102.414 159.575 102.124C159.842 101.838 160.192 101.698 160.651 101.698C161.109 101.698 161.461 101.838 161.728 102.124C161.997 102.414 162.128 102.793 162.128 103.276Z" fill="white"/>
<path d="M45.8439 90.6891C45.5106 88.6546 44.3622 87.3191 42.4031 86.6847C42.259 86.6374 42.1944 86.5664 42.1557 86.4309C41.7084 84.8374 40.831 83.532 39.5278 82.5126C38.274 81.5341 36.8439 81.0029 35.2589 80.9212C33.9513 80.8545 32.6933 81.1019 31.5277 81.7083C29.1427 82.9449 27.7706 84.9126 27.3857 87.5686C27.3362 87.9105 27.347 87.9127 26.9986 87.9944C24.9512 88.4675 23.5383 90.6804 23.9706 92.7385C24.4029 94.7923 26.0265 96.1106 28.1276 96.1149C29.1642 96.1149 30.2008 96.1149 31.2373 96.1149C31.2847 96.1149 31.3298 96.1106 31.3771 96.1085V96.1171H33.8309V90.6503L32.9685 91.5364L32.6997 91.8138L32.4266 91.5407L31.689 90.8073L31.418 90.5364L31.1578 90.2761L31.4072 90.0073L31.4395 89.9708C31.4997 89.9041 31.575 89.8202 31.6653 89.7514C32.3986 89.1729 33.1148 88.4589 33.8524 87.5707C34.0761 87.3019 34.4288 86.9449 34.9019 86.9449C35.2008 86.9449 35.4868 87.0847 35.775 87.3729C36.5987 88.1966 37.4245 89.0202 38.2482 89.846C38.2869 89.8847 38.3256 89.9256 38.3578 89.96L38.3858 89.9901L38.6396 90.2589L38.3772 90.5213L37.7879 91.1127L37.4202 91.4805L37.1492 91.7514L36.8783 91.4805L35.9965 90.5944V96.1171H38.6288C39.4353 96.1171 40.2417 96.1192 41.0482 96.1149C43.1514 96.102 44.9257 94.8396 45.6203 92.8525C45.7364 92.5192 45.7923 92.1643 45.8762 91.8202V90.8331C45.8633 90.7858 45.8482 90.7385 45.8396 90.6912L45.8439 90.6891Z" fill="white"/>
<path d="M177.472 43.6091C177.418 43.6091 177.362 43.6048 177.306 43.594C176.779 43.5037 176.427 43.0026 176.517 42.4757L176.992 39.7273C177.083 39.2004 177.582 38.8477 178.111 38.9381C178.638 39.0284 178.99 39.5295 178.9 40.0564L178.425 42.8048C178.343 43.2757 177.934 43.6069 177.472 43.6069V43.6091Z" fill="#EB5A5A"/>
<path d="M182.375 49.4737C181.906 49.4737 181.493 49.1318 181.42 48.6543C181.338 48.1253 181.701 47.6328 182.228 47.5511L184.921 47.136C185.448 47.0543 185.942 47.4156 186.024 47.9447C186.106 48.4737 185.742 48.9662 185.215 49.0479L182.523 49.463C182.473 49.4716 182.424 49.4737 182.375 49.4737Z" fill="#EB5A5A"/>
<path d="M180.393 46.2972C180.124 46.2972 179.855 46.1854 179.666 45.9682C179.313 45.5661 179.354 44.9553 179.756 44.6026L181.89 42.7316C182.292 42.3789 182.902 42.4198 183.255 42.8219C183.608 43.2241 183.567 43.8349 183.165 44.1875L181.031 46.0585C180.849 46.2198 180.621 46.2994 180.395 46.2994L180.393 46.2972Z" fill="#EB5A5A"/>
<path d="M29.1395 15.9465C36.4922 15.9465 42.4729 21.9272 42.4729 29.28C42.4729 32.3209 41.4772 35.1854 39.5912 37.5596C37.7568 39.8693 35.1847 41.5274 32.3459 42.2263L29.2878 42.9812L26.2104 42.293C23.3071 41.6435 20.6662 40.0005 18.7759 37.6693C16.8339 35.2736 15.8081 32.3746 15.8081 29.2821C15.8081 21.9293 21.7888 15.9486 29.1416 15.9486M29.1416 9.49695C18.2146 9.49695 9.35645 18.3551 9.35645 29.2821C9.35645 38.7188 15.963 46.6092 24.8018 48.5877L25.0555 78.1127C25.0555 78.2654 25.09 78.4095 25.1416 78.545C25.1566 78.8633 25.1738 79.1084 25.1953 79.2396C25.2211 79.4031 25.4792 81.0203 25.9717 82.3472C25.9932 82.4031 26.0168 82.4526 26.0383 82.5063C28.0878 80.487 29.5201 79.3407 31.3846 78.7149C31.9201 78.5342 32.9825 78.1859 34.3137 78.0482C34.0621 77.0568 33.9438 76.0912 33.8922 75.2804H31.3825V71.0847H33.89V66.6115H31.4642V61.2717H33.89V56.3125H31.4642V50.9727H33.89V48.4952C42.5224 46.3683 48.9268 38.5747 48.9268 29.2843C48.9268 18.3573 40.0686 9.4991 29.1416 9.4991V9.49695Z" fill="#FFCE4F"/>
</svg>
