<svg width="200" height="132" viewBox="0 0 200 132" fill="none" xmlns="http://www.w3.org/2000/svg">
<g clip-path="url(#clip0_3762_56259)">
<path d="M190.94 130.845H8.58913C7.69881 130.845 6.97623 130.123 6.97623 129.232V51.83H1.61279C1.05365 51.83 0.533219 51.5397 0.238595 51.0623C-0.0560283 50.5849 -0.0796842 49.9892 0.171929 49.4903L5.10956 39.7139L8.33967 32.4537C8.35687 32.4171 8.37408 32.3784 8.39343 32.3419L9.99774 29.372C10.3225 28.772 10.9891 28.4408 11.6644 28.544C12.3397 28.6494 12.8752 29.1655 13.002 29.8365C13.402 31.9354 14.144 33.9354 15.2106 35.7827C16.1117 37.344 17.2321 38.772 18.5418 40.03C19.8838 41.1548 21.4042 42.0171 23.0601 42.5935C24.8902 43.23 26.8042 43.4903 28.7483 43.3677C29.3031 43.3311 29.8343 43.5849 30.159 44.0343C30.3956 44.3634 30.4988 44.7655 30.4537 45.1591C31.1741 44.8774 31.8881 44.5763 32.587 44.2559C34.4171 43.4171 36.1977 42.4343 37.8816 41.3333C39.5311 39.815 42.3784 36.7397 43.6558 32.6645C43.8558 32.03 44.4601 30.0967 44.4537 27.6688C44.4494 26.086 44.1827 24.7634 44.0687 24.2666C43.9848 23.9032 43.8859 23.5376 43.7741 23.1806C43.6214 22.6903 43.7117 22.1591 44.0149 21.7462C44.3182 21.3333 44.802 21.0903 45.3139 21.0903H77.0687L98.4515 1.42574C99.0773 0.849399 100.043 0.860152 100.658 1.44725L120.462 20.3849H184.217C184.819 20.3849 185.374 20.7225 185.649 21.258L199.819 48.6838C200.077 49.1827 200.056 49.7827 199.763 50.2623C199.471 50.7419 198.948 51.0365 198.385 51.0365H192.55V129.23C192.55 130.12 191.828 130.843 190.938 130.843L190.94 130.845ZM10.2042 127.619H189.327V49.4257C189.327 48.5354 190.049 47.8128 190.94 47.8128H195.74L183.236 23.6128H119.817C119.402 23.6128 119.002 23.4537 118.703 23.1655L99.5246 4.82574L78.7913 23.8924C78.4945 24.1655 78.1031 24.3182 77.6988 24.3182H47.3719C47.5225 25.1462 47.6773 26.3225 47.6816 27.6623C47.6902 30.5913 46.9719 32.8817 46.7354 33.6343C45.2063 38.5096 41.8364 42.101 39.9633 43.8064C39.901 43.8623 39.8343 43.9139 39.7655 43.9612C37.9139 45.1806 35.9526 46.2688 33.9332 47.1935C32.073 48.0451 30.1311 48.772 28.1676 49.3548C27.5741 49.5311 26.9311 49.3505 26.5139 48.8924C26.0967 48.4343 25.9805 47.7763 26.2128 47.2021L26.4666 46.5741C24.9483 46.458 23.4558 46.1483 22.0042 45.6429C19.9569 44.9311 18.0816 43.8623 16.4278 42.4666C16.402 42.4451 16.3784 42.4236 16.3547 42.3999C14.8085 40.9225 13.4838 39.2386 12.4214 37.3978C11.8709 36.4429 11.3934 35.4537 10.9913 34.4365L8.0429 41.0623C8.03214 41.086 8.02139 41.1096 8.00849 41.1333L4.23429 48.6064H8.58913C9.47946 48.6064 10.202 49.329 10.202 50.2193V127.621L10.2042 127.619Z" fill="white"/>
<path d="M181.683 50.8624C180.892 49.8216 178.32 46.8108 174.816 42.8517C174.335 42.142 173.53 41.8517 172.909 42.0882C172.436 42.2689 172.212 42.7054 172.145 42.8517C170.492 45.9033 168.84 48.9549 167.186 52.0065C166.883 51.7958 166.498 51.5356 166.042 51.2431C165.44 50.8581 165.034 50.6216 164.479 50.6001C164.447 50.6001 164.423 50.6001 164.416 50.6001C162.369 50.0732 160.019 49.8108 157.369 49.8108C154.72 49.8108 152.012 50.0947 149.453 50.6624C147.601 51.0732 145.96 51.5829 144.524 52.1915C144.472 52.213 144.438 52.2646 144.438 52.3226V55.899C144.438 55.9743 144.378 56.0366 144.302 56.0388L143.302 56.0818C143.199 56.0861 143.137 56.1958 143.184 56.2861L144.186 58.256C144.502 58.8237 144.842 59.1076 145.206 59.1076C145.296 59.1076 145.61 59.0151 146.15 58.8259C146.154 58.8259 146.16 58.8216 146.165 58.8194C147.612 58.1119 149.219 57.5442 150.982 57.1205C152.75 56.6947 154.537 56.4818 156.35 56.4818C159.883 56.4818 162.352 57.1098 163.756 58.3614C165.16 59.6151 165.864 61.5893 165.864 64.2861V66.3442C165.864 66.4216 165.801 66.4839 165.724 66.4839H154.993C150.145 66.4839 146.373 67.3829 143.679 69.1807C140.982 70.9786 139.636 74.0065 139.636 78.2646C139.636 81.7184 140.724 84.4022 142.898 86.3184C145.072 88.2345 147.881 89.1915 151.324 89.1915C154.767 89.1915 157.122 88.7657 158.799 87.914C159.343 87.6775 159.614 87.3463 159.614 86.9205C159.614 86.7313 159.591 86.5657 159.545 86.4237L158.595 82.8753C158.459 82.2603 158.21 81.9528 157.846 81.9528L157.311 82.0925C157.311 82.0925 157.3 82.0947 157.296 82.099C156.074 82.6173 154.694 82.8775 153.158 82.8775C151.345 82.8775 149.999 82.5227 149.115 81.813C148.231 81.1033 147.791 79.8732 147.791 78.1227C147.791 76.1829 148.322 74.8237 149.388 74.0431C150.453 73.2624 152.208 72.8732 154.655 72.8732H165.726C165.803 72.8732 165.866 72.9356 165.866 73.013V85.5743C165.866 86.4259 166.07 87.0646 166.477 87.4904C166.885 87.9162 167.541 88.1291 168.447 88.1291H171.98C172.93 88.1291 173.599 87.9162 173.984 87.4904C174.369 87.0646 174.563 86.4259 174.563 85.5743C174.649 78.8345 174.733 72.0968 174.819 65.3571C174.96 63.5592 174.956 59.9893 172.756 56.7313C172.322 56.0861 171.853 55.5334 171.384 55.0581C174.563 54.2947 177.741 53.5313 180.922 52.77C181.206 52.7054 181.907 52.5119 182.066 52.0065C182.206 51.5657 181.855 51.0861 181.685 50.8624H181.683Z" fill="white"/>
<path d="M53.546 81.9548C50.9008 80.8473 48.9395 83.3785 44.8428 84.101C45.0944 84.301 45.3266 84.5441 45.4965 84.8129C45.7675 85.2408 45.8514 85.6709 45.8772 85.957C46.4148 86.1247 47.4105 86.5247 48.1654 87.4838C48.703 88.1656 49.0815 89.0817 49.1761 89.8129C52.303 88.7075 55.9632 86.8129 55.875 84.6731C55.8256 83.4946 54.6492 82.4172 53.5438 81.9548H53.546Z" fill="#FFCE4F"/>
<path d="M50.2187 85.8516C47.1907 83.3678 45.6768 79.8796 45.6768 75.385V53.8839C45.6768 52.985 45.8768 52.3226 46.2789 51.8968C46.6811 51.471 47.3542 51.2581 48.3004 51.2581H52.0617C53.0079 51.2581 53.694 51.471 54.1198 51.8968C54.5456 52.3226 54.7585 52.985 54.7585 53.8839V75.7398C54.7585 80.5183 57.7155 82.9076 63.6294 82.9076C69.5434 82.9076 72.5004 80.5183 72.5004 75.7398V41.4646C72.5004 40.5656 72.7133 39.9033 73.1391 39.4775C73.5649 39.0516 74.251 38.8387 75.1972 38.8387H78.8875C80.7327 38.8387 81.6553 39.714 81.6553 41.4646V75.385C81.6553 79.8323 80.1413 83.3097 77.1133 85.8172C74.0854 88.3248 69.5907 89.5785 63.6294 89.5785C57.6682 89.5785 53.2445 88.3377 50.2165 85.8538L50.2187 85.8516Z" fill="white"/>
<path d="M96.8064 43.486C96.4043 43.1312 96.2021 42.4581 96.2021 41.4645V32.9484C96.2021 31.9548 96.4043 31.2796 96.8064 30.9269C97.2086 30.5721 97.9312 30.3936 98.9699 30.3936H102.376C103.37 30.3936 104.069 30.5699 104.469 30.9269C104.871 31.2817 105.071 31.9548 105.071 32.9484V41.4645C105.071 42.4581 104.871 43.1333 104.469 43.486C104.067 43.8409 103.37 44.0194 102.376 44.0194H98.9699C97.929 44.0194 97.2086 43.8409 96.8064 43.486Z" fill="#FA7CC7"/>
<path d="M52.5498 77.2946C52.3885 77.8387 51.739 77.8301 51.5692 78.2753C51.4487 78.5936 51.61 79.0602 51.896 79.2559C52.5283 79.6839 53.7756 78.7914 53.8552 78.929C53.896 79 53.5584 79.2215 53.2014 79.5828C52.939 79.8495 51.9627 80.8366 52.2208 81.5419C52.3584 81.9161 52.8208 82.1527 53.2014 82.1957C54.1132 82.2968 54.9498 81.329 55.1606 81.5419L55.1907 81.6C54.638 82.2968 54.6079 83.1764 55.0294 83.6731C55.3993 84.1075 56.0681 84.1914 56.5563 84.0538C57.4702 83.7957 57.8272 82.7333 58.1003 82.8473C58.3046 82.9312 58.0681 83.5118 58.4638 84.0538C58.5304 84.1463 58.739 84.4301 59.0788 84.4796C59.5347 84.5484 59.8982 84.1527 59.9885 84.0538C60.2487 83.7699 60.3369 83.443 60.3842 83.1742C60.4616 82.7355 60.5304 81.8753 60.0573 80.5613C59.9563 80.2817 59.6079 79.3613 58.8423 78.3312C58.7046 78.1441 58.0573 77.2903 56.9347 76.4237C56.238 75.886 55.8251 75.5678 55.1584 75.3355C54.9304 75.2559 53.638 74.828 52.2186 75.3355C51.7993 75.486 50.8939 75.8086 50.8315 76.4237C50.8036 76.7054 50.9498 77.0624 51.2122 77.1871C51.6896 77.4129 52.3541 76.7699 52.5455 76.9699C52.6229 77.0495 52.5713 77.2108 52.5455 77.2968L52.5498 77.2946Z" fill="#FFCE4F"/>
<path d="M105.629 74.0753C104.967 72.7979 103.842 71.6753 102.259 70.7054C100.674 69.7355 98.4163 68.7549 95.4829 67.7614C94.8206 67.5248 94.2292 67.3355 93.7087 67.1936C91.2958 66.3893 89.5109 65.7398 88.3518 65.2431C87.1926 64.7463 86.2593 64.1549 85.5496 63.4689C84.8399 62.7829 84.4851 61.9205 84.4851 60.8796C84.4851 59.3183 85.1109 58.2194 86.3647 57.5807C87.6163 56.942 89.5216 56.6237 92.0765 56.6237C93.969 56.6237 95.8012 56.813 97.5754 57.1915C99.3496 57.57 100.874 58.0904 102.152 58.7527C102.483 58.942 102.79 59.0366 103.074 59.0366C103.453 59.0366 103.76 58.7527 103.997 58.185L105.629 55.1334C105.818 54.8022 105.913 54.5183 105.913 54.2818C105.913 53.8108 105.511 53.3592 104.707 52.9334C102.814 51.9872 100.851 51.2904 98.8184 50.8409C96.784 50.3915 94.4421 50.1656 91.7948 50.1656C86.7797 50.1656 82.8421 51.0775 79.9819 52.8968C77.1195 54.7183 75.6894 57.3786 75.6894 60.8796C75.6894 63.7183 76.67 66.0001 78.6335 67.7269C80.5948 69.4538 83.4937 71.0259 87.326 72.4452C88.5087 72.8237 89.4786 73.1786 90.2356 73.5097C90.7969 73.7097 91.313 73.8968 91.7905 74.071L93.27 69.6775C93.3346 69.4861 93.5948 69.4581 93.698 69.6323L96.4872 74.357C96.5281 74.428 96.6034 74.471 96.6872 74.4732L101.98 74.5872C102.18 74.5915 102.285 74.8237 102.156 74.9764L98.8012 78.957C98.7496 79.0173 98.7324 79.099 98.7539 79.1743L100.242 84.3807C100.296 84.57 100.109 84.7398 99.926 84.6667L95.0808 82.7291C95.0077 82.699 94.926 82.7097 94.8593 82.7527L90.2808 85.8431C90.1152 85.9549 89.8958 85.8259 89.9109 85.6259L90.1173 83.1527C90.0141 83.1527 89.9152 83.157 89.8077 83.157C87.9152 83.157 85.9152 82.9097 83.812 82.413C81.7066 81.9162 79.9216 81.314 78.455 80.6044C77.8872 80.4173 77.5561 80.3205 77.4614 80.3205C77.1776 80.3205 76.8937 80.5571 76.6098 81.0302L74.7647 84.6495C74.6227 84.9334 74.5518 85.1699 74.5518 85.3592C74.5518 85.785 74.9776 86.2108 75.8292 86.6366C77.769 87.5829 80.0378 88.3033 82.6399 88.8001C85.2399 89.2968 87.9367 89.5441 90.7281 89.5441C95.741 89.5441 99.6442 88.5872 102.436 86.671C105.227 84.7549 106.623 82.1893 106.623 78.9721C106.623 76.985 106.292 75.3527 105.629 74.0753Z" fill="#FA7CC7"/>
<path d="M142.114 60.4666C142.8 59.2838 143.851 57.8666 145.271 56.2086C146.832 54.3634 148.002 52.7569 148.783 51.3828C149.563 50.0107 149.952 48.4279 149.952 46.6279C149.952 43.129 148.782 40.4666 146.441 38.6451C144.099 36.8258 140.752 35.9139 136.4 35.9139C133.703 35.9139 131.314 36.4236 129.234 37.4387C127.152 38.4559 125.544 39.8752 124.408 41.6967C123.273 43.5182 122.705 45.6107 122.705 47.9763C122.705 48.3548 122.765 48.6279 122.881 48.7914C123 48.9569 123.226 49.0408 123.555 49.0408H128.051C127.963 47.4193 128.357 45.7419 129.346 44.2989C131.436 41.2494 134.995 41.0193 135.686 40.9742C136.413 40.9268 140.038 40.7828 142.494 43.5591C144.161 45.443 144.355 47.6172 144.4 48.2322C144.572 50.557 143.684 52.2559 143.503 52.5892C143.032 53.4559 142.477 54.0709 142.077 54.4559C142.417 55.0344 142.757 55.6129 143.096 56.1914C140.417 55.9311 139.2 55.8129 139.187 55.8086C139.187 55.8086 139.187 55.8086 139.185 55.8086C139.178 55.8086 139.165 55.8043 139.15 55.8086C139.142 55.8086 139.133 55.8129 139.124 55.8172C138.664 56.0451 137.991 56.3182 137.144 56.4623C136.471 56.5763 135.871 56.5742 135.361 56.5311C134.52 57.5806 133.826 58.5613 133.277 59.4731C132.426 60.8924 132 62.4537 132 64.1569V84.2365C132 85.8924 132.365 87.1225 133.099 87.9268C133.832 88.7311 135.073 89.1333 136.823 89.1333H143.918C144.959 89.1333 145.669 89.0043 146.047 88.7419C146.426 88.4817 146.615 87.9505 146.615 87.1462V84.0236C146.615 83.3139 146.473 82.8172 146.189 82.5333C145.905 82.2494 145.385 82.1075 144.628 82.1075H142.712C142.049 82.1075 141.613 81.9785 141.4 81.7182C141.187 81.458 141.081 80.9742 141.081 80.2645V64.4408C141.081 62.9742 141.423 61.6494 142.109 60.4666H142.114Z" fill="#6BC9FF"/>
<path d="M107.912 87.1291C105.546 85.4968 103.819 82.9312 102.731 79.4301L98.3311 65.6645C98.1891 65.1441 98.1182 64.742 98.1182 64.4581C98.1182 63.7957 98.473 63.3699 99.1827 63.1807L104.008 61.5484C104.387 61.4065 104.671 61.3355 104.86 61.3355C105.191 61.3355 105.451 61.4667 105.641 61.7269C105.83 61.9871 106.019 62.4495 106.208 63.1097L110.963 77.8C111.578 79.6452 112.383 80.9699 113.376 81.7742C114.37 82.5785 115.955 82.9807 118.131 82.9807C121.112 82.9807 123.251 81.8796 124.553 79.6817C125.854 77.4817 126.503 74.0882 126.503 69.4989C126.503 64.9097 125.922 61.9183 124.765 59.9549C123.606 57.9914 121.679 57.0108 118.983 57.0108C117.658 57.0108 116.215 57.3183 114.654 57.9334C114.37 58.028 114.157 58.0753 114.015 58.0753C113.542 58.0753 113.211 57.7678 113.021 57.1527L111.815 53.2495L111.673 52.6817C111.673 52.3506 111.933 52.0667 112.454 51.8301C114.535 50.742 117.161 50.1979 120.331 50.1979C125.344 50.1979 129.131 51.9355 131.686 55.4129C134.241 58.8903 135.518 63.6086 135.518 69.5699C135.518 76.099 133.993 81.0667 130.942 84.471C127.89 87.8774 123.456 89.5807 117.636 89.5807C113.52 89.5807 110.279 88.7656 107.914 87.1334L107.912 87.1291Z" fill="white"/>
<path d="M106.913 71.4624C106.791 71.5506 106.008 72.1162 106.15 72.6065C106.221 72.8473 106.481 72.9656 106.531 72.9871C107.004 73.1914 107.539 72.8452 107.565 72.9011C107.591 72.957 107.008 73.1914 106.531 73.7506C106.339 73.9742 106.156 74.1936 106.15 74.514C106.143 74.7678 106.251 75.1054 106.531 75.2775C106.95 75.5334 107.455 75.2323 107.537 75.1828C107.791 75.0323 107.948 74.8108 107.948 74.8086C107.946 74.8065 106.711 75.7785 106.913 76.4215C106.989 76.6602 107.236 76.7764 107.294 76.8022C107.776 77.028 108.337 76.6452 108.402 76.5979C108.582 76.471 108.698 76.3226 108.711 76.3334C108.739 76.357 107.987 76.9527 108.057 77.5635C108.103 77.9549 108.483 78.3355 108.821 78.3269C109.268 78.314 109.554 77.6108 109.666 77.6689C109.754 77.7162 109.513 78.1355 109.584 78.7097C109.604 78.856 109.668 79.3742 109.965 79.4732C110.234 79.5613 110.548 79.2624 110.728 79.0925C110.941 78.8904 111.079 78.671 111.191 78.4344C111.359 78.0818 111.537 77.5828 111.571 76.9076C111.608 76.2215 111.496 75.7119 111.38 75.1914C111.331 74.9613 111.171 74.2947 110.808 73.4753C110.683 73.1957 110.584 72.9699 110.427 72.7119C110.092 72.1613 109.427 71.0753 108.328 70.9957C107.632 70.9463 107.103 71.3269 106.911 71.4646L106.913 71.4624Z" fill="#FA7CC7"/>
<path d="M147.776 79.2861C146.999 79.4495 146.883 79.5721 146.823 79.6839C146.718 79.8818 146.741 80.1527 146.87 80.3355C147.045 80.5807 147.371 80.6022 147.546 80.613C147.92 80.6366 148.161 80.4968 148.197 80.5657C148.24 80.6452 147.931 80.8882 147.896 80.914C147.625 81.1248 147.509 81.0925 147.27 81.2882C147.144 81.3915 147.002 81.5054 146.939 81.7076C146.89 81.8624 146.866 82.1398 147.017 82.2882C147.23 82.4968 147.711 82.3764 147.993 82.2173C148.225 82.0861 148.309 81.9377 148.619 81.8431C148.66 81.8302 148.911 81.757 148.944 81.8194C148.969 81.8689 148.849 81.9699 148.642 82.1678C148.281 82.5162 148.101 82.6925 148.04 82.8667C148.027 82.9011 147.922 83.2216 148.088 83.5183C148.124 83.5829 148.238 83.7893 148.436 83.8194C148.724 83.8646 149.008 83.514 149.062 83.4452C149.191 83.2839 149.21 83.1764 149.363 83.0968C149.387 83.0839 149.587 82.985 149.688 83.0732C149.791 83.1635 149.718 83.3786 149.711 83.3979C149.666 83.5269 149.589 83.5678 149.41 83.7463C149.236 83.9205 149.15 84.0065 149.109 84.0947C149.021 84.2839 148.987 84.6044 149.156 84.7463C149.35 84.9076 149.703 84.7549 149.87 84.6431C150.004 84.5549 149.995 84.5054 150.197 84.3162C150.333 84.1893 150.63 83.9097 150.737 83.9764C150.857 84.0495 150.619 84.4968 150.784 84.628C150.888 84.7097 151.085 84.6151 151.109 84.6044C151.232 84.5463 151.307 84.4474 151.41 84.256C151.619 83.8646 151.688 83.5807 151.688 83.5807C151.75 83.3312 151.855 82.9183 151.827 82.3613C151.81 82.0259 151.759 81.2001 151.176 80.4044C150.814 79.914 150.387 79.6194 150.075 79.4474C149.888 79.2775 149.685 79.2323 149.399 79.1699C148.892 79.0581 148.507 79.1334 147.774 79.2904L147.776 79.2861Z" fill="#6BC9FF"/>
<path d="M36.4432 119.26C35.2454 119.26 34.2561 118.927 33.5056 118.267C32.7508 117.604 32.368 116.684 32.368 115.527C32.368 114.37 32.7508 113.447 33.5056 112.787C34.2561 112.129 35.2454 111.794 36.4432 111.794H36.6368V106.071C36.6368 104.938 36.34 104.049 35.7551 103.43C35.1701 102.813 34.2432 102.499 32.9981 102.499C31.9293 102.499 31.0497 102.746 30.383 103.234C29.968 103.54 29.5895 103.89 29.2604 104.282C29.0647 104.514 28.7766 104.645 28.4712 104.645C28.2196 104.645 27.9744 104.555 27.7852 104.389L26.9701 103.686C26.5572 103.329 26.4884 102.703 26.8174 102.288C27.3744 101.587 28.0798 100.987 28.9142 100.505C30.026 99.8645 31.5271 99.5398 33.3744 99.5398C35.7056 99.5398 37.497 100.099 38.7013 101.2C39.9078 102.303 40.5207 103.884 40.5207 105.901V115.527C40.5207 116.684 40.1379 117.604 39.383 118.267C38.6325 118.925 37.6432 119.26 36.4454 119.26H36.4432ZM36.34 113.867C35.8647 113.867 35.4819 114.019 35.2045 114.318C34.925 114.619 34.783 115.026 34.783 115.527C34.783 116.028 34.925 116.434 35.2045 116.735C35.4819 117.034 35.8647 117.187 36.34 117.187C36.8153 117.187 37.1981 117.034 37.4755 116.735C37.7551 116.432 37.897 116.028 37.897 115.527C37.897 115.026 37.7551 114.622 37.4755 114.318C37.1959 114.017 36.8153 113.867 36.34 113.867Z" fill="white"/>
<path d="M33.372 99.6237C35.6925 99.6237 37.4516 100.17 38.6452 101.262C39.8409 102.355 40.4366 103.901 40.4366 105.905V115.531C40.4366 116.669 40.0667 117.561 39.3269 118.211C38.5871 118.86 37.6258 119.183 36.443 119.183C35.2602 119.183 34.2989 118.858 33.5591 118.211C32.8194 117.561 32.4495 116.669 32.4495 115.531C32.4495 114.394 32.8194 113.501 33.5591 112.852C34.2989 112.202 35.2602 111.88 36.443 111.88H36.7161V106.077C36.7161 104.916 36.4151 104.017 35.8108 103.381C35.2086 102.744 34.2688 102.424 32.9957 102.424C31.9032 102.424 31.0151 102.675 30.3333 103.174C29.9118 103.484 29.5312 103.837 29.1978 104.234C29.0108 104.458 28.7419 104.57 28.471 104.57C28.2473 104.57 28.0194 104.493 27.8366 104.333L27.0215 103.63C26.6452 103.305 26.5699 102.733 26.8796 102.344C27.4323 101.647 28.1226 101.06 28.9527 100.581C30.0559 99.9442 31.529 99.6237 33.372 99.6237ZM36.3419 117.271C36.843 117.271 37.2409 117.112 37.5376 116.794C37.8323 116.475 37.9806 116.054 37.9806 115.531C37.9806 115.009 37.8323 114.587 37.5376 114.269C37.2409 113.951 36.843 113.791 36.3419 113.791C35.8409 113.791 35.443 113.951 35.1484 114.269C34.8516 114.587 34.7054 115.009 34.7054 115.531C34.7054 116.054 34.8538 116.475 35.1484 116.794C35.443 117.112 35.843 117.271 36.3419 117.271ZM33.372 99.4624C31.5097 99.4624 29.9957 99.7915 28.871 100.441C28.028 100.927 27.3161 101.533 26.7527 102.243C26.3914 102.699 26.4624 103.361 26.9161 103.753L27.7312 104.456C27.9376 104.634 28.2 104.731 28.471 104.731C28.8 104.731 29.1097 104.587 29.3204 104.338C29.6452 103.953 30.0194 103.604 30.4301 103.303C31.0817 102.826 31.9462 102.583 32.9978 102.583C34.2194 102.583 35.1269 102.888 35.6968 103.488C36.2667 104.093 36.557 104.961 36.557 106.073V111.714H36.4452C35.2258 111.714 34.2215 112.056 33.4538 112.727C32.6817 113.404 32.2903 114.346 32.2903 115.527C32.2903 116.708 32.6817 117.65 33.4538 118.327C34.2194 118.998 35.2258 119.34 36.4452 119.34C37.6645 119.34 38.6688 119 39.4366 118.327C40.2086 117.65 40.6 116.708 40.6 115.527V105.901C40.6 103.86 39.9785 102.258 38.7548 101.14C37.5355 100.024 35.7247 99.4581 33.372 99.4581V99.4624ZM36.3419 117.11C35.8839 117.11 35.5312 116.97 35.2667 116.684C34.9978 116.394 34.8667 116.017 34.8667 115.531C34.8667 115.045 34.9978 114.669 35.2667 114.379C35.5333 114.093 35.8839 113.953 36.3419 113.953C36.8 113.953 37.1527 114.093 37.4194 114.379C37.686 114.665 37.8194 115.054 37.8194 115.531C37.8194 116.009 37.6882 116.394 37.4194 116.684C37.1527 116.97 36.8 117.11 36.3419 117.11Z" fill="white"/>
<path d="M66.2992 118.852C65.7293 118.852 65.267 118.389 65.267 117.819V106.176C65.267 104.908 65.0326 104.019 64.5724 103.536C64.1121 103.054 63.5229 102.811 62.8218 102.811C62.1207 102.811 61.4734 102.985 60.7939 103.331C60.11 103.68 59.4799 104.151 58.9207 104.731C58.7186 104.94 58.5293 105.166 58.3573 105.398C57.4906 106.564 57.0326 108.026 57.0326 109.624V117.819C57.0326 118.389 56.5702 118.852 56.0003 118.852H54.181C53.6111 118.852 53.1487 118.389 53.1487 117.819V107.007H52.9552C51.7573 107.007 50.7681 106.673 50.0175 106.013C49.2627 105.351 48.8799 104.43 48.8799 103.273C48.8799 102.116 49.2627 101.194 50.0175 100.533C50.7681 99.8754 51.7573 99.5399 52.9552 99.5399C54.153 99.5399 55.1401 99.8732 55.8928 100.533C56.6476 101.196 57.0304 102.116 57.0304 103.273V104.796H57.0627C57.6562 103.108 58.5552 101.8 59.7336 100.903C60.925 99.998 62.3659 99.5399 64.0154 99.5399C65.8304 99.5399 67.1552 100.067 67.953 101.108C68.7444 102.142 69.1466 103.721 69.1466 105.798V117.817C69.1466 118.387 68.6842 118.85 68.1143 118.85H66.2949L66.2992 118.852ZM52.8562 101.615C52.381 101.615 51.9982 101.768 51.7207 102.067C51.4412 102.368 51.2992 102.774 51.2992 103.275C51.2992 103.776 51.4412 104.183 51.7207 104.484C51.9982 104.783 52.381 104.936 52.8562 104.936C53.3315 104.936 53.7143 104.783 53.9917 104.484C54.2713 104.181 54.4132 103.776 54.4132 103.275C54.4132 102.774 54.2713 102.37 53.9917 102.067C53.7121 101.768 53.3315 101.615 52.8562 101.615Z" fill="white"/>
<path d="M64.0174 99.6238C65.8152 99.6238 67.1056 100.136 67.8905 101.159C68.6755 102.183 69.069 103.731 69.069 105.802V117.822C69.069 118.346 68.6432 118.772 68.1185 118.772H66.3013C65.7765 118.772 65.3507 118.346 65.3507 117.822V106.179C65.3507 104.882 65.112 103.983 64.6346 103.482C64.1572 102.983 63.5529 102.731 62.826 102.731C62.1443 102.731 61.454 102.908 60.7615 103.26C60.0669 103.613 59.4368 104.086 58.8669 104.678C58.6626 104.89 58.4712 105.116 58.2948 105.353C57.383 106.579 56.955 108.099 56.955 109.626V117.822C56.955 118.346 56.5292 118.772 56.0045 118.772H54.1851C53.6604 118.772 53.2346 118.346 53.2346 117.822V106.929H52.9615C51.7787 106.929 50.8174 106.604 50.0776 105.957C49.3378 105.308 48.9679 104.415 48.9679 103.278C48.9679 102.14 49.3378 101.247 50.0776 100.598C50.8174 99.9507 51.7787 99.6259 52.9615 99.6259C54.1443 99.6259 55.1056 99.9507 55.8453 100.598C56.5851 101.247 56.955 102.14 56.955 103.278V104.882H57.1249C57.7163 103.174 58.6045 101.873 59.7873 100.974C60.9701 100.075 62.3808 99.6259 64.0195 99.6259M52.8583 105.019C53.3593 105.019 53.7572 104.86 54.0518 104.542C54.3464 104.224 54.4948 103.802 54.4948 103.28C54.4948 102.757 54.3464 102.336 54.0518 102.017C53.755 101.699 53.3572 101.54 52.8583 101.54C52.3593 101.54 51.9593 101.699 51.6626 102.017C51.3658 102.336 51.2195 102.757 51.2195 103.28C51.2195 103.802 51.3679 104.224 51.6626 104.542C51.9572 104.86 52.3572 105.019 52.8583 105.019ZM64.0195 99.4646C62.3529 99.4646 60.897 99.9291 59.6905 100.845C58.5787 101.69 57.7142 102.897 57.1163 104.439V103.278C57.1163 102.097 56.7249 101.155 55.9529 100.478C55.1851 99.8066 54.1808 99.4646 52.9615 99.4646C51.7421 99.4646 50.7378 99.8044 49.9701 100.478C49.198 101.155 48.8066 102.097 48.8066 103.278C48.8066 104.458 49.198 105.4 49.9701 106.078C50.7357 106.748 51.7421 107.09 52.9615 107.09H53.0733V117.822C53.0733 118.435 53.5722 118.933 54.1851 118.933H56.0045C56.6174 118.933 57.1163 118.435 57.1163 117.822V109.626C57.1163 108.045 57.5679 106.6 58.4238 105.447C58.5959 105.217 58.783 104.994 58.983 104.787C59.5357 104.213 60.1593 103.746 60.8346 103.402C61.5034 103.062 62.1722 102.89 62.826 102.89C63.5142 102.89 64.0669 103.121 64.5185 103.592C64.9636 104.058 65.1916 104.929 65.1916 106.176V117.819C65.1916 118.432 65.6905 118.931 66.3034 118.931H68.1206C68.7335 118.931 69.2324 118.432 69.2324 117.819V105.8C69.2324 103.703 68.826 102.108 68.0217 101.06C67.2088 100 65.8626 99.4603 64.0195 99.4603V99.4646ZM52.8583 104.858C52.4002 104.858 52.0475 104.718 51.7808 104.432C51.512 104.142 51.3808 103.766 51.3808 103.28C51.3808 102.794 51.512 102.417 51.7808 102.127C52.0475 101.841 52.398 101.701 52.8583 101.701C53.3185 101.701 53.669 101.841 53.9357 102.127C54.2045 102.417 54.3357 102.796 54.3357 103.28C54.3357 103.764 54.2045 104.142 53.9357 104.432C53.669 104.718 53.3185 104.858 52.8604 104.858H52.8583Z" fill="white"/>
<path d="M87.398 119.26C84.9571 119.26 83.0195 118.819 81.6388 117.951C80.2431 117.075 79.5356 115.811 79.5356 114.196C79.5356 113.176 79.8238 112.366 80.3958 111.785C80.9485 111.222 81.6453 110.809 82.4711 110.553V110.536C81.4173 110.211 80.6453 109.671 80.1786 108.931C79.7055 108.183 79.4668 107.267 79.4668 106.209V104.4C79.4668 102.884 79.8948 101.682 80.7356 100.828C81.5786 99.9743 82.7055 99.542 84.0862 99.542C85.1937 99.542 86.1055 99.8474 86.8023 100.45C87.5012 101.054 87.8539 101.914 87.8539 103.002C87.8539 104.09 87.4991 104.951 86.8023 105.555C86.1077 106.157 85.1937 106.462 84.0862 106.462C84.0087 106.462 83.9313 106.462 83.856 106.456H83.8173C83.5292 106.456 83.269 106.624 83.1399 106.893C83.0195 107.146 83.0474 107.424 83.2195 107.634C83.4819 107.953 84.0711 108.11 84.9743 108.11H86.413C86.9829 108.11 87.4453 108.572 87.4453 109.142V109.8C87.4453 110.37 86.9829 110.832 86.413 110.832H85.8969C85.1292 110.877 84.512 111.148 84.0625 111.643C83.613 112.138 83.3829 112.744 83.3829 113.45C83.3829 114.286 83.6668 114.972 84.2281 115.49C84.7894 116.009 85.6388 116.271 86.7507 116.271H88.0819C89.2152 116.271 90.1055 115.981 90.7227 115.404C91.3399 114.83 91.6517 114.024 91.6517 113.007V100.987C91.6517 100.419 92.1141 99.9549 92.684 99.9549H94.5012C95.0711 99.9549 95.5335 100.417 95.5335 100.987V112.665C95.5335 114.843 94.8109 116.505 93.3851 117.609C91.9657 118.708 89.9507 119.262 87.3958 119.262L87.398 119.26ZM84.0862 101.409C83.656 101.409 83.2948 101.551 83.0173 101.828C82.7378 102.108 82.598 102.501 82.598 103C82.598 103.499 82.7399 103.893 83.0173 104.172C83.2948 104.452 83.656 104.591 84.0862 104.591C84.5163 104.591 84.8776 104.45 85.155 104.172C85.4345 103.893 85.5743 103.499 85.5743 103C85.5743 102.501 85.4324 102.108 85.155 101.828C84.8754 101.551 84.5163 101.409 84.0862 101.409Z" fill="white"/>
<path d="M84.086 99.6237C85.1785 99.6237 86.0667 99.9205 86.7484 100.512C87.4301 101.103 87.7721 101.933 87.7721 103.004C87.7721 104.075 87.4301 104.903 86.7484 105.497C86.0667 106.088 85.1785 106.385 84.086 106.385C84.0086 106.385 83.9333 106.385 83.8581 106.379C83.843 106.379 83.8301 106.379 83.8151 106.379C83.1527 106.379 82.7312 107.168 83.1549 107.69C83.157 107.695 83.1613 107.697 83.1635 107.701C83.4366 108.03 84.0387 108.196 84.9721 108.196H86.4108C86.9355 108.196 87.3613 108.622 87.3613 109.146V109.804C87.3613 110.329 86.9355 110.755 86.4108 110.755H85.8946C85.0968 110.8 84.4667 111.08 84 111.591C83.5334 112.103 83.3011 112.723 83.3011 113.452C83.3011 114.316 83.5914 115.017 84.1721 115.551C84.7527 116.086 85.6108 116.353 86.7484 116.353H88.0796C89.2409 116.353 90.1398 116.058 90.7764 115.465C91.4129 114.873 91.7312 114.054 91.7312 113.007V100.987C91.7312 100.462 92.157 100.037 92.6817 100.037H94.4989C95.0237 100.037 95.4495 100.462 95.4495 100.987V112.665C95.4495 114.826 94.7441 116.454 93.3333 117.546C91.9226 118.639 89.942 119.185 87.3936 119.185C84.8452 119.185 83.0538 118.753 81.6753 117.888C80.2989 117.024 79.6108 115.796 79.6108 114.202C79.6108 113.202 79.8882 112.415 80.4473 111.847C81.0043 111.28 81.7054 110.869 82.5463 110.619V110.484C81.4753 110.166 80.7075 109.637 80.243 108.897C79.7764 108.157 79.5441 107.265 79.5441 106.217V104.409C79.5441 102.908 79.9592 101.736 80.7893 100.893C81.6194 100.052 82.7183 99.6302 84.0839 99.6302M84.0839 104.682C84.5398 104.682 84.914 104.533 85.2108 104.239C85.5054 103.944 85.6538 103.533 85.6538 103.011C85.6538 102.488 85.5054 102.077 85.2108 101.783C84.914 101.488 84.5398 101.34 84.0839 101.34C83.628 101.34 83.2538 101.488 82.957 101.783C82.6602 102.08 82.514 102.488 82.514 103.011C82.514 103.533 82.6624 103.944 82.957 104.239C83.2516 104.536 83.628 104.682 84.0839 104.682ZM84.0839 99.4689C82.6796 99.4689 81.5334 99.9097 80.6753 100.781C79.8172 101.65 79.3828 102.871 79.3828 104.409V106.217C79.3828 107.29 79.6258 108.222 80.1075 108.983C80.5527 109.69 81.2667 110.217 82.2344 110.553C81.486 110.815 80.8473 111.213 80.3333 111.738C79.7484 112.336 79.4516 113.166 79.4516 114.206C79.4516 115.852 80.1721 117.138 81.5914 118.03C82.9871 118.908 84.9398 119.351 87.3936 119.351C89.8473 119.351 91.9979 118.787 93.4323 117.68C94.8774 116.559 95.6108 114.875 95.6108 112.671V100.994C95.6108 100.381 95.1118 99.8818 94.4989 99.8818H92.6817C92.0688 99.8818 91.5699 100.381 91.5699 100.994V113.013C91.5699 114.009 91.2667 114.796 90.6667 115.353C90.0645 115.912 89.1936 116.198 88.0796 116.198H86.7484C85.6581 116.198 84.828 115.942 84.2817 115.439C83.7312 114.931 83.4624 114.284 83.4624 113.458C83.4624 112.774 83.6839 112.185 84.1204 111.708C84.5549 111.23 85.1549 110.968 85.9054 110.923H86.4129C87.0258 110.923 87.5247 110.424 87.5247 109.811V109.153C87.5247 108.54 87.0258 108.041 86.4129 108.041H84.9742C84.0968 108.041 83.529 107.895 83.2903 107.604L83.2839 107.596C83.1333 107.411 83.1075 107.166 83.2151 106.94C83.3312 106.699 83.5613 106.548 83.8194 106.548C83.8301 106.548 83.843 106.548 83.8538 106.548C83.9312 106.553 84.0086 106.555 84.0882 106.555C85.2151 106.555 86.1463 106.243 86.8559 105.628C87.5721 105.007 87.9355 104.127 87.9355 103.015C87.9355 101.903 87.5721 101.022 86.8559 100.402C86.1463 99.7872 85.2151 99.4753 84.0882 99.4753L84.0839 99.4689ZM84.0839 104.52C83.6688 104.52 83.3376 104.391 83.071 104.125C82.8043 103.858 82.6753 103.495 82.6753 103.011C82.6753 102.527 82.8043 102.163 83.071 101.897C83.3376 101.63 83.6688 101.501 84.0839 101.501C84.4989 101.501 84.828 101.63 85.0968 101.897C85.3635 102.163 85.4925 102.529 85.4925 103.011C85.4925 103.493 85.3635 103.858 85.0968 104.125C84.8301 104.391 84.4989 104.52 84.0839 104.52Z" fill="white"/>
<path d="M115.004 118.852C114.434 118.852 113.972 118.389 113.972 117.819V106.039C113.972 104.905 113.682 104.022 113.108 103.415C112.533 102.809 111.634 102.501 110.434 102.501C109.366 102.501 108.49 102.748 107.837 103.237C107.428 103.542 107.056 103.893 106.729 104.284C106.533 104.516 106.247 104.65 105.94 104.65C105.688 104.65 105.447 104.559 105.256 104.396L104.439 103.688C104.019 103.327 103.953 102.712 104.286 102.293C104.841 101.591 105.54 100.991 106.366 100.51C107.467 99.8689 108.948 99.542 110.774 99.542C113.06 99.542 114.828 100.088 116.032 101.166C117.239 102.247 117.852 103.817 117.852 105.834V117.819C117.852 118.389 117.389 118.852 116.819 118.852H115H115.004Z" fill="white"/>
<path d="M110.778 99.6237C113.054 99.6237 114.789 100.159 115.983 101.228C117.178 102.299 117.774 103.834 117.774 105.837V117.822C117.774 118.346 117.348 118.772 116.824 118.772H115.004C114.479 118.772 114.054 118.346 114.054 117.822V106.041C114.054 104.88 113.757 103.987 113.165 103.361C112.574 102.736 111.664 102.422 110.434 102.422C109.342 102.422 108.46 102.673 107.789 103.172C107.374 103.482 107 103.834 106.669 104.232C106.482 104.456 106.213 104.57 105.942 104.57C105.718 104.57 105.495 104.493 105.312 104.336L104.495 103.628C104.118 103.303 104.043 102.733 104.35 102.342C104.901 101.645 105.587 101.058 106.409 100.579C107.501 99.942 108.957 99.6216 110.778 99.6216M110.778 99.4603C108.938 99.4603 107.441 99.7893 106.329 100.439C105.495 100.925 104.787 101.531 104.226 102.241C103.867 102.697 103.938 103.359 104.389 103.748L105.206 104.456C105.411 104.632 105.673 104.729 105.942 104.729C106.271 104.729 106.581 104.585 106.791 104.333C107.114 103.948 107.482 103.6 107.886 103.299C108.527 102.822 109.383 102.581 110.434 102.581C111.611 102.581 112.49 102.88 113.047 103.469C113.606 104.06 113.89 104.925 113.89 106.037V117.817C113.89 118.43 114.389 118.929 115.002 118.929H116.821C117.434 118.929 117.933 118.43 117.933 117.817V105.832C117.933 103.791 117.312 102.2 116.088 101.103C114.869 100.011 113.082 99.4581 110.776 99.4581L110.778 99.4603Z" fill="white"/>
<path d="M144.985 118.852C144.415 118.852 143.953 118.389 143.953 117.819V107.609C143.953 106 143.49 104.733 142.578 103.843C141.664 102.953 140.35 102.501 138.675 102.501C137 102.501 135.686 102.953 134.772 103.843C133.86 104.733 133.398 106 133.398 107.609V111.181H133.43C133.613 110.652 133.867 110.153 134.189 109.697C134.52 109.228 134.916 108.809 135.365 108.452C135.815 108.095 136.327 107.809 136.89 107.602C137.454 107.396 138.067 107.29 138.71 107.29C139.817 107.29 140.718 107.602 141.391 108.215C142.064 108.832 142.406 109.708 142.406 110.817C142.406 111.927 142.064 112.804 141.391 113.419C140.718 114.034 139.817 114.344 138.71 114.344C137.69 114.344 136.856 114.039 136.23 113.434C135.617 112.845 135.288 112.06 135.252 111.099C134.634 111.602 134.17 112.196 133.867 112.865C133.555 113.555 133.396 114.338 133.396 115.187V117.819C133.396 118.389 132.933 118.852 132.363 118.852H130.544C129.976 118.852 129.512 118.389 129.512 117.819V107.267C129.512 106.099 129.727 105.026 130.15 104.077C130.574 103.127 131.189 102.308 131.981 101.643C132.77 100.981 133.738 100.458 134.858 100.093C135.976 99.7269 137.26 99.542 138.671 99.542C140.082 99.542 141.365 99.7269 142.484 100.093C143.604 100.458 144.572 100.981 145.361 101.643C146.15 102.308 146.768 103.127 147.191 104.077C147.615 105.028 147.83 106.101 147.83 107.267V117.819C147.83 118.389 147.368 118.852 146.798 118.852H144.978H144.985ZM138.744 109.226C138.292 109.226 137.933 109.366 137.677 109.643C137.419 109.923 137.288 110.316 137.288 110.817C137.288 111.318 137.419 111.712 137.677 111.991C137.933 112.269 138.292 112.409 138.744 112.409C139.196 112.409 139.555 112.269 139.811 111.991C140.069 111.712 140.2 111.318 140.2 110.817C140.2 110.316 140.069 109.923 139.811 109.643C139.555 109.366 139.196 109.226 138.744 109.226Z" fill="white"/>
<path d="M138.675 99.6238C140.086 99.6238 141.349 99.8066 142.465 100.17C143.579 100.533 144.529 101.045 145.314 101.705C146.099 102.366 146.701 103.168 147.123 104.112C147.544 105.056 147.755 106.11 147.755 107.269V117.822C147.755 118.346 147.329 118.772 146.804 118.772H144.985C144.46 118.772 144.035 118.346 144.035 117.822V107.611C144.035 105.972 143.568 104.699 142.635 103.787C141.701 102.878 140.381 102.422 138.675 102.422C136.97 102.422 135.65 102.878 134.716 103.787C133.783 104.697 133.316 105.972 133.316 107.611V111.262H133.486C133.669 110.716 133.925 110.211 134.254 109.744C134.583 109.278 134.97 108.869 135.415 108.516C135.858 108.164 136.359 107.884 136.916 107.68C137.473 107.475 138.071 107.372 138.708 107.372C139.8 107.372 140.675 107.673 141.336 108.278C141.996 108.88 142.325 109.729 142.325 110.819C142.325 111.91 141.996 112.759 141.336 113.361C140.675 113.964 139.8 114.267 138.708 114.267C137.706 114.267 136.899 113.972 136.284 113.379C135.669 112.787 135.351 112.002 135.329 111.024L135.26 110.989C134.6 111.514 134.112 112.127 133.792 112.832C133.473 113.538 133.314 114.323 133.314 115.187V117.819C133.314 118.344 132.888 118.77 132.364 118.77H130.544C130.02 118.77 129.594 118.344 129.594 117.819V107.267C129.594 106.105 129.804 105.054 130.226 104.11C130.647 103.166 131.25 102.364 132.035 101.703C132.82 101.043 133.77 100.531 134.884 100.168C135.998 99.8044 137.263 99.6216 138.673 99.6216M138.742 112.49C139.22 112.49 139.596 112.342 139.869 112.047C140.142 111.751 140.278 111.342 140.278 110.819C140.278 110.297 140.142 109.886 139.869 109.592C139.596 109.297 139.22 109.149 138.742 109.149C138.265 109.149 137.888 109.297 137.615 109.592C137.342 109.888 137.207 110.297 137.207 110.819C137.207 111.342 137.342 111.753 137.615 112.047C137.888 112.344 138.265 112.49 138.742 112.49ZM138.673 99.4603C137.254 99.4603 135.961 99.6474 134.835 100.015C133.706 100.385 132.727 100.912 131.931 101.581C131.131 102.254 130.508 103.082 130.08 104.045C129.652 105.007 129.435 106.09 129.435 107.269V117.822C129.435 118.435 129.933 118.933 130.546 118.933H132.366C132.979 118.933 133.478 118.435 133.478 117.822V115.189C133.478 114.351 133.635 113.581 133.942 112.901C134.217 112.288 134.635 111.74 135.181 111.269C135.247 112.179 135.581 112.927 136.174 113.497C136.817 114.116 137.669 114.43 138.71 114.43C139.839 114.43 140.759 114.112 141.447 113.484C142.14 112.852 142.49 111.957 142.49 110.822C142.49 109.686 142.14 108.792 141.447 108.159C140.759 107.531 139.839 107.213 138.71 107.213C138.056 107.213 137.435 107.321 136.863 107.531C136.29 107.742 135.77 108.03 135.316 108.394C134.863 108.755 134.46 109.179 134.125 109.656C133.867 110.022 133.65 110.415 133.48 110.83V107.615C133.48 106.03 133.934 104.783 134.83 103.908C135.727 103.032 137.022 102.587 138.678 102.587C140.333 102.587 141.626 103.03 142.525 103.908C143.422 104.783 143.875 106.03 143.875 107.615V117.826C143.875 118.439 144.374 118.938 144.987 118.938H146.807C147.42 118.938 147.918 118.439 147.918 117.826V107.273C147.918 106.097 147.701 105.011 147.273 104.05C146.843 103.086 146.22 102.258 145.422 101.585C144.624 100.916 143.647 100.389 142.518 100.019C141.392 99.6517 140.099 99.4646 138.68 99.4646L138.673 99.4603ZM138.742 112.329C138.308 112.329 137.979 112.2 137.734 111.938C137.49 111.673 137.366 111.297 137.366 110.817C137.366 110.338 137.488 109.961 137.734 109.699C137.977 109.435 138.308 109.308 138.742 109.308C139.177 109.308 139.506 109.437 139.751 109.699C139.994 109.964 140.118 110.34 140.118 110.817C140.118 111.295 139.996 111.673 139.751 111.938C139.508 112.202 139.179 112.329 138.742 112.329Z" fill="white"/>
<path d="M160.683 119.26C159.486 119.26 158.496 118.921 157.746 118.25C156.991 117.579 156.61 116.639 156.61 115.46C156.61 114.282 156.993 113.342 157.746 112.669C158.496 111.998 159.486 111.658 160.683 111.658C160.828 111.658 160.952 111.665 161.053 111.675C160.98 111.351 160.944 110.959 160.944 110.51V107.007H160.75C159.552 107.007 158.563 106.673 157.813 106.013C157.058 105.351 156.675 104.43 156.675 103.273C156.675 102.116 157.058 101.194 157.813 100.533C158.563 99.8754 159.552 99.5399 160.75 99.5399C161.948 99.5399 162.935 99.8732 163.688 100.533C164.443 101.196 164.825 102.116 164.825 103.273V112.293C164.825 112.628 165.023 112.938 165.326 113.082L170.974 115.718H171.047V100.981C171.047 100.413 171.509 99.9485 172.079 99.9485H173.899C174.466 99.9485 174.931 100.411 174.931 100.981V117.817C174.931 118.387 174.468 118.85 173.899 118.85H171.516C171.363 118.85 171.208 118.815 171.071 118.749L165.78 116.213C165.662 116.157 165.537 116.127 165.408 116.127C165.023 116.127 164.688 116.379 164.572 116.753C164.382 117.372 164.045 117.895 163.569 118.301C162.83 118.938 161.858 119.258 160.683 119.258V119.26ZM160.683 113.662C160.161 113.662 159.748 113.794 159.458 114.052C159.169 114.308 159.023 114.667 159.023 115.118V115.733C159.023 116.185 159.169 116.544 159.458 116.8C159.748 117.058 160.161 117.189 160.683 117.189C161.206 117.189 161.619 117.058 161.909 116.8C162.197 116.544 162.344 116.185 162.344 115.733V115.118C162.344 114.667 162.197 114.308 161.909 114.052C161.619 113.794 161.206 113.662 160.683 113.662ZM160.649 101.613C160.174 101.613 159.791 101.766 159.514 102.065C159.234 102.366 159.092 102.772 159.092 103.273C159.092 103.774 159.234 104.181 159.514 104.482C159.791 104.781 160.174 104.933 160.649 104.933C161.124 104.933 161.507 104.781 161.785 104.482C162.064 104.179 162.206 103.774 162.206 103.273C162.206 102.772 162.064 102.368 161.785 102.065C161.507 101.764 161.124 101.613 160.649 101.613Z" fill="white"/>
<path d="M160.753 99.6237C161.936 99.6237 162.897 99.9485 163.637 100.596C164.376 101.245 164.746 102.138 164.746 103.275V112.295C164.746 112.665 164.959 113 165.295 113.157L170.957 115.802H171.127V100.985C171.127 100.46 171.553 100.034 172.077 100.034H173.897C174.422 100.034 174.847 100.46 174.847 100.985V117.822C174.847 118.346 174.422 118.772 173.897 118.772H171.514C171.372 118.772 171.232 118.74 171.103 118.68L165.813 116.144C165.68 116.08 165.542 116.052 165.407 116.052C165.002 116.052 164.622 116.316 164.493 116.733C164.305 117.342 163.981 117.845 163.516 118.245C162.787 118.871 161.843 119.183 160.684 119.183C159.525 119.183 158.54 118.854 157.8 118.194C157.06 117.533 156.69 116.624 156.69 115.462C156.69 114.301 157.06 113.391 157.8 112.731C158.54 112.071 159.501 111.742 160.684 111.742C160.888 111.742 161.047 111.753 161.161 111.776C161.071 111.434 161.026 111.015 161.026 110.514V106.929H160.753C159.57 106.929 158.609 106.604 157.869 105.957C157.129 105.308 156.759 104.415 156.759 103.278C156.759 102.14 157.129 101.247 157.869 100.598C158.609 99.9506 159.57 99.6259 160.753 99.6259M160.65 105.019C161.151 105.019 161.548 104.86 161.845 104.542C162.14 104.224 162.288 103.802 162.288 103.28C162.288 102.757 162.14 102.336 161.845 102.017C161.548 101.699 161.151 101.54 160.65 101.54C160.148 101.54 159.751 101.699 159.456 102.017C159.159 102.336 159.013 102.757 159.013 103.28C159.013 103.802 159.161 104.224 159.456 104.542C159.751 104.86 160.151 105.019 160.65 105.019ZM160.684 117.273C161.23 117.273 161.656 117.136 161.964 116.862C162.271 116.589 162.424 116.213 162.424 115.736V115.121C162.424 114.643 162.271 114.267 161.964 113.994C161.656 113.721 161.23 113.583 160.684 113.583C160.138 113.583 159.712 113.721 159.404 113.994C159.097 114.267 158.944 114.643 158.944 115.121V115.736C158.944 116.213 159.097 116.589 159.404 116.862C159.712 117.136 160.138 117.273 160.684 117.273ZM160.753 99.4646C159.536 99.4646 158.529 99.8044 157.761 100.478C156.989 101.155 156.598 102.097 156.598 103.278C156.598 104.458 156.989 105.4 157.761 106.078C158.527 106.748 159.533 107.09 160.753 107.09H160.865V110.514C160.865 110.921 160.895 111.282 160.955 111.589C160.875 111.585 160.785 111.581 160.686 111.581C159.467 111.581 158.46 111.927 157.695 112.611C156.923 113.299 156.531 114.258 156.531 115.462C156.531 116.667 156.923 117.626 157.695 118.314C158.46 118.998 159.467 119.344 160.686 119.344C161.905 119.344 162.869 119.015 163.624 118.368C164.11 117.951 164.456 117.417 164.65 116.781C164.753 116.441 165.058 116.213 165.409 116.213C165.525 116.213 165.639 116.239 165.746 116.29L171.037 118.826C171.185 118.897 171.353 118.936 171.518 118.936H173.901C174.514 118.936 175.013 118.437 175.013 117.824V100.987C175.013 100.374 174.514 99.8754 173.901 99.8754H172.082C171.469 99.8754 170.97 100.374 170.97 100.987V115.632L165.366 113.015C165.088 112.886 164.91 112.604 164.91 112.299V103.28C164.91 102.099 164.518 101.157 163.746 100.48C162.979 99.8087 161.974 99.4668 160.755 99.4668L160.753 99.4646ZM160.65 104.858C160.191 104.858 159.839 104.718 159.574 104.432C159.305 104.142 159.174 103.766 159.174 103.28C159.174 102.794 159.305 102.417 159.574 102.127C159.841 101.841 160.191 101.701 160.65 101.701C161.108 101.701 161.46 101.841 161.727 102.127C161.996 102.417 162.127 102.796 162.127 103.28C162.127 103.764 161.996 104.142 161.727 104.432C161.46 104.718 161.11 104.858 160.65 104.858ZM160.684 117.112C160.181 117.112 159.787 116.987 159.512 116.742C159.239 116.499 159.105 116.17 159.105 115.736V115.121C159.105 114.686 159.239 114.359 159.512 114.114C159.787 113.869 160.183 113.744 160.684 113.744C161.185 113.744 161.581 113.869 161.856 114.114C162.129 114.357 162.262 114.686 162.262 115.121V115.736C162.262 116.17 162.129 116.499 161.856 116.742C161.581 116.987 161.185 117.112 160.684 117.112Z" fill="white"/>
<path d="M45.8427 90.6882C45.5094 88.6538 44.361 87.3183 42.4019 86.6839C42.2578 86.6366 42.1933 86.5656 42.1546 86.4302C41.7073 84.8366 40.8298 83.5312 39.5266 82.5119C38.2728 81.5334 36.8427 81.0022 35.2578 80.9205C33.9503 80.8538 32.6922 81.1011 31.5266 81.7076C29.1417 82.9441 27.7696 84.9119 27.3847 87.5678C27.3352 87.9097 27.346 87.9119 26.9976 87.9936C24.9503 88.4667 23.5374 90.6796 23.9696 92.7377C24.4019 94.7914 26.0255 96.1097 28.1266 96.114C29.1632 96.114 30.1997 96.114 31.2363 96.114C31.2836 96.114 31.3288 96.1097 31.3761 96.1076V96.1162H33.8298V90.6495L32.9675 91.5355L32.6986 91.8129L32.4255 91.5398L31.6879 90.8065L31.4169 90.5355L31.1567 90.2753L31.4062 90.0065L31.4384 89.9699C31.4986 89.9033 31.5739 89.8194 31.6642 89.7506C32.3976 89.1721 33.1137 88.4581 33.8513 87.5699C34.075 87.3011 34.4277 86.9441 34.9008 86.9441C35.1997 86.9441 35.4857 87.0839 35.7739 87.3721C36.5976 88.1957 37.4234 89.0194 38.247 89.8452C38.2857 89.8839 38.3245 89.9248 38.3567 89.9592L38.3847 89.9893L38.6384 90.2581L38.3761 90.5205L37.7868 91.1119L37.4191 91.4796L37.1481 91.7506L36.8771 91.4796L35.9954 90.5936V96.1162H38.6277C39.4341 96.1162 40.2406 96.1183 41.047 96.114C43.1503 96.1011 44.9245 94.8388 45.6191 92.8517C45.7352 92.5183 45.7911 92.1635 45.875 91.8194V90.8323C45.8621 90.785 45.847 90.7377 45.8384 90.6904L45.8427 90.6882Z" fill="white"/>
<path d="M177.468 43.6087C177.414 43.6087 177.358 43.6044 177.302 43.5936C176.776 43.5033 176.423 43.0022 176.513 42.4753L176.988 39.7269C177.079 39.2001 177.578 38.8474 178.107 38.9377C178.634 39.028 178.986 39.5291 178.896 40.056L178.421 42.8044C178.339 43.2753 177.93 43.6065 177.468 43.6065V43.6087Z" fill="#EB5A5A"/>
<path d="M182.372 49.4732C181.903 49.4732 181.49 49.1313 181.417 48.6538C181.335 48.1248 181.698 47.6323 182.225 47.5506L184.918 47.1356C185.445 47.0538 185.939 47.4151 186.021 47.9442C186.103 48.4732 185.739 48.9657 185.212 49.0474L182.52 49.4624C182.471 49.471 182.421 49.4732 182.372 49.4732Z" fill="#EB5A5A"/>
<path d="M180.389 46.2968C180.12 46.2968 179.851 46.185 179.662 45.9678C179.309 45.5657 179.35 44.9549 179.752 44.6022L181.886 42.7312C182.288 42.3786 182.898 42.4194 183.251 42.8216C183.604 43.2237 183.563 43.8345 183.161 44.1872L181.028 46.0581C180.845 46.2194 180.617 46.299 180.391 46.299L180.389 46.2968Z" fill="#EB5A5A"/>
<path d="M29.1392 15.9463C36.4919 15.9463 42.4726 21.9269 42.4726 29.2796C42.4726 32.3205 41.4769 35.185 39.5909 37.5592C37.7564 39.8689 35.1844 41.5269 32.3457 42.2259L29.2876 42.9807L26.2102 42.2925C23.307 41.6431 20.6661 40.0001 18.7758 37.6689C16.8339 35.2732 15.8081 32.3742 15.8081 29.2818C15.8081 21.9291 21.7887 15.9484 29.1414 15.9484M29.1414 9.49683C18.2145 9.49683 9.35645 18.3549 9.35645 29.2818C9.35645 38.7183 15.9629 46.6087 24.8016 48.5871L25.0554 78.1119C25.0554 78.2646 25.0898 78.4086 25.1414 78.5441C25.1564 78.8624 25.1737 79.1076 25.1952 79.2388C25.221 79.4022 25.479 81.0194 25.9715 82.3463C25.993 82.4022 26.0167 82.4517 26.0382 82.5054C28.0876 80.4861 29.5199 79.3398 31.3844 78.714C31.9199 78.5334 32.9823 78.185 34.3134 78.0474C34.0618 77.056 33.9435 76.0904 33.8919 75.2796H31.3823V71.0839H33.8898V66.6108H31.464V61.271H33.8898V56.3119H31.464V50.9721H33.8898V48.4947C42.522 46.3678 48.9263 38.5742 48.9263 29.2839C48.9263 18.357 40.0683 9.49898 29.1414 9.49898V9.49683Z" fill="#FFCE4F"/>
</g>
<defs>
<clipPath id="clip0_3762_56259">
<rect width="200" height="132" fill="white"/>
</clipPath>
</defs>
</svg>
