<svg xmlns="http://www.w3.org/2000/svg" fill="none" viewBox="0 0 200 140"><clipPath id="a"><path d="M0 0h200v140H0z"/></clipPath><g clip-path="url(#a)"><path fill="#3c55ab" d="M182.512 23.753h-63.154l-19.88-20.31-21.421 21.049H46.302l.008.031H16.44l-3.53 7.554-6.962 15.782.063.032-2.565 5.425h6.842v82.775h178.815V52.484h7.304z"/><path fill="#fff" d="M99.553 3.52l19.879 20.309h63.154l13.895 28.731h-7.304v83.606H10.361V53.391H3.52l2.565-5.425-.064-.032 6.964-15.782 3.529-7.554h29.87c-.004-.01-.006-.02-.009-.031H78.13zm0-3.52a3.52 3.52 0 00-2.466 1.009L76.69 21.049H46.375c-.16 0-.317.01-.473.03H16.515a3.52 3.52 0 00-3.189 2.03l-3.53 7.554-.03.069-6.964 15.783c-.085.19-.15.386-.198.583l-2.265 4.79a3.52 3.52 0 003.182 5.024h3.322v79.255a3.52 3.52 0 003.52 3.52h178.815a3.52 3.52 0 003.52-3.52V56.08h3.784a3.517 3.517 0 003.167-5.052l-13.894-28.732a3.52 3.52 0 00-3.169-1.987h-61.674L102.068 1.057A3.52 3.52 0 0099.587 0h-.034z"/><path fill="#eb5a5a" d="M171.774 82.34a.87.87 0 01-.86-1.02l.429-2.479a.872.872 0 011.718.298l-.43 2.478a.873.873 0 01-.859.724zM176.193 87.626a.873.873 0 01-.133-1.734l2.426-.374a.871.871 0 11.267 1.724l-2.427.374a.861.861 0 01-.133.01zM174.405 84.764a.87.87 0 01-.575-1.528l1.923-1.686a.872.872 0 011.15 1.312l-1.923 1.686a.868.868 0 01-.575.216z"/><g fill="#fff"><path d="M55.115 51.656c.819-.513 1.912-.773 3.251-.773 1.188 0 2.13.194 2.798.577a6.23 6.23 0 011.745 1.469l.257.315 1.767-1.924-.152-.229c-.48-.73-1.3-1.363-2.44-1.882-1.124-.511-2.492-.772-4.063-.772-1.092 0-2.092.132-2.972.392-.891.264-1.665.656-2.297 1.167a5.282 5.282 0 00-1.491 1.925c-.349.758-.526 1.638-.526 2.613v1.69l7.754.576c.899.065 1.274.264 1.43.42.217.217.332.653.332 1.26v.835a4.043 4.043 0 00-.46-.026c-1.012 0-1.852.289-2.496.858-.656.58-.99 1.366-.99 2.338 0 .971.334 1.759.99 2.338.644.57 1.484.857 2.495.857 1.012 0 1.852-.29 2.496-.857.657-.58.989-1.367.989-2.338v-3.946c0-.73-.09-1.36-.266-1.87-.185-.53-.466-.966-.84-1.295a3.556 3.556 0 00-1.367-.726 8.157 8.157 0 00-1.802-.29l-5.3-.355v-.018c0-1.08.378-1.841 1.155-2.328zm3.983 9.883c.213-.22.495-.327.864-.327s.65.107.863.327c.217.224.322.534.322.945 0 .41-.106.72-.322.944-.213.22-.496.327-.863.327-.368 0-.651-.106-.864-.327-.217-.224-.321-.533-.321-.944s.105-.722.321-.945zM83.433 49.282c-.625-.56-1.456-.843-2.469-.843-1.012 0-1.844.284-2.47.844-.635.57-.958 1.352-.958 2.322s.323 1.752.959 2.322c.624.561 1.455.845 2.47.845h.406l.107 8.116h-2.001l-4.468-9.632H71.71l5.576 12.078h7.106V51.605c0-.97-.323-1.751-.959-2.321zm-1.486 2.322c0 .378-.094.667-.288.882-.183.205-.439.304-.783.304-.343 0-.599-.1-.782-.304-.194-.214-.287-.503-.287-.882s.093-.666.287-.882c.183-.204.439-.304.782-.304.344 0 .6.1.783.304.194.216.287.504.287.882zM100.952 60.191c-.625-.56-1.456-.843-2.468-.843-.135 0-.27.004-.403.014V48.786h-3.025v13.727c0 .97.322 1.752.958 2.322.625.56 1.456.845 2.469.845s1.843-.284 2.468-.845c.636-.57.959-1.352.959-2.322s-.323-1.752-.959-2.322zm-1.311 2.322c0 .378-.094.667-.288.882-.183.205-.439.304-.782.304s-.6-.1-.783-.304c-.193-.214-.287-.503-.287-.882s.094-.666.287-.882c.183-.204.439-.304.783-.304s.6.1.782.304c.194.216.288.504.288.882zM112.143 51.657c.819-.513 1.912-.773 3.251-.773 1.189 0 2.131.195 2.8.577.684.392 1.27.887 1.744 1.469l.257.315 1.767-1.924-.151-.228c-.48-.73-1.301-1.364-2.441-1.882-1.124-.512-2.492-.772-4.063-.772-1.092 0-2.092.131-2.971.392-.892.264-1.664.655-2.298 1.166a5.291 5.291 0 00-1.491 1.925c-.348.758-.526 1.638-.526 2.613v1.69l7.754.577c.899.064 1.275.264 1.431.42.217.217.332.652.332 1.26v.834a4.056 4.056 0 00-.46-.026c-1.013 0-1.853.289-2.497.858-.656.58-.989 1.367-.989 2.338 0 .971.333 1.759.989 2.338.644.57 1.484.857 2.496.857 1.011 0 1.852-.289 2.495-.857.657-.58.989-1.367.989-2.338V58.54c0-.73-.089-1.36-.266-1.87-.184-.53-.466-.967-.84-1.295a3.553 3.553 0 00-1.367-.726 8.164 8.164 0 00-1.802-.289l-5.3-.355v-.02c0-1.079.378-1.84 1.155-2.327zm4.847 9.556c.368 0 .651.107.863.327.217.224.322.534.322.945 0 .41-.106.72-.322.944-.213.22-.496.328-.864.328-.369 0-.652-.107-.864-.328-.216-.224-.321-.532-.321-.944 0-.412.105-.722.321-.945.212-.22.495-.327.864-.327zM121.648 38.748h-2.967v2.975a4.771 4.771 0 00-1.332-.978c-.829-.42-1.855-.633-3.046-.633-.959 0-1.839.122-2.615.364a6.381 6.381 0 00-2.043 1.045 4.697 4.697 0 00-1.348 1.678 5.023 5.023 0 00-.469 2.168v1.02h13.819v-7.638zm-10.936 5.425c.218-.346.594-.652 1.122-.914.788-.39 1.765-.588 2.905-.588 1.139 0 2.144.197 2.934.588.528.262.904.568 1.121.914zM141.063 60.367c0 .915-.255 1.605-.778 2.112-.52.502-1.321.757-2.381.757h-1.306c-1.061 0-1.844-.231-2.325-.687-.482-.457-.717-1.057-.717-1.833 0-.663.214-1.2.651-1.637.439-.438.965-.651 1.609-.651h1.658v-2.445h-2.238c-.448 0-.811-.039-1.077-.118-.233-.068-.407-.164-.517-.287a1.072 1.072 0 01-.238-.507 3.446 3.446 0 01-.065-.474c.337.116.699.174 1.084.174 1.014 0 1.844-.284 2.469-.845.636-.57.958-1.352.958-2.322s-.317-1.75-.942-2.32c-.616-.561-1.413-.845-2.37-.845-1.197 0-2.17.382-2.894 1.138-.72.75-1.084 1.824-1.084 3.189v1.48c0 .953.213 1.777.633 2.449.318.51.778.915 1.372 1.212a4.264 4.264 0 00-1.262.948c-.512.568-.773 1.31-.773 2.209 0 1.472.609 2.63 1.809 3.44 1.157.781 2.804 1.178 4.898 1.178 2.093 0 3.775-.458 4.983-1.361 1.239-.927 1.868-2.335 1.868-4.184V48.79h-3.024v11.58zm-7.623-8.762c0-.377.094-.666.287-.882.183-.204.439-.304.783-.304s.599.1.782.304c.194.216.288.504.288.882s-.094.667-.288.883c-.183.204-.438.304-.782.304s-.6-.1-.783-.304c-.193-.215-.287-.504-.287-.883zM168.753 60.25a3.16 3.16 0 00-1.623-.934c.047-.153.077-.305.089-.459.02-.263.029-.506.029-.721v-9.351h-3.024v10.924l-6.143 2.91V51.604c0-.97-.323-1.752-.959-2.322-.625-.56-1.456-.843-2.468-.843-1.013 0-1.845.283-2.469.844-.636.57-.958 1.352-.958 2.322s.322 1.753.958 2.322c.624.56 1.455.845 2.469.845h.401v10.561h2.636l5.026-2.365c.095.738.404 1.354.921 1.836.626.582 1.458.878 2.475.878s1.848-.297 2.474-.883c.632-.59.953-1.384.953-2.355 0-.885-.265-1.622-.79-2.192zm-1.482 1.973v.465c0 .31-.093.549-.284.733-.191.185-.486.28-.873.28s-.678-.092-.873-.28c-.191-.184-.284-.424-.284-.733v-.465c0-.308.093-.549.284-.732.195-.188.481-.28.873-.28s.68.095.873.28c.191.184.284.424.284.733zm-11.635-10.619c0 .378-.094.667-.288.882-.183.205-.439.304-.782.304-.344 0-.6-.1-.783-.304-.194-.214-.287-.503-.287-.882s.093-.666.287-.882c.183-.204.439-.304.783-.304.343 0 .599.1.782.304.194.216.288.504.288.882zM41.242 35.269c-.898-.448-2.054-.676-3.436-.676-.871 0-1.684.145-2.419.43a5.803 5.803 0 00-1.93 1.221 5.415 5.415 0 00-1.273 1.923c-.295.744-.446 1.584-.446 2.494v.704l4.062 1.596v11.897l.426-.092c.743-.16 1.506-.263 2.268-.308l.33-.02v-11.66c0-.53-.13-.95-.391-1.247-.238-.273-.582-.5-1.018-.675l-2.812-1.017c.038-.439.138-.82.297-1.14.19-.378.432-.692.722-.93.29-.24.64-.422 1.04-.544.41-.125.844-.188 1.29-.188.874 0 1.606.187 2.174.553.589.38 1.06.81 1.4 1.275l.238.325 1.981-1.902-.217-.252a7.305 7.305 0 00-2.285-1.768z"/></g><path fill="#ffce4f" d="M61.012 119.327l-5.412-.933-.063.078c-.694.87-1.895 2.039-3.675 2.674-2.275.811-5.027.549-7.013-.666-2.238-1.371-3.457-3.908-4.133-6.708a9.778 9.778 0 012.044-.396 13.764 13.764 0 01-.379-2.495H40.2a42.55 42.55 0 01-.079-.671v-3.111h2.26v-4.032h-2.186v-4.812h2.186v-4.47h-2.186v-4.812h2.186v-1.94c6.515-1.813 11.296-7.79 11.296-14.883 0-8.533-6.917-15.45-15.45-15.45-8.531 0-15.449 6.918-15.449 15.45 0 7.136 4.839 13.14 11.414 14.915l.16 18.665c.015 1.566.027 3.133.042 4.7l.025 3.003a11.546 11.546 0 00.418 2.411 15.054 15.054 0 001.177 3.717c.328.811.793 1.679 1.455 2.531 1.7 2.191 3.865 3.185 5.097 3.6 1.821.71 3.92 1.068 6.288 1.068 1.697 0 3.327-.298 4.84-.842a.268.268 0 01.026-.007l.02-.007c.016-.006.03-.015.047-.02a14.411 14.411 0 007.452-6.263l.132-.234-.357-.061zM26.674 72.149c0-6.37 5.182-11.55 11.55-11.55s11.55 5.181 11.55 11.55-5.181 11.55-11.55 11.55-11.55-5.182-11.55-11.55z"/><path fill="#fff" d="M175.571 88.878c-.713-.938-3.031-3.651-6.187-7.219-.434-.638-1.159-.902-1.719-.687-.426.163-.627.555-.688.687-1.49 2.75-2.98 5.5-4.468 8.25-.274-.19-.621-.424-1.032-.687-.542-.347-.909-.56-1.409-.58h-.056c-1.846-.475-3.962-.712-6.352-.712s-4.828.256-7.135.768c-1.668.369-3.147.829-4.442 1.378a.13.13 0 00-.077.119v3.222a.127.127 0 01-.121.127l-.901.039a.127.127 0 00-.108.184l.904 1.775c.285.512.591.768.918.768.081 0 .365-.085.851-.254.005-.001.008-.003.013-.006 1.304-.638 2.752-1.148 4.342-1.53a20.578 20.578 0 014.838-.577c3.185 0 5.409.566 6.675 1.694 1.265 1.13 1.898 2.91 1.898 5.341v1.856c0 .07-.056.127-.126.127h-9.671c-4.37 0-7.769.81-10.197 2.429-2.43 1.621-3.644 4.35-3.644 8.186 0 3.113.979 5.532 2.939 7.259 1.959 1.727 4.49 2.589 7.593 2.589s5.226-.383 6.737-1.151c.489-.212.734-.511.734-.895 0-.17-.021-.32-.061-.448l-.857-3.197c-.122-.554-.348-.832-.674-.832l-.482.126-.014.004c-1.101.469-2.344.701-3.729.701-1.633 0-2.847-.32-3.644-.96-.795-.639-1.194-1.748-1.194-3.326 0-1.748.48-2.974 1.439-3.677s2.542-1.055 4.746-1.055h9.977c.071 0 .127.057.127.127v11.321c0 .767.184 1.343.552 1.727.367.383.958.575 1.776.575h3.184c.858 0 1.46-.192 1.807-.575.346-.384.521-.96.521-1.727l.23-18.22c.128-1.619.123-4.838-1.859-7.774-.392-.58-.814-1.08-1.235-1.508l8.595-2.063c.256-.057.888-.233 1.031-.688.126-.397-.19-.829-.343-1.03zM57.096 120.41c-2.729-2.238-4.092-5.381-4.092-9.433V91.6c0-.81.18-1.407.543-1.79.362-.384.97-.575 1.823-.575h3.39c.852 0 1.471.191 1.855.575.383.383.576.98.576 1.79v19.698c0 4.307 2.664 6.458 7.994 6.458s7.995-2.152 7.995-6.458v-30.89c0-.81.192-1.406.576-1.79.384-.383 1-.575 1.855-.575h3.325c1.662 0 2.494.79 2.494 2.367v30.569c0 4.007-1.364 7.141-4.093 9.401-2.73 2.261-6.78 3.389-12.152 3.389s-9.359-1.119-12.087-3.357z"/><path fill="#ffce4f" d="M59.197 112.698c-.147.49-.732.483-.883.883-.11.287.036.709.294.883.569.386 1.694-.418 1.766-.294.036.065-.268.263-.59.589-.236.24-1.115 1.131-.883 1.766.124.336.54.55.884.589.821.091 1.577-.782 1.766-.589l.027.051c-.498.628-.526 1.42-.145 1.868.333.392.935.468 1.375.344.825-.234 1.145-1.189 1.392-1.087.184.077-.028.6.327 1.087.061.083.248.339.555.385.41.061.738-.296.82-.385.235-.256.315-.55.358-.793.07-.396.131-1.171-.295-2.355a7.925 7.925 0 00-1.094-2.01 9.122 9.122 0 00-1.719-1.718c-.629-.486-1-.772-1.601-.981-.206-.072-1.37-.458-2.65 0-.378.135-1.194.427-1.25.981-.026.254.106.576.343.687.432.203 1.03-.375 1.202-.196.069.072.023.217 0 .295z"/><path fill="#fa7cc7" d="M107.033 109.797c-.597-1.151-1.609-2.163-3.037-3.037-1.429-.873-3.465-1.759-6.107-2.654a22.831 22.831 0 00-1.6-.512c-2.173-.725-3.783-1.31-4.827-1.758-1.045-.447-1.887-.98-2.526-1.6-.64-.617-.96-1.396-.96-2.333 0-1.407.565-2.398 1.695-2.973 1.128-.575 2.845-.864 5.146-.864 1.705 0 3.357.172 4.956.512 1.599.341 2.973.81 4.124 1.407.298.17.576.255.832.255.34 0 .617-.255.832-.767l1.471-2.75c.17-.298.256-.554.256-.767 0-.426-.363-.832-1.086-1.215a22.914 22.914 0 00-5.308-1.886c-1.834-.405-3.943-.608-6.331-.608-4.52 0-8.069.821-10.647 2.461-2.58 1.642-3.868 4.04-3.868 7.195 0 2.558.884 4.614 2.653 6.17 1.769 1.557 4.38 2.973 7.833 4.252 1.065.341 1.94.662 2.622.96.506.179.972.348 1.402.505l1.334-3.958a.213.213 0 01.386-.04l2.513 4.258a.213.213 0 00.18.104l4.77.102c.18.004.275.214.159.351l-3.024 3.588a.211.211 0 00-.042.196l1.341 4.693a.213.213 0 01-.285.256l-4.367-1.746a.214.214 0 00-.2.021l-4.126 2.785a.213.213 0 01-.332-.195l.186-2.229c-.094 0-.183.005-.278.005-1.706 0-3.507-.224-5.403-.671-1.897-.447-3.507-.992-4.828-1.631-.512-.17-.81-.256-.895-.256-.256 0-.512.214-.768.639l-1.662 3.262c-.128.256-.193.469-.193.639 0 .384.384.768 1.151 1.151 1.747.853 3.795 1.503 6.139 1.95a38.84 38.84 0 007.29.671c4.517 0 8.034-.863 10.55-2.589 2.514-1.726 3.773-4.038 3.773-6.937 0-1.791-.299-3.262-.895-4.413z"/><path fill="#6bc9ff" d="M139.911 97.533c.617-1.065 1.566-2.344 2.845-3.836 1.406-1.663 2.461-3.112 3.165-4.348.703-1.236 1.055-2.664 1.055-4.285 0-3.154-1.055-5.552-3.166-7.193-2.109-1.64-5.127-2.462-9.048-2.462-2.429 0-4.582.46-6.458 1.375-1.876.918-3.325 2.197-4.348 3.837-1.024 1.641-1.535 3.528-1.535 5.659 0 .341.054.586.159.735.107.15.31.224.608.224h4.053c-.08-1.46.274-2.972 1.166-4.273 1.883-2.749 5.092-2.956 5.714-2.996.654-.042 3.923-.171 6.134 2.329 1.502 1.697 1.676 3.657 1.717 4.212.156 2.095-.645 3.626-.808 3.927a6.855 6.855 0 01-1.286 1.68l.919 1.566a728.856 728.856 0 01-3.523-.345h-.002c-.005 0-.017-.003-.032 0a.055.055 0 00-.023.008 6.467 6.467 0 01-1.785.582c-.606.103-1.148.101-1.607.061-.757.946-1.385 1.83-1.877 2.652-.768 1.279-1.151 2.685-1.151 4.22v18.096c0 1.492.329 2.601.991 3.325.661.725 1.78 1.088 3.357 1.088h6.394c.937 0 1.577-.118 1.918-.352.34-.234.512-.714.512-1.439v-2.813c0-.64-.128-1.088-.384-1.344-.256-.255-.725-.383-1.407-.383h-1.727c-.597 0-.991-.118-1.182-.352s-.288-.671-.288-1.311v-14.259c0-1.321.309-2.516.927-3.581z"/><path fill="#fff" d="M109.09 121.561c-2.132-1.471-3.689-3.782-4.668-6.938l-3.966-12.406c-.128-.468-.192-.832-.192-1.088 0-.596.32-.979.959-1.15l4.35-1.472c.34-.128.596-.191.767-.191.298 0 .533.117.704.352.17.234.34.65.511 1.247l4.285 13.238c.554 1.662 1.279 2.857 2.174 3.582s2.323 1.087 4.285 1.087c2.685 0 4.614-.991 5.787-2.974s1.759-5.041 1.759-9.177-.522-6.832-1.566-8.602c-1.045-1.768-2.782-2.654-5.213-2.654-1.194 0-2.494.278-3.901.832-.256.085-.448.128-.576.128-.427 0-.725-.277-.895-.832l-1.088-3.518-.128-.511c0-.298.234-.554.703-.768 1.876-.98 4.243-1.47 7.099-1.47 4.519 0 7.93 1.565 10.232 4.7 2.302 3.133 3.454 7.386 3.454 12.758 0 5.884-1.375 10.36-4.125 13.43-2.75 3.071-6.747 4.605-11.99 4.605-3.71 0-6.63-.735-8.762-2.206z"/><path fill="#fa7cc7" d="M108.19 107.443c-.111.079-.817.589-.688 1.031.063.217.298.324.344.344.426.184.909-.129.933-.078.023.051-.501.262-.933.765-.173.202-.338.4-.344.688-.005.23.09.534.344.687.378.23.833-.04.907-.084.227-.135.37-.336.369-.337-.002-.002-1.114.874-.932 1.453.066.214.291.319.343.343.436.204.939-.142.999-.184.162-.115.267-.247.278-.237.026.022-.654.557-.589 1.109.041.352.385.696.687.687.404-.011.661-.646.762-.593.08.042-.139.421-.074.937.016.131.075.6.344.688.241.079.525-.19.687-.344.193-.182.316-.381.418-.594.152-.317.312-.768.344-1.375.032-.619-.068-1.077-.173-1.547a8.138 8.138 0 00-.516-1.548c-.112-.251-.203-.455-.344-.687-.301-.497-.901-1.476-1.891-1.548-.629-.046-1.105.298-1.277.421z"/><path fill="#6bc9ff" d="M145.015 114.494c-.7.148-.805.259-.858.358a.584.584 0 00.043.586c.158.221.452.24.608.25.337.022.554-.104.587-.043.038.072-.241.291-.271.314-.244.189-.349.161-.565.337-.113.093-.241.196-.299.378-.044.139-.067.389.071.523.192.189.625.08.88-.065.208-.118.285-.251.564-.336.037-.012.263-.079.293-.021.024.043-.085.134-.271.314-.325.313-.489.473-.543.63-.011.032-.106.319.043.587.033.058.136.242.315.271.26.041.516-.276.564-.337.117-.146.133-.243.271-.315.022-.011.201-.1.293-.021.094.081.029.276.022.294-.042.116-.111.153-.271.314-.157.156-.235.234-.272.315-.078.171-.109.458.044.586.175.146.493.007.643-.094.12-.081.112-.123.294-.294.122-.115.39-.366.486-.308.109.067-.107.47.043.587.094.074.271-.012.294-.021.11-.053.179-.142.271-.315a2.79 2.79 0 00.25-.607 3.53 3.53 0 00.126-1.1c-.015-.302-.062-1.047-.587-1.763a3.045 3.045 0 00-.993-.862c-.169-.153-.352-.194-.608-.25-.457-.101-.803-.032-1.465.108z"/><path fill="#fa7cc7" d="M107.991 79.506c-.224-1.369-.998-2.269-2.316-2.696-.098-.032-.141-.079-.166-.17a4.963 4.963 0 00-1.769-2.637 4.989 4.989 0 00-2.873-1.072 4.84 4.84 0 00-2.513.53c-1.605.832-2.53 2.156-2.79 3.944-.032.231-.025.232-.26.286-1.378.32-2.329 1.81-2.038 3.194.291 1.382 1.385 2.27 2.8 2.272.698.002 1.396 0 2.094 0 .032 0 .063-.002.095-.004l.002.006h1.65v-3.68l-.58.595-.181.187-.185-.183-.496-.494-.183-.182-.175-.175.168-.182.022-.023c.041-.045.092-.101.152-.148a9.85 9.85 0 001.472-1.468c.15-.18.387-.422.706-.422.201 0 .393.094.588.288l1.665 1.665c.027.027.052.054.073.077l.019.02.171.183-.176.176-.397.397-.247.249-.182.182-.182-.183-.594-.596v3.718h1.772l1.628-.001c1.417-.009 2.611-.858 3.078-2.197.078-.224.116-.463.172-.695v-.664c-.008-.032-.018-.064-.024-.096z"/></g></svg>