<svg xmlns="http://www.w3.org/2000/svg" fill="none" viewBox="0 0 24 24"><path fill="#3C55AB" d="M4 22.286v-8c0-.629.224-1.167.672-1.615A2.2 2.2 0 016.286 12h1.143V9.714H6.286a2.198 2.198 0 01-1.614-.672A2.198 2.198 0 014 7.43V4c0-.629.224-1.167.672-1.615a2.2 2.2 0 011.614-.67h11.428c.629 0 1.167.223 1.615.67.447.448.671.986.671 1.615v3.429a2.2 2.2 0 01-.67 1.613 2.202 2.202 0 01-1.616.672h-1.143V12h1.143c.629 0 1.167.224 1.615.67.447.449.671.987.671 1.616v8h-2.286v-3.429H6.286v3.429H4zM9.714 12h4.572V9.714H9.714V12z"/></svg>