<svg xmlns="http://www.w3.org/2000/svg" fill="none" viewBox="0 0 20 20"><path stroke="#FFCE4F" stroke-linecap="round" stroke-linejoin="round" stroke-width="1.8" d="M17.5 9.583a6.983 6.983 0 01-.75 3.167 7.084 7.084 0 01-6.333 3.917 6.983 6.983 0 01-3.167-.75L2.5 17.5l1.583-4.75a6.983 6.983 0 01-.75-3.167A7.083 7.083 0 017.25 3.25a6.983 6.983 0 013.167-.75h.416A7.067 7.067 0 0117.5 9.167v.416z"/><path fill="#FFCE4F" d="M8.75 9.375a.937.937 0 11-1.875 0 .937.937 0 011.875 0zM11.563 9.375a.937.937 0 11-1.875 0 .937.937 0 011.874 0zM14.375 9.375a.937.937 0 11-1.875 0 .937.937 0 011.875 0z"/></svg>