<svg xmlns="http://www.w3.org/2000/svg" fill="none" viewBox="0 0 20 20"><path fill="#FFCE4F" d="M10 1.667A8.336 8.336 0 001.667 10c0 4.6 3.733 8.333 8.333 8.333S18.334 14.6 18.334 10 14.6 1.667 10 1.667zm0 15A6.675 6.675 0 013.334 10 6.676 6.676 0 0110 3.333 6.676 6.676 0 0116.667 10 6.675 6.675 0 0110 16.667zm-.833-2.5a.833.833 0 111.667 0 .833.833 0 01-1.667 0zm1.342-9.134a3.335 3.335 0 00-3.692 2.325.756.756 0 00.725.975h.167c.341 0 .616-.241.733-.558a1.668 1.668 0 011.917-1.067c.791.167 1.375.942 1.308 1.75-.083 1.117-1.35 1.359-2.042 2.4 0 .009-.008.009-.008.017-.008.017-.017.025-.025.042-.075.125-.15.266-.208.416-.009.025-.025.042-.034.067-.008.017-.008.033-.016.058-.025.069-.047.141-.067.217-.116.445.273.825.733.825.46 0 .815-.393 1.02-.804.015-.03.03-.06.047-.088.017-.025.025-.05.042-.075.066-.116.15-.225.233-.325.008-.008.017-.025.025-.033.083-.1.175-.192.275-.283.8-.759 1.883-1.375 1.658-2.967-.2-1.45-1.341-2.675-2.791-2.892z"/></svg>