<svg xmlns="http://www.w3.org/2000/svg" fill="none" viewBox="0 0 40 41"><path fill="#6BC9FF" d="M34.127 5.978C30.477 2.327 25.555.104 20 .104c-5.556 0-10.476 2.223-14.127 5.874C2.223 9.628 0 14.548 0 20.105c0 10.317 7.936 18.888 18.095 19.84.635 0 1.27.16 1.905.16 1.429 0 2.698-.16 3.968-.477 3.968-.793 7.46-2.698 10.159-5.397C37.777 30.581 40 25.66 40 20.104c0-5.555-2.222-10.476-5.873-14.126zm0 6.031c-.318.476-.794.953-1.111 1.429-.476.476-.953.793-1.429 1.27l-.158.158v2.223c0 .476-.16.793-.16 1.27-.158.793-.317 1.587-.634 2.222-.159.476-.318.952-.635 1.428s-.476 1.111-.794 1.587c-.317.636-.793 1.112-1.11 1.747-.318.476-.636.793-1.112 1.27-.476.476-.952.952-1.429 1.27-.317.158-.476.476-.793.634-.635.476-1.27.794-1.905 1.111-.476.159-.952.477-1.428.635-.635.318-1.429.476-2.223.635-.476.159-.952.159-1.428.159h-2.381c-.318 0-.635 0-.953-.159-.476 0-1.11-.159-1.587-.317-.635-.159-1.111-.318-1.746-.476-.635-.16-1.111-.477-1.587-.635-.476-.318-.953-.477-1.429-.794h2.064c.317 0 .635 0 .793-.159.953-.159 1.746-.317 2.54-.793.635-.318 1.27-.635 1.905-1.112.159-.158.317-.158.476-.317-.635 0-1.111-.159-1.587-.318-.476-.158-.953-.476-1.429-.793-.476-.318-.793-.794-1.111-1.111-.317-.477-.794-1.27-.794-1.429.477 0 .794.159 1.27.159s1.111-.159 1.27-.159c-.476-.159-.794-.317-1.27-.476l-1.428-.952c-.476-.477-.794-.953-.953-1.429-.158-.476-.317-.794-.476-1.27-.159-.317-.159-.793-.159-1.11v-.16c.477.318 1.111.477 1.746.635h.635a2.19 2.19 0 00-.635-.476c-.476-.476-.952-.952-1.27-1.587-.317-.635-.476-1.429-.634-2.223v-.634c0-.477.158-.794.317-1.27l.476-.953c.318.318.477.635.794.794l.952.952c.476.477.953.794 1.429 1.112a10.12 10.12 0 002.222 1.27c.476.158.953.476 1.429.634.793.318 1.587.476 2.38.635.477 0 .794.159 1.27.159h.635c.16 0 .16 0 .16-.159 0-.317-.16-.635-.16-.952v-.794c.16-.635.318-1.27.635-1.905.318-.476.635-.952 1.111-1.428a3.457 3.457 0 011.27-.794c.635-.317 1.429-.476 2.223-.476h1.111c.793.159 1.428.476 2.063.794.318.158.635.476.794.635h.158c.16 0 .318-.16.635-.16.477-.158.794-.317 1.27-.475.476-.16.953-.476 1.429-.794-.159.317-.318.794-.476 1.111-.16.318-.477.635-.635.953-.16.158-.477.476-.635.634-.159.16-.318.16-.476.318h.317c.635-.159 1.111-.159 1.746-.476 0-.159.318-.159.635-.318z"/></svg>