<svg xmlns="http://www.w3.org/2000/svg" fill="none" viewBox="0 0 100 100"><path fill="#FFCE4F" d="M98.758 23.637a2 2 0 00-1.414-2.449l-21.895-5.867A2 2 0 0073 16.736L68.86 32.19a2 2 0 01-2.45 1.415l-21.895-5.867a2 2 0 00-2.45 1.414l-4.14 15.455a2 2 0 01-2.45 1.414L13.58 40.155a2 2 0 00-2.45 1.414L1.813 76.343a2 2 0 001.414 2.45l73.411 19.67a2 2 0 002.45-1.415l19.67-73.41z"/><path stroke="#3C55AB" stroke-linecap="round" stroke-linejoin="round" stroke-width="3" d="M55.546 80.359L71 84.5M75.142 69L71 84.455"/><ellipse cx="43.454" cy="56.404" fill="#3C55AB" rx="4" ry="7"/><ellipse cx="67.454" cy="56.404" fill="#3C55AB" rx="4" ry="7"/><path stroke="#FFCE4F" stroke-linecap="round" stroke-width="3" d="M71.178 3.377c-.828.146-1.7.139-2.485.439-2.395.917-4.258 2.473-5.76 4.554-.966 1.337-2.264 3.26-.932 4.897.546.671 1.857.796 2.602.442 1.066-.505-2.524-3.944-2.986-4.257-2.228-1.508-5.002-1.237-7.206.209-1.295.849-2.376 2.082-2.927 3.547-.939 2.497-.042 4.964.296 7.46M11.569 9.27c-.194 3.798-.339 7.465-1.572 11.099-.23.68-1 2.971-1.864 3.503-.233.143-.124.042.052.015 2.362-.354 5.214-1.212 7.429.24 1.42.933 2.71 3.043 3.233 4.663.154.476.268.964.572 1.376.428.582.27-.898.27-1.083 0-4.04-.501-8.627 1.023-12.459.402-1.011.944-1.681 1.834-2.286.133-.09.48-.195.188-.195-2.876 0-5.612.483-8.203-1.166-1.148-.73-2.012-1.908-2.947-2.88-.316-.327-.55-.67-.692-1.097"/></svg>