<svg xmlns="http://www.w3.org/2000/svg" fill="none" viewBox="0 0 100 100"><path fill="#FC5858" d="M42.875 16.084L7.584 75a8.334 8.334 0 007.125 12.5h70.583A8.334 8.334 0 0092.417 75L57.125 16.084a8.334 8.334 0 00-14.25 0z"/><ellipse cx="40" cy="46.896" fill="#3C55AB" rx="4" ry="7"/><ellipse cx="60" cy="46.896" fill="#3C55AB" rx="4" ry="7"/><ellipse cx="50" cy="68.896" stroke="#3C55AB" stroke-width="3" rx="6" ry="8"/><path stroke="#FC5858" stroke-linecap="round" stroke-width="3" d="M12.175 12.832a77.83 77.83 0 001.006 10.721c.252 1.546.776 3.04.97 4.593M16 34.396c-.5.5.064.622.163.866.084.205.717.716.823.421.266-.738.457-1.61-.53-1.61M19.207 10.5v12.166M21.354 28.396c0 .619.87 2.258 1.094 1.248.309-1.389.526-1.61-1.093-1.61M74.3 24.894c2.084-3.182 3.057-6.84 4.886-10.132M79.91 31.77c1.86-1.622 4.645-2.509 6.895-3.387 1.891-.74 3.81-1.507 5.77-2.041M84.613 41.179c3.958.928 7.996 1.523 12.032 1.98"/><path stroke="#FC5858" stroke-linecap="round" stroke-linejoin="round" stroke-width="3" d="M4.837 46.313c.987 2.139.61 5.666-.743 7.593-.259.368-.413.838-.734 1.159-.27.27.143.057.388.037 1.183-.098 2.642.03 3.762.452.912.344 1.44 1.112 1.97 1.878.427.616.823 1.248 1.265 1.851.278.38.292.642.222.01-.108-.97-.08-1.949.028-2.917.113-1.014.053-2.384.498-3.338.196-.42.49-.88.757-1.26.192-.271.565-.52.71-.812.03-.058-1.207-.204-1.287-.222-1.435-.324-2.774-.945-4.039-1.685-.813-.475-1.399-1.137-2.086-1.767-.285-.262-.587-.607-.71-.979z"/></svg>