<svg xmlns="http://www.w3.org/2000/svg" fill="none" viewBox="0 0 101 102"><path fill="#6BC9FF" d="M96 49.5a41.9 41.9 0 01-4.5 19 42.501 42.501 0 01-38 23.5 41.9 41.9 0 01-18.252-4.131 2.053 2.053 0 00-1.538-.105L9.795 95.736c-1.564.52-3.051-.967-2.53-2.53l7.972-23.915a2.054 2.054 0 00-.105-1.538A41.9 41.9 0 0111 49.5a42.5 42.5 0 0123.5-38 41.9 41.9 0 0119-4.5H56a42.4 42.4 0 0140 40v2.5z"/><path stroke="#3C55AB" stroke-linecap="round" stroke-width="3" d="M78 52c0 13.255-10.969 24-24.5 24S29 65.255 29 52M85.033 50.049a5.572 5.572 0 11-8.639-7.04M21 50.902a5.572 5.572 0 008.639-7.04"/><ellipse cx="41" cy="37" fill="#3C55AB" rx="4" ry="7"/><ellipse cx="65" cy="37" fill="#3C55AB" rx="4" ry="7"/><path stroke="#6BC9FF" stroke-linecap="round" stroke-width="3" d="M14.838 15.093c-2.288-2.765-4.65-5.506-7.19-8.045M19.288 11.67c.059-3.515.758-6.76 1.712-10.1M10.901 20.4C7.905 19.95 5.054 18.858 2 18.858M78.977 18.753c-.322.01 1.076-2.618 1.092-2.643.823-1.392 1.778-2.556 3.112-3.479 1.903-1.316 4.556-.802 5.829 1.168.322.5.247 1.298.153 1.861-.09.543-.422-.421-.485-.578-.214-.53-.019-1.223.032-1.776.226-2.476 2.079-4.167 4.406-4.747 1.492-.373 2.427.065 3.699.947.89.616.658 1.342.86 2.203M87.64 82.885c-.875 2.702-1.688 5.32-3.28 7.702-.297.446-1.296 1.95-2.022 2.167-.195.058-.097.006.035.021 1.772.201 3.996.133 5.313 1.61.844.946 1.367 2.718 1.43 3.987.02.374.008.748.147 1.103.197.503.369-.595.405-.728.78-2.915 1.305-6.32 3.145-8.79.486-.652 1.007-1.03 1.766-1.294.113-.04.383-.049.173-.105-2.075-.556-4.142-.736-5.692-2.426-.687-.75-1.083-1.766-1.57-2.647a2.13 2.13 0 01-.286-.926"/></svg>