<svg xmlns="http://www.w3.org/2000/svg" fill="none" viewBox="0 0 66 34"><path fill="#fff" d="M1.324 5.069h28.27v28.712H1.324z"/><path fill="#fff" d="M20.547 25.345c-.358.32-.71.644-1.05.974.688.453 1.378.905 2.071 1.355h12.079v-2.329h-13.1zM33.647 21.048v-2.381h-5.534c.02.113.03.228.03.34v.068h-.004c-.025.285-.2.55-.37.779-.052.069-.104.137-.161.205-.038.044-.087.09-.093.109-.034.084-.044.185-.06.29-.031.195-.034.454-.31.59h6.502z"/><path fill="#ED1C24" d="M33.647 18.667v-3.073H26.14c.014.08.022.16.022.243 0 .209-.043.42-.123.616.49.247.879.64.944 1.125.47.097.854.347 1.023.731.05.117.085.237.105.358h5.536zM21.568 27.675c.095.061.187.123.281.184.018.011 1.734 1.324 3.685 2.82h8.114v-3.004h-12.08z"/><path fill="#2B3990" d="M21.375 24.185l-.43.751.047.008-.134.121-.312.28h13.101v-4.297h-6.499c-.021.01-.043.02-.068.029-.183.065-.35.106-.476.205-.105.082-.209.164-.314.244-.22.169-.451.332-.642.514-.194.181-.47.295-.7.411-.293.146-.584.293-.866.45l-.082.046-.053-.172-.433.26-.523.347-.57.26-.705.281-.34.262z"/><path fill="#fff" d="M26.325 21.07l.082-.032h.002c.13-.05.256-.088.356-.128.07-.029.12-.06.137-.085.025-.027.066-.195.09-.349.032-.161.047-.302.096-.385.2-.224.6-.734.598-1.033-.002-.016 0-.029 0-.038-.006-.351-.062-1.055-.97-1.202l-.032.107-.035.01s-.26.08-.48.186a.498.498 0 01.111.26.144.144 0 01-.085.136l-.024.01-.023-.006c-.228-.061-.44-.281-.662-.509l-.03-.031.018-.039a.23.23 0 01.216-.151c.144.005.278.105.39.221.168-.129.37-.289.49-.383-.039-.248-.215-.644-.797-.928l-.035.07-.035.007s-.152.029-.326.075l.013.025a.557.557 0 01-.107.042l.115 4.884c.273-.232.785-.617.927-.734zm-.358-.065l-.296.318-.017-.94.33.39.348-.104.055.122-.42.214zm1.204-2.851c.269.065.337.27.332.4 0 .084-.02.142-.02.146l-.137-.032c.004-.024.008-.045.008-.063.007-.186-.235-.33-.237-.33l.054-.121zM25.64 15.679c0 .001 0 .001 0 0l.002.005-.136.031a.651.651 0 00-.265-.354l.022.922c.059-.039.164-.117.293-.248l.115.075-.138.27-.016.035-.038.003-.21.02.005.255c.155-.09.314-.185.412-.244l.001-.002c.08-.165.216-.504.216-.845a.936.936 0 00-.164-.557l.006-.004-.202-.172-.025-.02a.793.793 0 00-.29-.088l.008.368c.303.157.393.501.405.55zM3.892 16.28v.003c0 .002 0 .003-.002.005l-.138-.026c.001-.001.105-.643.719-.66l.003-.292a1.808 1.808 0 00-.114-.004l-.04.002h-.002a1.019 1.019 0 00-.413.083l-.006.007-.034.035-.228.195-.032.044a.947.947 0 00-.118.464c0 .359.164.723.254.89.14.076.398.218.599.324l.064.023a.663.663 0 00.05-.005l.016-1.613c-.152.053-.496.198-.578.526zm.28.722l-.222-.013-.04-.003-.166-.299.112-.079c.206.194.352.267.353.267l-.037.127zM4.376 18.06c-.058 0-.086-.068-.086-.09 0-.027.007-.052.018-.083a1.46 1.46 0 01.14-.328l-.21-.063c-.106-.02-.174-.052-.178-.053l.01-.025c-.175-.042-.328-.063-.328-.063l-.036-.005-.016-.03-.022-.039c-.57.304-.73.707-.758.957.121.089.331.242.504.364.108-.124.24-.23.39-.235a.233.233 0 01.212.142l.02.04-.03.032c-.21.235-.416.463-.64.531l-.025.008-.023-.009a.146.146 0 01-.093-.141.5.5 0 01.1-.255 3.971 3.971 0 00-.488-.168l-.036-.01-.009-.036-.025-.072c-.83.164-.916.768-.921 1.144 0 .045.002.087.004.123.01.304.43.798.64 1.016l-.052.044.058-.038c.047.073.069.214.105.374.033.154.08.32.104.346.02.024.071.055.143.08h.002c.092.034.217.068.357.117l.002-.001.084.03-.008.02c.004.002.007.006.01.009l.017-.02c.163.127.921.651 1.098.813l.043-4.454a.228.228 0 01-.077.029zm-2.215 1.171c0 .021.003.045.01.07l-.133.04c-.001-.005-.029-.074-.029-.166-.004-.129.065-.322.317-.393l.057.12c.002.004-.229.148-.222.33zm1.498 2.357l-.429-.198.05-.125.351.091.314-.4.022.94-.308-.308z"/><path fill="#000" d="M3.855 16.61l-.112.078.167.3.04.002.222.014.036-.127c0-.001-.147-.073-.353-.267zM3.633 21.356l-.353-.091-.05.125.429.198.31.307-.024-.939-.312.4zM4.974 19.128h-.002l-.003-.002-.07.115c0 .001 1.707.986 2.987 1.711l.036-.058-.028.062 1.037.425.06-.12-4.017-2.133zM6.402 18.27l2.87 2.594.103-.09-.766-.893-.055.04.041-.053c-.876-.618-1.922-1.54-2.08-1.678l-.02-.02-.098.097.005.003zM3.753 16.26l.138.027.001-.005.001-.003c.082-.326.426-.472.579-.522.045-.015.075-.021.075-.023l-.01-.132c-.016-.002-.034-.003-.053-.003l-.01.001c-.616.02-.72.66-.721.66zM2.009 19.175a.46.46 0 00.029.166l.133-.04a.225.225 0 01-.01-.07c-.007-.181.223-.326.223-.328l-.057-.12c-.254.07-.322.263-.318.392zM9.826 24.688l-.804-.556-.088.104s.206.174.42.391c.202.2.408.45.451.594l.007.029.138-.026a.036.036 0 01-.003-.01l-.121-.526zM11.164 19.95c.003.002.224.495.221.75a.28.28 0 01-.01.083l.134.038.003-.008.114-.373-.335-.55-.127.06zM25.513 16.416l.017-.034.137-.27-.114-.075a1.824 1.824 0 01-.294.247c-.03.021-.05.032-.05.033l.042.124.013-.002.21-.02.04-.003zM25.984 20.772l-.33-.39.017.94.296-.317.42-.215-.055-.123-.348.105zM20.68 20.99l.007-.004.001-.001 1.011-.46-.03-.06.038.056c1.223-.757 2.845-1.775 2.913-1.818h.001l-.075-.113h-.003s0 .002-.004.003l-3.926 2.278.067.119zM23.08 17.786l-.1-.094-.005.004c-.075.072-1.137 1.089-2.025 1.768l.043.052-.056-.04-.728.921.108.087 2.764-2.698zM25.506 15.716l.136-.03v-.007c-.013-.049-.103-.393-.406-.55a.701.701 0 00-.404-.073l-.004.131c.002 0 .22.04.412.176a.651.651 0 01.266.353zM27.355 18.606a.29.29 0 01-.009.063l.137.032c.001-.005.02-.064.02-.146.006-.129-.063-.335-.331-.4l-.055.122c.003-.001.244.141.238.33zM19.956 24.886l.002-.002.005-.027c.078-.312.83-1.013.83-1.014l-.092-.101-.006.003-.774.582-.1.524-.003.015.14.021h-.002zM18.26 19.586l-.312.562.01.027.123.35v.002l.133-.045-.001-.001-.002-.005v-.007a.29.29 0 01-.013-.092c-.002-.26.19-.733.19-.734l-.127-.057zM10.957 17.284c.275.384.555 1.024.555 2.05l.139.009.236-1.654-1.37-1.292-.16.348.06.029s.263.125.54.51zM17.94 18.77c.05-1.025.36-1.653.653-2.024.293-.373.564-.483.564-.487l.06-.026-.024-.059-.083-.205-.037-.09-1.428 1.233.156 1.661.14-.003z"/><path fill="#2B3990" d="M20.943 24.943l.004-.007c-.025-.003-.03-.001-.004.007z"/><path fill="#ED1C24" d="M37.326 18.755v-.274h28.027v.274H37.326z"/><path fill="#000" d="M.883 1.32v12.563H.89V32.165h34.425v-.371h.002V1.32H.883zm4.245 21.545c-.315-.144-.644-.303-.71-.37l-.01-.008c-.179-.16-.936-.685-1.098-.812l-.017.02-.01-.01.008-.02a1.097 1.097 0 00-.085-.03l-.001.002c-.14-.05-.265-.083-.358-.117h-.001a.349.349 0 01-.143-.081c-.025-.025-.073-.191-.104-.345-.037-.16-.059-.302-.105-.374l-.059.037.052-.043c-.207-.218-.629-.712-.64-1.016a1.716 1.716 0 01-.004-.124c.006-.375.093-.98.921-1.143l.026.071.01.034.038.01c.001 0 .264.07.487.168a.5.5 0 00-.1.255.142.142 0 00.093.141l.023.009.025-.008c.225-.068.43-.296.64-.531l.03-.033-.02-.038a.233.233 0 00-.213-.143c-.148.005-.28.111-.388.235a32.403 32.403 0 01-.505-.364c.027-.25.188-.653.758-.957l.022.04.017.03.035.004s.153.023.329.063l-.011.025a.694.694 0 00.177.053l.212.063a1.457 1.457 0 00-.14.328.296.296 0 00-.019.083c0 .022.028.09.086.09a.223.223 0 00.073-.026c.079-.044.144-.13.27-.246.147-.148.335-.34.536-.515.316-.294.527-.403.555-.556-.012-.097-.104-.102-.164-.102-.07 0-.167.01-.301.032-.299.054-.4.354-.423.42-.158.216-.325.286-.468.303-.018.003-.034.004-.05.005a1.135 1.135 0 00-.064-.022c-.2-.107-.462-.248-.6-.324-.09-.17-.253-.532-.253-.89 0-.162.035-.321.117-.465l.033-.044.228-.195.034-.035v-.004c.003 0 .004-.002.005-.002.112-.053.243-.08.414-.084h.001l.041-.001c.036 0 .074.001.113.004.219.01.493.05.849.115l.07.013.012-.067.001-.004.262.212.165.147.251.292.239.262.035-.002c.725-.06.767-.544.767-.558l.001-.04-.574-.323-.011.105c-.007.09-.089.297-.138.418a1.915 1.915 0 00-.234-.21l-.107-.095-.434-.275-.102-.054-.09-.053c.044-.239.089-.411.618-.653.057-.003.136-.007.225-.007.278-.003.666.036.824.165l.001-.001c.022.017.036.026.036.028.097.08.17.167.234.237l.007.009h.002c.054.056.094.11.18.12.17.127 1.447 1.114 1.986 2.172l.075.147.206-.576-.033-.028c-.001-.002-1.25-1.114-1.89-1.72.079.009.16.021.23.041.198.055 2.22.738 2.68.954.344.162.934.508 1.2.833.091.115.137.214.14.296v.035c0 .481-.2 2.39-.224 2.637-.008.102-.038.355-.038.65 0 .136.006.282.025.426.04.318.13.633.35.828.322.284 1.25.86 2.17 1.457a50.27 50.27 0 01-2.382 1.825c-.554.401-1.112.802-1.671 1.202-.429-.382-.703-.6-.939-.79a15.64 15.64 0 01-.296-.24l-.001-.002c-.002-.001-.003-.001-.004-.004-.429-.364-.482-.63-.673-.788-.157-.12-.415-.21-.547-.251l-.003-.001-.012-.004a.597.597 0 00-.05-.014c-.077-.017-.628-.16-.856-.32l-.004-.003-.007-.003c-.155-.112-.48-.288-.787-.45l-.035-.02c-.04-.02-.08-.04-.116-.06-.018-.008-.036-.018-.052-.027l-.183-.094-.106-.055c-.103-.052-.25-.12-.41-.194a2.564 2.564 0 00-.177-.087zm2.509 1.516l-.161-.061c.075.02.118.036.16.06zM5.58 30.678c.93-.8 1.926-1.642 2.945-2.481l.053-.044c.595-.489 1.195-.974 1.793-1.45l.047-.038.146-.117.004-.003.006-.006.259-.218-.213.153.461-.332a70.342 70.342 0 012.791-2.079c.118-.082.239-.171.362-.263.162-.127.32-.255.48-.385l.015.009.04-.033c.012-.007.021-.016.032-.025l.038-.03c.02-.016.039-.03.056-.046l.047-.036a35.733 35.733 0 001.99-1.706c.002 0 .002-.001.002-.003.166-.159.296-.394.4-.646l.005-.078.028-.115.101-.244.101-.356c.037-.185.056-.343.056-.447a.426.426 0 00-.004-.064l-.07.008.07-.009c-.033-.251-.327-2.251-.333-2.663l-.042-.003h.042c0-.083.045-.188.13-.297.25-.334.825-.701 1.165-.875.447-.233 2.442-.989 2.638-1.05.07-.022.149-.038.227-.05-.614.63-1.816 1.785-1.818 1.786l-.032.032.229.566.068-.147c.497-1.079 1.74-2.113 1.898-2.244.083-.014.12-.068.172-.124l.002-.003a.022.022 0 01.006-.006v-.001c.061-.073.13-.163.217-.238l.043-.035c.182-.16.69-.201.96-.197h.082c.538.222.591.395.644.631-.026.018-.056.037-.09.058l-.091.051-.419.285-.108.104c-.091.076-.169.151-.23.223-.055-.12-.145-.324-.156-.414l-.015-.105-.56.345.002.04c0 .014.064.496.789.529l.035.001.227-.269.245-.307.156-.15.25-.22v.004l.016.067.07-.015c.441-.098.758-.152 1-.155h.024c.06 0 .113.003.165.01a.793.793 0 01.29.087l.025.02.202.173-.005.003c.118.168.162.36.163.557 0 .341-.138.68-.215.845l-.002.003a47.956 47.956 0 01-.584.344l-.062.025h-.002c-.154-.001-.344-.053-.53-.288-.026-.065-.14-.36-.44-.404a2.577 2.577 0 00-.275-.02c-.075.003-.167-.006-.187.103.031.155.247.254.578.538.208.169.401.352.556.495.166.143.236.241.352.261.057 0 .084-.066.084-.088a.26.26 0 00-.019-.09 1.455 1.455 0 00-.154-.322l.002-.001.206-.069a.458.458 0 00.067-.019.557.557 0 00.107-.042l-.012-.025c.173-.047.326-.074.326-.075l.034-.006.035-.07c.583.282.759.679.797.927-.117.094-.322.254-.49.383-.112-.116-.245-.216-.39-.221a.23.23 0 00-.216.151l-.017.039.03.031c.22.228.435.448.661.51l.023.005.024-.01a.143.143 0 00.086-.136.499.499 0 00-.11-.26c.217-.105.478-.184.478-.185l.035-.011.033-.107c.907.147.963.85.969 1.202v.038c.002.299-.399.81-.598 1.033-.049.082-.064.224-.095.385-.026.154-.066.323-.09.35a.34.34 0 01-.138.084c-.1.04-.227.078-.356.128h-.002l-.081.032c-.142.117-.654.503-.933.733-.07.058-.126.107-.157.138-.063.067-.392.242-.704.398-.058.028-.112.057-.167.085-.155.078-.3.15-.4.207-.054.032-.12.068-.193.11l-.097.055-.029.017-.004.002c-.04.024-.084.048-.128.073-.001 0-.003 0-.004.002-.307.177-.64.372-.8.495-.222.172-.77.336-.845.354l-.05.017-.013.005h-.001c-.131.046-.386.147-.54.274-.183.162-.226.431-.638.81l-.004.004-.001.001-.03.027c-.085.074-.166.146-.255.222-.265.229-.58.503-1.119 1.033h-.001l-.042.043-.055.053-.03.03-.026.025a.163.163 0 00-.015.015l-.059.058-.035.035-.057.056.004.003a.343.343 0 01-.022.021c-1.11 1.12-2.642 2.9-3.757 4.207H5.58v.01zm9.963 0a76.243 76.243 0 012.986-3.384c.21-.222.423-.438.64-.653.621.451 1.28.93 2.134 1.546l.04.028 3.406 2.463h-9.206zm18.104-12.01V30.677h-8.114c-1.95-1.496-3.667-2.808-3.684-2.819l-.282-.184a480.4 480.4 0 01-2.072-1.354c.341-.33.692-.655 1.05-.975.104-.093.207-.187.313-.28l.134-.121-.02-.004.219-.238.315-.485.247-.235.426-.14.571-.282.47-.218.778-.398.002.004.082-.045c.282-.158.573-.304.866-.45.23-.117.506-.23.7-.412.19-.182.423-.344.642-.514l.314-.244c.126-.099.292-.14.476-.205.025-.009.046-.019.068-.029.276-.135.279-.394.31-.59.016-.104.025-.205.06-.29.005-.018.055-.064.093-.108a5.52 5.52 0 00.16-.205c.168-.23.346-.494.37-.78h.005v-.067c0-.114-.01-.228-.03-.34a1.612 1.612 0 00-.106-.358c-.169-.385-.552-.634-1.023-.732-.065-.484-.454-.878-.944-1.124.08-.198.123-.408.123-.617 0-.04-.003-.082-.007-.122l-.012-.101-.004-.018h7.508v3.07h-.004z"/><path fill="#ED1C24" d="M9.916 13.461l-.517-1.58H5.97l-.549 1.58H2.553L6.61 2.851h2.114l4.057 10.61H9.916zM7.74 6.874L6.737 9.705h1.942l-.94-2.831z"/><path fill="#fff" d="M18.855 13.55c-1.3 0-2.287-.418-3.102-1.192-1.174-1.118-1.128-2.608-1.128-4.202 0-1.595-.046-3.086 1.128-4.203.815-.775 1.802-1.192 3.102-1.192 2.115 0 3.823 1.118 4.23 3.457h-2.788c-.172-.596-.517-1.133-1.425-1.133-.5 0-.877.194-1.08.447-.252.312-.423.685-.423 2.622 0 1.938.171 2.31.422 2.623.204.254.58.447 1.08.447.91 0 1.255-.537 1.426-1.133h2.789c-.408 2.342-2.116 3.46-4.23 3.46z"/><path fill="#ED1C24" d="M30.928 5.175v8.286h-2.742V5.175h-2.742V2.85h8.225v2.325h-2.74z"/><path fill="#fff" d="M38.271 2.982v-.535h-.967v.598a1.085 1.085 0 00.299.673c.058.061.13.114.211.16.085.048.18.084.287.111.11.03.234.042.372.042.135 0 .26-.014.37-.042.106-.027.202-.063.286-.111a.943.943 0 00.356-.341c.085-.137.137-.292.156-.463h.003v-.025l.002-.028h-.002v-.73a1.088 1.088 0 00-.159-.493 1 1 0 00-.64-.454 1.468 1.468 0 00-.37-.041c-.136 0-.257.012-.366.04-.105.026-.2.062-.284.109a.92.92 0 00-.21.157 1.028 1.028 0 00-.285.51l-.018.077-.01.037h.61l.022-.066a.336.336 0 01.097-.155.558.558 0 01.149-.095.637.637 0 01.26-.056h.033a.883.883 0 01.29.057.65.65 0 01.103.055.358.358 0 01.164.318v.754c0 .06-.008.111-.023.151a.363.363 0 01-.145.185.661.661 0 01-.104.057.84.84 0 01-.292.059.871.871 0 01-.283-.06.585.585 0 01-.103-.054.342.342 0 01-.143-.185.445.445 0 01-.023-.153v-.061h.357v-.002zM40.314 3.882a1.067 1.067 0 00.808.116c.062-.016.126-.04.193-.073a.67.67 0 00.194-.149.728.728 0 00.142-.234.909.909 0 00.055-.335v-1.89h-.997v.535h.386v1.355a.424.424 0 01-.067.214.17.17 0 01-.086.065.17.17 0 01-.065.01.47.47 0 01-.13-.016.497.497 0 01-.095-.04.354.354 0 01-.059-.043l-.042-.039-.048-.043-.023-.022-.415.368.06.066a.85.85 0 00.189.155zM43.107 3.234a.475.475 0 01.059-.101.282.282 0 01.088-.078.519.519 0 01.273-.069c.045 0 .087.001.127.003a.184.184 0 01.073.017l.1.045.05.023v-.607l-.076-.019a1.12 1.12 0 00-.273-.03h-.001c-.147 0-.288.023-.419.07v-.102a.708.708 0 01.083-.267.538.538 0 01.165-.177.554.554 0 01.31-.081c.107.005.2.028.284.066a.452.452 0 01.252.279.6.6 0 01.023.177v1.611h.612V2.362c0-.03-.003-.071-.007-.13a1.1 1.1 0 00-.157-.453.883.883 0 00-.208-.235c-.09-.072-.2-.13-.328-.174a1.446 1.446 0 00-.47-.067h-.025c-.033 0-.078.002-.142.007a1.37 1.37 0 00-.488.139.916.916 0 00-.443.487c-.049.12-.072.262-.072.424v1.637h.611v-.763h-.001zM44.14 1.2v-.185h.697V.48h-.996a.268.268 0 00-.25.136.246.246 0 00-.035.119v.468h.585V1.2zM46.266 3.997V2.36a.609.609 0 01.07-.253.52.52 0 01.066-.093.383.383 0 01.093-.075.53.53 0 01.136-.056.73.73 0 01.19-.021l.065.002a.648.648 0 01.108.017c.042.01.089.025.14.046a.391.391 0 01.212.217.522.522 0 01.037.212v1.64h.612V2.36l-.002-.067a1.08 1.08 0 00-.063-.291.992.992 0 00-.228-.37.873.873 0 00-.214-.163 1.306 1.306 0 00-.287-.116 1.489 1.489 0 00-.375-.05H46.8a1.204 1.204 0 00-.278.031 1.417 1.417 0 00-.433.176 1.257 1.257 0 00-.419.44l-.008.014-.004.007v2.026h.609zM50.055 3.405a.427.427 0 01-.14.067.733.733 0 01-.2.025 1.16 1.16 0 01-.22-.022 1.176 1.176 0 01-.372-.131.669.669 0 01-.112-.078l-.049-.043-.023-.022-.41.368.063.066c.074.08.167.147.275.203.095.05.21.095.346.135.145.041.314.061.508.061.14 0 .274-.016.4-.047.13-.033.245-.083.343-.152a.756.756 0 00.323-.641.624.624 0 00-.066-.284.821.821 0 00-.172-.233 1.017 1.017 0 00-.535-.262c-.09-.014-.181-.028-.272-.04a1.212 1.212 0 01-.222-.05.37.37 0 01-.136-.077c-.023-.022-.038-.052-.038-.112a.29.29 0 01.028-.142.186.186 0 01.071-.076.318.318 0 01.115-.042.962.962 0 01.163-.013c.02 0 .053.003.096.011a1.327 1.327 0 01.288.092c.049.02.092.042.13.065l.257.152.057-.077.283-.388-.296-.183a1.274 1.274 0 00-.23-.115 2.308 2.308 0 00-.253-.078 1.341 1.341 0 00-.333-.04h-.004c-.116 0-.232.014-.345.043a.982.982 0 00-.322.144.772.772 0 00-.235.26.775.775 0 00-.09.383v.006c0 .093.012.18.04.26a.687.687 0 00.41.428.88.88 0 00.138.049.73.73 0 00.098.022c.029.007.075.014.137.024l.182.028.166.025a.868.868 0 00.056.007l.008.001.012.003a.987.987 0 01.064.015.175.175 0 01.056.029.216.216 0 01.052.06c.01.019.02.054.02.102a.25.25 0 01-.027.12.284.284 0 01-.083.094zM51.61 3.64c.033.057.071.108.117.15a.751.751 0 00.49.206h.656v-.535h-.402a.467.467 0 01-.123-.014.273.273 0 01-.083-.036.328.328 0 01-.06-.05.444.444 0 01-.045-.064.406.406 0 01-.046-.178v-.883a.47.47 0 01.049-.224.346.346 0 01.079-.099l.43.257.432-.257a.38.38 0 01.078.1c.03.058.047.132.047.223v1.76h.611v-1.91a1.112 1.112 0 00-.07-.26.78.78 0 00-.118-.201L53.63 1.6c0-.003-.002-.004-.005-.006l-.015-.018a1.054 1.054 0 00-.426-.273l-.031-.01-.016-.006-.467.264-.467-.264-.046.016c-.179.062-.33.162-.446.297a.893.893 0 00-.209.486l-.001 1.09a.917.917 0 00.11.463zM53.56.317h-.584v.893h.585V.317zM56.974 2.29a1.089 1.089 0 00-.3-.674l-.025.022.025-.022a1.03 1.03 0 00-.5-.273 1.47 1.47 0 00-.369-.042c-.134 0-.257.013-.366.04-.106.027-.2.063-.283.11a.93.93 0 00-.212.157 1.156 1.156 0 00-.143.177 1.169 1.169 0 00-.14.333l-.02.076-.01.038h.61l.022-.066a.336.336 0 01.097-.156.559.559 0 01.149-.095.638.638 0 01.26-.056h.033a.851.851 0 01.29.058.844.844 0 01.103.053.358.358 0 01.164.318v.754c0 .06-.008.11-.023.152a.323.323 0 01-.059.107.398.398 0 01-.085.078.644.644 0 01-.103.055.813.813 0 01-.292.059.825.825 0 01-.283-.06.584.584 0 01-.102-.054.35.35 0 01-.145-.185.445.445 0 01-.023-.153V2.98h.356v-.536h-.967v.598a1.085 1.085 0 00.299.673c.059.061.13.115.213.16.083.048.18.084.286.112.11.028.235.04.373.04.136 0 .259-.012.37-.04.106-.028.201-.065.284-.112a.944.944 0 00.357-.34c.084-.136.136-.291.155-.463h.003V3.05l.002-.032h-.002V2.29h.001zM57.79 3.64c.032.057.07.108.117.15a.806.806 0 00.132.1.823.823 0 00.358.106h.656v-.535h-.401a.466.466 0 01-.123-.014.3.3 0 01-.143-.086.372.372 0 01-.046-.064.426.426 0 01-.047-.177v-.883c0-.09.018-.165.048-.223a.372.372 0 01.079-.1l.431.256.432-.255c.03.027.056.06.078.1.03.057.048.131.048.222v1.76h.611V2.086a1.117 1.117 0 00-.068-.26.808.808 0 00-.119-.201l-.01-.012-.01-.012-.022-.024h-.001a1.054 1.054 0 00-.426-.273l-.031-.01-.017-.006-.466.263-.467-.263-.046.016c-.179.062-.33.162-.446.297a.895.895 0 00-.21.486v1.09a.899.899 0 00.11.463zM58.695 1.213h1.333V.677h-.746V.468a.217.217 0 00-.05-.146.28.28 0 00-.099-.078.376.376 0 00-.124-.032h-.517v.535h.203v.466zM61.023 2l-.024-.023.023.022.043-.041a.265.265 0 01.054-.04.434.434 0 01.298-.046.165.165 0 01.083.062.217.217 0 01.029.051c.019.043.03.09.034.15v1.864h.61V2.127a.927.927 0 00-.055-.34.76.76 0 00-.143-.236.665.665 0 00-.194-.147.959.959 0 00-.435-.103 1.067 1.067 0 00-.566.15.81.81 0 00-.188.154l-.039.043-.019.021.415.395.074-.065zM63.05 3.127a1.206 1.206 0 00.143.443c.046.084.11.16.19.228.084.07.183.125.3.168.125.045.268.066.432.066h.094c.13-.009.243-.029.345-.061a.888.888 0 00.195-.089v.115h.611V1.32h-.61v1.643l-.004.053a.595.595 0 01-.02.104.825.825 0 01-.052.133.435.435 0 01-.239.209.61.61 0 01-.287.032.752.752 0 01-.244-.066.38.38 0 01-.118-.085.477.477 0 01-.093-.149.628.628 0 01-.038-.233V1.32h-.611v1.672a.838.838 0 00.006.135zM38.945 8.653h-.005c-.269 0-.521.049-.752.146v-.258c.018-.167.066-.323.143-.461a.949.949 0 01.122-.168.764.764 0 01.17-.142.918.918 0 01.234-.104c.086-.025.19-.039.312-.039.184.01.35.049.494.115a.95.95 0 01.179.108.759.759 0 01.263.383c.027.085.042.187.042.307v2.57h.872V8.505a1.675 1.675 0 00-.085-.543 1.835 1.835 0 00-.174-.38 1.401 1.401 0 00-.326-.367 1.704 1.704 0 00-.519-.272 2.296 2.296 0 00-.745-.107h-.042c-.05 0-.124.004-.226.013a2.128 2.128 0 00-.774.221 1.458 1.458 0 00-.398.296 1.49 1.49 0 00-.296.466 1.759 1.759 0 00-.115.67v2.612h.872V9.916a.85.85 0 01.108-.189.563.563 0 01.165-.142.91.91 0 01.481-.122c.077 0 .148.002.212.005a.425.425 0 01.146.034l.1.045.049.023v-.848l-.077-.02a1.758 1.758 0 00-.43-.05zM45.206 8.386a1.64 1.64 0 00-.476-1.056 1.498 1.498 0 00-.334-.25 1.836 1.836 0 00-.453-.178 2.403 2.403 0 00-.587-.067c-.215 0-.409.022-.58.064a1.83 1.83 0 00-.448.172 1.453 1.453 0 00-.332.246c-.089.09-.165.184-.226.28-.062.095-.11.19-.145.283-.034.09-.06.171-.078.244l-.019.076-.01.039h.871l.022-.067a.62.62 0 01.176-.278.99.99 0 01.262-.167 1.352 1.352 0 01.45-.098h.057c.188.008.355.04.5.098.058.025.12.057.181.094a.618.618 0 01.258.316c.026.07.04.153.04.25v1.234a.843.843 0 01-.039.264.667.667 0 01-.26.331c-.06.04-.12.071-.18.098a1.45 1.45 0 01-.503.101 1.442 1.442 0 01-.493-.101 1.062 1.062 0 01-.18-.098.622.622 0 01-.26-.331.815.815 0 01-.04-.267v-.16h.582v-.755h-1.454v.915c.026.294.109.553.25.777.06.096.134.191.223.283.092.095.203.179.333.25.131.074.282.131.453.175.173.044.37.066.592.066.218 0 .413-.021.587-.066.17-.044.32-.101.453-.175.13-.073.24-.155.334-.25.09-.092.166-.187.226-.284.136-.218.218-.468.247-.746h.003v-.03l.002-.025h-.002V8.386h-.003zM46.754 7.727a.593.593 0 01.211-.077c.087-.015.181-.022.281-.022a.89.89 0 01.17.021c.072.014.15.035.235.061.083.027.167.058.25.093.083.035.155.071.22.11l.368.216.057-.077.427-.584-.425-.264a2.019 2.019 0 00-.367-.183 3.498 3.498 0 00-.407-.125 2.317 2.317 0 00-1.083.008 1.5 1.5 0 00-.506.224 1.216 1.216 0 00-.367.405c-.096.169-.14.37-.14.601 0 .154.02.292.062.413a1.048 1.048 0 00.397.527 1.621 1.621 0 00.614.246c.048.01.124.023.225.038l.3.045.27.04.124.018c.029.005.066.014.113.028a.363.363 0 01.215.174.385.385 0 01.042.196.457.457 0 01-.052.22.532.532 0 01-.153.173.771.771 0 01-.252.117 1.267 1.267 0 01-.346.044c-.13 0-.254-.012-.377-.036a2.538 2.538 0 01-.345-.094 1.742 1.742 0 01-.285-.129 1.124 1.124 0 01-.194-.133l-.05-.044-.024-.021-.582.52.064.067c.116.123.262.23.434.32a2.807 2.807 0 001.365.31h.004c.006 0 .007-.002.009-.002.215.002.427-.023.629-.073.204-.05.384-.13.538-.238.156-.109.28-.248.369-.414.091-.169.135-.367.135-.587a.988.988 0 00-.103-.44 1.285 1.285 0 00-.268-.363 1.588 1.588 0 00-.84-.41 46.152 46.152 0 00-.444-.065 2.09 2.09 0 01-.378-.084.654.654 0 01-.248-.14c-.052-.049-.08-.116-.082-.225 0-.114.02-.2.053-.259a.38.38 0 01.137-.146zM47.022 5.55a.377.377 0 00-.12.128.365.365 0 00-.052.17v.7h.83v-.302h1.14v-.755h-1.567a.405.405 0 00-.231.06zM52.717 9.86a.988.988 0 00-.102-.441 1.247 1.247 0 00-.27-.363 1.59 1.59 0 00-.84-.41c-.148-.023-.296-.044-.444-.065a2.09 2.09 0 01-.378-.084.654.654 0 01-.248-.14c-.052-.049-.08-.116-.082-.224 0-.114.02-.2.053-.257a.39.39 0 01.14-.147.593.593 0 01.211-.076 1.66 1.66 0 01.281-.024l.001-.012v.012c.039 0 .096.006.168.021a2.535 2.535 0 01.707.264l.367.217.056-.078.427-.585-.426-.264a2.1 2.1 0 00-.367-.183 3.41 3.41 0 00-.406-.125 2.316 2.316 0 00-1.083.008c-.187.045-.357.12-.507.224a1.216 1.216 0 00-.367.405c-.095.169-.14.371-.14.601 0 .154.02.292.063.413a1.071 1.071 0 00.397.528c.08.055.16.1.242.135a1.796 1.796 0 00.37.113c.048.01.124.022.225.037l.3.045.27.04.126.019c.027.005.064.014.113.028a.375.375 0 01.214.174.396.396 0 01.043.196.462.462 0 01-.205.393.77.77 0 01-.252.117c-.101.029-.217.043-.347.043a2.291 2.291 0 01-.722-.13 1.806 1.806 0 01-.285-.13 1.01 1.01 0 01-.193-.134l-.05-.044-.023-.021-.582.52.064.066c.116.123.262.229.434.32.15.08.335.15.555.213.228.066.498.096.812.096h.005c.222 0 .434-.025.634-.075.204-.051.385-.13.54-.237.155-.11.279-.248.369-.414a1.24 1.24 0 00.132-.586zM50.42 6.201h.034l-.034.003a.469.469 0 00.052.175c.027.05.068.092.118.125a.398.398 0 00.228.059h2.105v-.756h-1.672v-.303h-.83v.697h-.001zM56.085 5.373v4.274a.728.728 0 01-.04.255.632.632 0 01-.259.321.951.951 0 01-.177.09 1.51 1.51 0 01-.506.1 1.48 1.48 0 01-.495-.1.971.971 0 01-.18-.09.678.678 0 01-.153-.135.6.6 0 01-.106-.187.736.736 0 01-.041-.255V6.888h-.872v2.759c.026.294.109.553.25.778.06.096.135.191.223.282.093.095.203.178.333.25.131.074.282.132.453.176.173.044.371.066.592.066.218 0 .413-.021.587-.066.17-.044.32-.102.453-.175.13-.073.241-.157.332-.25.089-.092.164-.187.224-.284.14-.224.225-.482.254-.768V5.373h-.872zM60.887 9.678V8.25a.61.61 0 00-.32-.488.61.61 0 00.318-.559v-.342h-.871v.208c-.002.134-.041.217-.114.277-.07.057-.192.096-.375.096h-.323v.26l-.008-.027a1.286 1.286 0 00-.126-.283.978.978 0 00-.228-.264 1.162 1.162 0 00-.352-.191 1.481 1.481 0 00-.499-.075h-.498v.755h.149a1.757 1.757 0 01.282.028 1.1 1.1 0 01.175.05c.056.022.105.05.151.087a.389.389 0 01.105.13c.025.049.04.113.04.193v.042l-.003.035a.29.29 0 01-.064.142 1.758 1.758 0 01-.162.174l-.212.2c-.079.075-.152.159-.22.25a1.434 1.434 0 00-.169.307 1.05 1.05 0 00-.068.39 1.62 1.62 0 00.224.813c.074.128.173.245.299.35.13.106.289.191.479.257a2.116 2.116 0 00.877.092 2.092 2.092 0 00.717-.185c.14-.063.269-.152.386-.262.12-.113.217-.255.292-.421.082-.17.118-.376.118-.61zm-1.632-1.5l.001-.01c.003-.014.003-.03.003-.046V8.1h.267c.381.015.48.09.489.293V9.68l-.01.08a.857.857 0 01-.127.323.703.703 0 01-.361.284.912.912 0 01-.315.05l-.094-.005a.871.871 0 01-.341-.09.615.615 0 01-.304-.326.818.818 0 01-.054-.316.63.63 0 01.064-.231c.032-.068.082-.153.15-.252.067-.097.163-.21.288-.338.06-.071.11-.138.156-.206a1.5 1.5 0 00.114-.203.734.734 0 00.071-.241l.003-.03zM59.492 5.506h-.727v.696a.494.494 0 00.051.178c.028.05.069.091.12.126a.393.393 0 00.227.058h2.104v-.756h-1.673v-.302h-.102zM64.289 10.99a.905.905 0 00.19-.123c.005-.003.008-.007.01-.01v.255h.872v-4.25h-.871V9.48l-.006.092a1.25 1.25 0 01-.124.406.758.758 0 01-.161.21.837.837 0 01-.263.16 1.06 1.06 0 01-.396.066 1.28 1.28 0 01-.532-.119.737.737 0 01-.377-.413 1.029 1.029 0 01-.065-.392V6.86h-.872V9.53c0 .05.004.122.013.216.01.1.031.21.068.33.037.121.09.245.16.371.072.133.173.252.298.357.128.107.287.193.472.262.193.07.419.104.68.104h.155c.203-.014.383-.045.546-.096.068-.023.136-.05.203-.083zM38.135 12.787a1.385 1.385 0 00-.416.189.98.98 0 00-.299.315.849.849 0 00-.114.44v2.317c0 .161.037.311.111.446.073.132.171.245.291.34.12.093.26.166.415.217.155.051.318.077.485.077H38.711v-.535h-.103a.844.844 0 01-.47-.153.62.62 0 01-.163-.172.404.404 0 01-.06-.218v-2.316a.36.36 0 01.058-.205.494.494 0 01.158-.15.792.792 0 01.224-.09c.086-.022.169-.03.252-.032H38.71v-.54l-.105.002c-.16.003-.316.026-.469.068zM41.26 12.819V15.474a.357.357 0 01-.165.323.52.52 0 01-.1.051.862.862 0 01-.295.057.88.88 0 01-.285-.057.57.57 0 01-.102-.053.383.383 0 01-.085-.073.362.362 0 01-.059-.104.4.4 0 01-.023-.145v-1.728h-.61v1.728a1.1 1.1 0 00.157.494.918.918 0 00.353.339c.084.046.18.084.287.111.11.029.233.041.371.041.135 0 .26-.013.369-.04.106-.028.202-.066.286-.112a.962.962 0 00.352-.342c.089-.141.142-.305.16-.485v-2.664h-.61v.004zM43.535 14.287a.952.952 0 01.164-.014c.02 0 .053.004.096.012a1.32 1.32 0 01.287.092c.05.021.092.042.13.065l.256.152.058-.077.28-.388-.291-.181a1.365 1.365 0 00-.23-.117 2.295 2.295 0 00-.253-.078 1.44 1.44 0 00-.682.005.959.959 0 00-.322.143.774.774 0 00-.235.26.775.775 0 00-.09.383v.007a.8.8 0 00.04.26.669.669 0 00.255.341.9.9 0 00.292.135c.04.01.07.019.098.023.029.006.075.013.138.022.06.01.121.02.183.028l.163.025a.795.795 0 00.056.007l.015.003h.004a.979.979 0 01.064.015.204.204 0 01.056.029.196.196 0 01.05.06c.012.018.023.053.023.103 0 .047-.01.085-.029.12a.272.272 0 01-.083.092.416.416 0 01-.14.065.736.736 0 01-.2.025 1.187 1.187 0 01-.593-.154.751.751 0 01-.112-.078l-.048-.043-.024-.021-.411.367.063.068c.075.079.166.146.275.202a1.776 1.776 0 00.853.197c.14 0 .274-.017.401-.048.128-.032.244-.082.342-.152.1-.07.18-.16.236-.267a.774.774 0 00.086-.364V15.6a.635.635 0 00-.065-.283.83.83 0 00-.172-.233.993.993 0 00-.535-.261l-.27-.04a1.215 1.215 0 01-.222-.05.37.37 0 01-.137-.076c-.023-.023-.038-.053-.038-.113a.29.29 0 01.029-.141.215.215 0 01.07-.077.538.538 0 01.12-.038zM46.053 15.556v-.093h-.585v.462c.004.05.016.09.037.127.019.035.049.066.083.088a.283.283 0 00.162.043h1.016v-.535h-.713v-.091zM46.053 14.046v-.094h-.585v.462a.273.273 0 00.12.215.284.284 0 00.162.043h1.016v-.535h-.713v-.091zM47.582 16.408h.617v-2.677h-.617v2.677zM51.437 14.602a1.024 1.024 0 00-.142-.437.844.844 0 00-.191-.224.953.953 0 00-.3-.163 1.278 1.278 0 00-.429-.063h-.094a1.136 1.136 0 00-.543.135v-.119h-.611v2.678h.611v-1.653l.003-.04a.636.636 0 01.072-.216.395.395 0 01.09-.11.47.47 0 01.148-.083.66.66 0 01.227-.034l.066.002a.667.667 0 01.243.063.394.394 0 01.118.081.433.433 0 01.092.137.53.53 0 01.037.212v1.641h.611v-1.67c0-.035-.003-.078-.008-.137zM54.796 13.702l-.022.024.022-.024-.033-.028a8.906 8.906 0 01-.046-.042l-.051-.047a13.587 13.587 0 00-.136-.122l-.069-.06-.034-.03-.061.117a.375.375 0 01-.115.138.75.75 0 01-.268.125.504.504 0 00-.043.008 1.439 1.439 0 00-.394-.045h-.026c-.033 0-.079.002-.142.007a1.269 1.269 0 00-.487.14.917.917 0 00-.442.485c-.049.122-.072.263-.072.424v1.638h.611v-.763a.422.422 0 01.059-.102.283.283 0 01.088-.077.52.52 0 01.273-.069c.045 0 .088.001.127.004.03.001.052.007.074.017l.098.045.05.023v-.612l-.079-.017a1.262 1.262 0 00-.27-.028 1.207 1.207 0 00-.421.073V14.8a.709.709 0 01.083-.266.542.542 0 01.165-.178.528.528 0 01.308-.081c.107.005.2.027.284.066a.484.484 0 01.188.153.447.447 0 01.062.127.597.597 0 01.024.178v1.61h.611v-1.633c0-.027-.002-.062-.005-.11a1.103 1.103 0 00-.185-.517l.014-.012a2.013 2.013 0 00.247-.216c.029-.035.064-.061.07-.125v-.044l-.032-.027c-.008-.01-.016-.016-.025-.024zM56.391 12.368l-.027.02.027-.02a.75.75 0 00-.313-.23l-.02-.008a.973.973 0 00-.256-.06l-.04-.003-.021-.003-.15.198-.152-.206-.408.347.519.634.334-.302.014.015a.476.476 0 01.049.074c.012.022.016.04.016.055v3.53h.611v-3.53a.953.953 0 00-.093-.37.94.94 0 00-.09-.14zM59.786 14.602a1.087 1.087 0 00-.142-.436.864.864 0 00-.49-.39 1.313 1.313 0 00-.428-.062h-.094a1.156 1.156 0 00-.476.1.406.406 0 00-.065.035V13.732h-.611v2.678h.61v-1.641l.003-.05a.598.598 0 01.072-.215.433.433 0 01.238-.194.654.654 0 01.228-.034l.064.002a.669.669 0 01.243.063.418.418 0 01.21.218.533.533 0 01.037.212v1.641h.611V14.74c-.003-.035-.004-.079-.01-.138zM62.897 13.73h-.509v1.88a.361.361 0 01-.05.136.326.326 0 01-.096.091.296.296 0 01-.166.035h-.498l-.052-.001a.438.438 0 01-.149-.035.252.252 0 01-.066-.044.194.194 0 01-.05-.074.307.307 0 01-.02-.121l.003-.029c.001-.007.004-.024.01-.044a.254.254 0 01.03-.055.172.172 0 01.047-.046.347.347 0 01.094-.041.573.573 0 01.15-.018h.427v-.535h-.428l-.038-.003a.623.623 0 01-.17-.04.307.307 0 01-.083-.048.247.247 0 01-.06-.077.255.255 0 01-.023-.116.303.303 0 01.045-.139.31.31 0 01.104-.094.417.417 0 01.091-.033.567.567 0 01.134-.014h.427v-.535h-.645a.901.901 0 00-.388.1.813.813 0 00-.142.101.675.675 0 00-.21.353c-.02.079-.03.165-.031.26.007.107.03.202.068.289a.975.975 0 00.062.11.542.542 0 00.181.176c-.02.014-.038.029-.057.044a.718.718 0 00-.154.188.585.585 0 00-.071.292c0 .033.004.07.01.116a.73.73 0 00.142.33.668.668 0 00.18.162.973.973 0 00.267.113c.107.028.23.04.37.04h.508a1.156 1.156 0 00.492-.123.714.714 0 00.41-.67v-1.885h-.096v.005zM65.26 13.29a1.003 1.003 0 00-.3-.314 1.385 1.385 0 00-.415-.189 1.856 1.856 0 00-.47-.068h-.07l-.036-.002v.538h.102c.082 0 .166.01.252.031.083.02.158.05.223.09a.49.49 0 01.157.149c.038.056.057.12.059.204v2.316c0 .084-.02.154-.06.22a.59.59 0 01-.164.172.798.798 0 01-.227.112.777.777 0 01-.24.04H63.967v.536h.105c.166 0 .327-.027.483-.078.154-.051.293-.124.414-.218.122-.093.22-.207.292-.338a.897.897 0 00.11-.432v-2.33a.834.834 0 00-.112-.44zM38.063 20.846h.681l.722 2.5h-.573l-.127-.529h-.726l-.125.53h-.573l.721-2.501zm.073 1.558h.534l-.263-1.124H38.4l-.263 1.124zM40.292 20.846l.664 1.712h.008v-1.712h.505v2.5h-.626l-.673-1.75h-.008v1.75h-.505v-2.5h.635zM43.45 20.846v.413h-.597v2.087h-.55V21.26h-.596v-.413h1.742v-.001zM43.712 23.347v-2.5h.551v2.5h-.551zM45.704 21.888v.412h-1.078v-.412h1.078zM47.25 21.69c0-.363-.08-.52-.328-.52-.278 0-.344.254-.344.962 0 .757.115.893.352.893.2 0 .344-.095.344-.634h.55c0 .54-.144 1.006-.867 1.006-.825 0-.929-.54-.929-1.3s.104-1.3.93-1.3c.786 0 .844.53.844.894h-.551zM49.01 20.798c.824 0 .928.539.928 1.3 0 .76-.102 1.299-.929 1.299-.825 0-.929-.54-.929-1.3s.104-1.3.93-1.3zm0 2.227c.324 0 .377-.255.377-.928 0-.669-.053-.928-.378-.928s-.378.259-.378.928c0 .672.053.928.378.928zM50.263 20.846h1.016c.451 0 .726.218.726.644 0 .333-.145.557-.455.617v.007c.376.045.433.235.44.763.004.263.019.4.122.448v.021h-.596c-.053-.07-.065-.165-.068-.262l-.015-.48c-.008-.197-.103-.316-.325-.316h-.294v1.058h-.55v-2.5h-.001zm.55 1.093h.23c.263 0 .413-.105.413-.375 0-.232-.133-.347-.382-.347h-.26v.722zM52.389 20.846h1.016c.451 0 .726.218.726.644 0 .333-.145.557-.455.617v.007c.376.045.433.235.44.763.004.263.019.4.123.448v.021h-.597c-.053-.07-.065-.165-.068-.262l-.015-.48c-.008-.197-.104-.316-.325-.316h-.294v1.058h-.55v-2.5h-.001zm.55 1.093h.229c.263 0 .413-.105.413-.375 0-.232-.134-.347-.382-.347h-.26v.722zM55.068 20.846v1.744c0 .248.065.433.32.433.257 0 .32-.185.32-.433v-1.744h.552v1.744c0 .637-.424.805-.872.805-.447 0-.871-.136-.871-.805v-1.744h.55zM56.607 20.846h.964c.558 0 .748.375.748.75 0 .517-.347.752-.867.752h-.295v.998h-.55v-2.5zm.55 1.132h.244c.219 0 .367-.119.367-.375 0-.245-.106-.386-.382-.386h-.229v.76zM60.189 20.846v.413h-.596v2.087h-.552V21.26h-.596v-.413h1.744v-.001zM60.452 23.347v-2.5h.55v2.5h-.55zM62.282 20.798c.826 0 .93.539.93 1.3 0 .76-.104 1.299-.93 1.299-.825 0-.928-.54-.928-1.3s.103-1.3.928-1.3zm0 2.227c.325 0 .378-.255.378-.928 0-.669-.053-.928-.377-.928-.325 0-.378.259-.378.928 0 .672.053.928.377.928zM64.17 20.846l.666 1.712h.007v-1.712h.505v2.5h-.626l-.673-1.75h-.008v1.75h-.505v-2.5h.635zM38.253 25.218c.825 0 .928.54.928 1.3s-.104 1.3-.928 1.3c-.825 0-.928-.54-.928-1.3-.001-.76.102-1.3.928-1.3zm0 2.227c.325 0 .378-.255.378-.928 0-.67-.053-.928-.378-.928s-.378.259-.378.928c0 .673.053.928.378.928zM40.033 25.268h1.017c.45 0 .725.217.725.644 0 .332-.144.556-.454.616v.008c.374.045.431.235.44.763.003.262.018.399.122.448v.02h-.596c-.053-.07-.066-.164-.068-.262l-.015-.48c-.007-.197-.104-.315-.325-.315h-.295v1.058h-.55v-2.5zm.55 1.093h.23c.262 0 .411-.105.411-.376 0-.23-.134-.346-.382-.346h-.259v.722zM43.893 26.009c0-.185-.091-.42-.313-.42-.268 0-.374.252-.374.875 0 .603.061.98.378.98.13 0 .34-.13.34-.398v-.255h-.364v-.372h.89v1.348h-.405v-.23h-.008c-.13.196-.317.28-.573.28-.677 0-.81-.463-.81-1.328 0-.84.213-1.27.916-1.27.603 0 .849.283.849.791h-.526v-.001zM45.865 25.268h.68l.721 2.5h-.573l-.125-.53h-.726l-.125.53h-.573l.721-2.5zm.072 1.558h.535l-.263-1.124h-.008l-.264 1.124zM48.619 25.268l.664 1.712h.008v-1.712h.505v2.5h-.626l-.673-1.751h-.008v1.75h-.505v-2.5h.635zM50.73 27.768v-2.5h.55v2.5h-.55zM52.118 27.4l1.005-1.72h-.935v-.412h1.57v.381l-1.02 1.705h1.035v.413h-1.654V27.4zM55.112 25.268h.68l.721 2.5h-.573l-.125-.53h-.726l-.125.53h-.573l.721-2.5zm.073 1.558h.534l-.263-1.124h-.008l-.263 1.124zM58.618 25.268v.412h-.596v2.088h-.55V25.68h-.596v-.412h1.742zM59.41 27.768v-2.5h.549v2.5h-.55zM61.767 25.218c.825 0 .927.54.927 1.3s-.104 1.3-.928 1.3c-.825 0-.927-.54-.927-1.3-.002-.76.102-1.3.928-1.3zm0 2.227c.324 0 .377-.255.377-.928 0-.67-.053-.928-.377-.928-.325 0-.378.259-.378.928-.002.673.053.928.377.928zM64.18 25.268l.665 1.712h.008v-1.712h.505v2.5h-.627l-.672-1.751h-.008v1.75h-.505v-2.5h.634zM38.233 29.61c.826 0 .928.54.928 1.3s-.104 1.3-.928 1.3c-.825 0-.927-.54-.927-1.3s.102-1.3.927-1.3zm0 2.227c.325 0 .378-.255.378-.928 0-.669-.053-.928-.378-.928-.324 0-.378.259-.378.928 0 .673.054.928.378.928zM40.304 29.66h1.523v.413h-.974v.589h.917v.413h-.917v1.085h-.55v-2.5zM46.22 29.66v.413h-.596v2.087h-.55v-2.087h-.596v-.413h1.742zM47.274 29.66h.55v.956h.641v-.956h.55v2.5h-.55v-1.11h-.64v1.11h-.55v-2.5zM50.746 29.66h.68l.721 2.5h-.573l-.125-.529h-.726l-.126.53h-.573l.722-2.501zm.072 1.558h.535l-.263-1.124h-.008l-.264 1.124zM53.183 32.16v-2.5h.55v2.5h-.55zM54.959 32.16v-2.5h.55v2.087h.974v.413h-1.524zM58.076 29.66h.68l.721 2.5h-.573l-.125-.529h-.726l-.126.53h-.572l.721-2.501zm.072 1.558h.535l-.263-1.124h-.008l-.264 1.124zM61.12 29.66l.665 1.712h.008V29.66h.505v2.5h-.626l-.673-1.75h-.008v1.75h-.505v-2.5h.635zM63.523 29.66h.902c.764 0 .902.48.902 1.214 0 .886-.206 1.286-.936 1.286h-.868v-2.5zm.55 2.129h.244c.382 0 .459-.22.459-.9 0-.569-.05-.859-.47-.859h-.233v1.759z"/></svg>