<svg xmlns="http://www.w3.org/2000/svg" fill="none" viewBox="0 0 51 16"><path fill="#fff" d="M22.643 7.333c0-3.082.96-4.808 3.471-4.808.71-.01 1.412.158 2.04.49l-.257 1.72a4.537 4.537 0 00-1.696-.358c-.84 0-1.32.302-1.32 2.166v1.505c0 2.023.516 2.41 1.32 2.41a3.693 3.693 0 001.665-.488l.417 1.636a4.355 4.355 0 01-2.225.603c-2.468-.011-3.415-1.847-3.415-4.876zM40.54.958l.412 1.637V8.59a2.104 2.104 0 01-.975.202c-.603 0-.863-.345-.863-1.19V.957h-2.548l.41 1.637v4.503c0 2.583 1.162 3.362 2.454 3.362a3 3 0 001.163-.202l.56-.933.443.964h1.494V.96h-2.55zM11.42 2.684l.412 1.637v5.996a2.105 2.105 0 01-.976.202c-.602 0-.863-.345-.863-1.19V2.683H7.446l.412 1.637v4.506c0 2.58 1.163 3.362 2.455 3.362.397.01.792-.058 1.163-.199l.56-.933.443.961h1.494V2.684H11.42zM18.067 12.024l-.4-1.64V4.389c.305-.144.64-.213.977-.202.603 0 .86.345.86 1.191v6.647h2.55l-.412-1.64V5.883c0-2.584-1.162-3.363-2.454-3.363a3.015 3.015 0 00-1.163.202l-.56.933-.446-.961h-1.494v9.342l2.542-.011zM47.464.958h-3.236l.411 1.637V8.66l-.412 1.628h2.55V7.571h.704c1.992 0 3.141-1.003 3.141-3.298S49.473.958 47.464.958zm.933 3.744c0 1.02-.258 1.306-.989 1.306h-.647V2.665h.608c.745 0 1.017.258 1.017 1.25l.011.787zM3.74 2.684H.5l.412 1.637v6.066L.5 12.027h2.55V9.3h.703c1.995 0 3.141-1.006 3.141-3.3 0-2.296-1.146-3.316-3.155-3.316zm.932 3.744c0 1.02-.26 1.306-.992 1.306h-.644v-3.33h.62c.745 0 1.02.259 1.02 1.25l-.004.774zM35.429 4.32l.412-1.636h-2.945l.409 1.637V6.4h-1.908V4.32l.412-1.636h-2.962l.412 1.637v6.066l-.412 1.64h2.961l-.411-1.64V8.123h1.908v2.264l-.41 1.64h2.946l-.412-1.64V4.321zM35.84 13.744H.5v1.718h35.34v-1.718z"/><path fill="#fff" d="M50.37 12.024H35.84v1.723h14.53v-1.723z"/></svg>