<svg xmlns="http://www.w3.org/2000/svg" fill="none" viewBox="0 0 108 40"><path fill="#fff" d="M29.885 16.077a9.589 9.589 0 01-2.273-.256c-.7-.17-1.264-.408-1.695-.713-.18-.125-.269-.246-.269-.363a.45.45 0 01.094-.255l.78-1.224c.081-.117.162-.175.243-.175a.5.5 0 01.255.094c.323.197.69.354 1.103.47.421.108.83.162 1.224.162.332 0 .57-.045.713-.134a.45.45 0 00.229-.417c0-.207-.1-.373-.296-.498-.198-.126-.538-.283-1.023-.47-.905-.35-1.618-.745-2.138-1.184-.52-.449-.78-1.04-.78-1.776 0-.932.323-1.632.968-2.098.655-.475 1.533-.713 2.636-.713.771 0 1.426.067 1.964.202a4.138 4.138 0 011.426.632c.18.125.269.246.269.363 0 .08-.032.166-.094.256l-.78 1.224c-.081.125-.162.188-.242.188-.054 0-.14-.036-.256-.108a2.88 2.88 0 00-.767-.35 3.002 3.002 0 00-.955-.147c-.314 0-.551.044-.713.134a.456.456 0 00-.242.43c0 .162.054.296.162.404.116.108.26.202.43.282.17.072.466.193.888.364.672.269 1.201.529 1.587.78.386.242.677.538.874.888.198.34.296.775.296 1.304 0 .807-.305 1.462-.914 1.964-.601.493-1.502.74-2.704.74zm9.117 0c-1.632 0-2.9-.4-3.806-1.197-.906-.807-1.359-2-1.359-3.578 0-1.587.435-2.78 1.305-3.578.879-.798 2.13-1.197 3.753-1.197.735 0 1.39.072 1.963.215.574.144 1.054.345 1.44.605.107.081.161.17.161.27 0 .08-.04.192-.12.336l-.673 1.156c-.072.126-.157.189-.256.189-.063 0-.166-.036-.31-.108a4.009 4.009 0 00-.793-.296 3.736 3.736 0 00-.955-.107c-.744 0-1.314.215-1.708.645-.395.43-.592 1.054-.592 1.87 0 .807.215 1.43.646 1.87.43.43 1.017.645 1.762.645.645 0 1.237-.134 1.775-.403.144-.072.247-.108.31-.108.098 0 .183.063.255.188l.673 1.157c.08.143.12.256.12.336 0 .099-.053.189-.16.27-.386.26-.87.461-1.453.604a8.294 8.294 0 01-1.978.216zm5.336-.202c-.296 0-.507-.063-.633-.188-.116-.126-.174-.319-.174-.579V7.495c0-.26.058-.452.175-.578.125-.126.336-.188.632-.188h1.6c.305 0 .516.062.632.188.126.117.189.31.189.578v2.664h2.394V7.495c0-.26.058-.452.175-.578.125-.126.336-.188.632-.188h1.6c.305 0 .516.062.633.188.125.117.188.31.188.578v7.613c0 .26-.063.453-.188.579-.117.125-.328.188-.633.188h-1.6c-.296 0-.507-.063-.632-.188-.117-.126-.175-.319-.175-.579v-2.663h-2.394v2.663c0 .26-.063.453-.189.579-.116.125-.327.188-.632.188h-1.6zm13.847.202c-1.596 0-2.806-.413-3.631-1.238-.825-.834-1.238-2.013-1.238-3.537 0-1.525.413-2.7 1.238-3.524.825-.834 2.035-1.251 3.631-1.251 1.596 0 2.807.417 3.632 1.25.825.826 1.237 2 1.237 3.525 0 1.524-.412 2.703-1.237 3.537-.825.825-2.035 1.238-3.632 1.238zm0-2.26c.583 0 1.005-.206 1.265-.619.26-.421.39-1.053.39-1.896 0-.852-.13-1.484-.39-1.897-.26-.412-.682-.618-1.265-.618-.582 0-1.004.206-1.264.618-.26.413-.39 1.045-.39 1.897 0 .843.13 1.475.39 1.896.26.413.682.62 1.264.62zm10.068 2.26c-1.596 0-2.806-.413-3.631-1.238-.825-.834-1.238-2.013-1.238-3.537 0-1.525.413-2.7 1.238-3.524.825-.834 2.035-1.251 3.631-1.251 1.596 0 2.807.417 3.632 1.25.825.826 1.237 2 1.237 3.525 0 1.524-.412 2.703-1.237 3.537-.825.825-2.036 1.238-3.632 1.238zm0-2.26c.583 0 1.005-.206 1.265-.619.26-.421.39-1.053.39-1.896 0-.852-.13-1.484-.39-1.897-.26-.412-.682-.618-1.265-.618-.583 0-1.004.206-1.264.618-.26.413-.39 1.045-.39 1.897 0 .843.13 1.475.39 1.896.26.413.681.62 1.264.62zm6.617 2.058c-.296 0-.507-.063-.633-.188-.116-.126-.174-.319-.174-.579V7.495c0-.26.058-.452.174-.578.126-.126.337-.188.633-.188h1.6c.305 0 .516.062.632.188.126.117.189.31.189.578v6.093h3.134c.287 0 .48.063.578.189.108.116.162.31.162.578v.753c0 .27-.054.467-.162.592-.099.117-.291.175-.578.175H74.87zM12.023 29.077c-1.632 0-2.9-.4-3.806-1.197-.906-.807-1.359-2-1.359-3.578 0-1.57.453-2.758 1.359-3.564.906-.808 2.17-1.211 3.793-1.211.735 0 1.394.072 1.977.215.583.144 1.067.345 1.453.605.107.081.161.17.161.27 0 .08-.04.192-.12.336l-.673 1.156c-.072.126-.157.189-.256.189-.063 0-.166-.036-.31-.108a3.914 3.914 0 00-1.775-.403c-.744 0-1.331.215-1.762.645-.421.422-.632 1.045-.632 1.87 0 .852.18 1.484.538 1.896.359.404.892.606 1.6.606.126 0 .265-.01.418-.027.161-.027.291-.054.39-.081v-1.224h-.861c-.287 0-.484-.054-.592-.161-.099-.117-.148-.31-.148-.579v-.74c0-.268.05-.457.148-.564.108-.117.305-.175.592-.175h2.892c.35 0 .592.08.726.242.135.152.202.399.202.74v3.147c0 .197-.027.35-.08.457-.046.099-.14.202-.283.31-.861.618-2.058.928-3.592.928zm9.497 0c-1.597 0-2.807-.413-3.632-1.238-.825-.834-1.238-2.013-1.238-3.537s.413-2.7 1.238-3.524c.825-.834 2.035-1.251 3.631-1.251 1.597 0 2.807.417 3.632 1.25.825.826 1.238 2 1.238 3.525 0 1.524-.413 2.703-1.238 3.537-.825.825-2.035 1.238-3.631 1.238zm0-2.26c.582 0 1.004-.206 1.264-.619.26-.421.39-1.053.39-1.896 0-.852-.13-1.484-.39-1.897-.26-.412-.682-.618-1.264-.618-.583 0-1.005.206-1.265.618-.26.413-.39 1.045-.39 1.897 0 .843.13 1.475.39 1.896.26.413.682.62 1.265.62zm8.655 2.058c-.198 0-.35-.036-.458-.108-.098-.08-.183-.215-.255-.403l-3.215-8.057a.853.853 0 01-.067-.296c0-.188.098-.282.296-.282h2.528c.278 0 .453.12.525.363l1.372 4.385 1.372-4.385c.072-.242.246-.363.524-.363h2.53c.196 0 .295.094.295.282 0 .08-.022.18-.067.296l-3.201 8.057c-.072.188-.162.323-.27.403-.098.072-.246.108-.443.108h-1.466zm7.201 0c-.296 0-.506-.063-.632-.188-.117-.126-.175-.319-.175-.579v-7.613c0-.26.058-.453.175-.578.126-.126.336-.188.632-.188h5.569c.287 0 .48.063.578.188.108.117.161.31.161.578v.754c0 .269-.053.466-.16.591-.1.117-.292.175-.58.175h-3.147v1.157h1.937c.287 0 .48.063.579.188.107.117.161.31.161.579v.726c0 .269-.054.466-.161.592-.1.116-.292.175-.579.175h-1.937v1.156h3.134c.287 0 .48.063.579.189.107.116.161.31.161.578v.753c0 .27-.054.467-.161.592-.099.117-.292.175-.579.175h-5.555zm7.993 0c-.296 0-.507-.063-.632-.188-.117-.126-.175-.319-.175-.579v-7.613c0-.26.058-.453.175-.578.125-.126.336-.188.632-.188h3.214c1.346 0 2.323.269 2.933.807.618.529.928 1.331.928 2.407 0 .646-.112 1.193-.337 1.641-.215.44-.551.785-1.008 1.036l1.25 2.677a.535.535 0 01.054.242c0 .098-.035.18-.107.242a.345.345 0 01-.256.094h-2.273a.954.954 0 01-.35-.054.386.386 0 01-.175-.215l-.995-2.502h-.457v2.004c0 .26-.063.453-.188.579-.117.125-.328.188-.633.188h-1.6zm2.932-5.017c.287 0 .511-.076.672-.229.17-.152.256-.38.256-.686 0-.314-.085-.547-.255-.7-.162-.151-.386-.228-.673-.228h-.915v1.843h.915zm5.888 5.017c-.296 0-.507-.063-.632-.188-.117-.126-.175-.319-.175-.579v-7.626c0-.26.058-.448.175-.565.125-.126.34-.188.645-.188h1.278c.188 0 .332.027.43.08.108.045.211.14.31.283l2.434 3.618v-3.215c0-.26.059-.453.175-.578.126-.126.337-.188.632-.188h1.601c.305 0 .516.063.632.188.126.117.188.31.188.578v7.627c0 .26-.062.453-.188.578-.116.117-.327.175-.632.175h-1.278c-.188 0-.336-.022-.444-.067a.92.92 0 01-.296-.296l-2.434-3.618v3.228c0 .26-.063.453-.188.578-.117.117-.328.175-.633.175h-1.6zm8.933 0c-.197 0-.296-.094-.296-.282 0-.081.022-.18.067-.296l3.35-8.057c.08-.188.17-.318.268-.39.108-.081.256-.121.444-.121h1.466c.189 0 .332.04.43.12.108.073.203.203.283.39l3.336 8.058a.855.855 0 01.067.296c0 .188-.098.282-.296.282h-2.528c-.278 0-.453-.121-.525-.363l-.323-.995h-2.38l-.31.995c-.072.242-.246.363-.524.363h-2.53zm5.084-3.484l-.524-1.667-.525 1.667h1.05zm6.08 3.484c-.297 0-.508-.063-.633-.188-.117-.126-.175-.319-.175-.579v-7.626c0-.26.058-.448.175-.565.125-.126.34-.188.646-.188h1.277c.189 0 .332.027.43.08.108.045.212.14.31.283l2.435 3.618v-3.215c0-.26.058-.453.174-.578.126-.126.337-.188.633-.188h1.6c.305 0 .516.063.632.188.126.117.189.31.189.578v7.627c0 .26-.063.453-.189.578-.116.117-.327.175-.632.175H79.88c-.188 0-.336-.022-.443-.067a.92.92 0 01-.296-.296l-2.435-3.618v3.228c0 .26-.063.453-.188.578-.117.117-.327.175-.632.175h-1.6zm13.801.202c-1.632 0-2.9-.4-3.806-1.197-.906-.807-1.359-2-1.359-3.578 0-1.587.435-2.78 1.305-3.578.879-.798 2.13-1.197 3.753-1.197.735 0 1.39.072 1.963.215.574.144 1.054.345 1.44.605.107.081.161.17.161.27 0 .08-.04.192-.121.336l-.672 1.156c-.072.126-.157.189-.256.189-.063 0-.166-.036-.31-.108a4.015 4.015 0 00-.793-.296 3.738 3.738 0 00-.955-.107c-.744 0-1.314.215-1.708.645-.395.43-.592 1.054-.592 1.87 0 .807.215 1.43.646 1.87.43.43 1.017.645 1.762.645.645 0 1.237-.134 1.775-.403.144-.072.247-.108.31-.108.098 0 .183.063.255.188l.672 1.157c.081.143.122.256.122.336 0 .099-.054.189-.162.27-.385.26-.87.461-1.453.604a8.292 8.292 0 01-1.977.216zm5.336-.202c-.296 0-.507-.063-.633-.188-.116-.126-.174-.319-.174-.579v-7.613c0-.26.058-.453.174-.578.126-.126.337-.188.633-.188h5.568c.287 0 .48.063.579.188.107.117.16.31.16.578v.754c0 .269-.053.466-.16.591-.1.117-.292.175-.579.175h-3.147v1.157h1.937c.286 0 .48.063.578.188.108.117.161.31.161.579v.726c0 .269-.053.466-.161.592-.099.116-.291.175-.578.175h-1.937v1.156h3.134c.287 0 .48.063.578.189.108.116.161.31.161.578v.753c0 .27-.053.467-.161.592-.099.117-.291.175-.578.175h-5.555z"/><path stroke="#fff" stroke-width="1.703" d="M107.148 20c0 2.426-1.324 4.843-3.953 7.144-2.626 2.3-6.476 4.41-11.307 6.2-9.655 3.576-23.05 5.804-37.888 5.804-14.838 0-28.233-2.228-37.888-5.804-4.83-1.79-8.68-3.9-11.307-6.2C2.176 24.843.852 22.426.852 20s1.324-4.843 3.953-7.144c2.626-2.3 6.476-4.41 11.307-6.2C25.767 3.08 39.162.852 54 .852c14.838 0 28.233 2.228 37.888 5.804 4.83 1.79 8.681 3.9 11.307 6.2 2.629 2.301 3.953 4.718 3.953 7.144z"/></svg>