<?xml version="1.0" standalone="no"?>
<!DOCTYPE svg PUBLIC "-//W3C//DTD SVG 20010904//EN"
 "http://www.w3.org/TR/2001/REC-SVG-20010904/DTD/svg10.dtd">
<svg version="1.0" xmlns="http://www.w3.org/2000/svg"
 width="512.000000pt" height="512.000000pt" viewBox="0 0 512.000000 512.000000"
 preserveAspectRatio="xMidYMid meet">
<metadata>
Created by potrace 1.14, written by Peter Selinger 2001-2017
</metadata>
<g transform="translate(0.000000,512.000000) scale(0.100000,-0.100000)"
fill="#000000" stroke="none">
<path d="M2469 4167 c-59 -55 -253 -234 -329 -303 -25 -23 -72 -67 -105 -98
l-60 -56 -384 3 c-372 2 -384 3 -395 22 -63 114 -177 209 -296 246 -194 62
-405 1 -539 -154 -72 -85 -108 -171 -117 -287 -6 -73 -27 -124 -161 -398 -57
-117 -82 -179 -78 -192 8 -24 3 -22 85 -26 36 -1 71 -3 78 -3 9 -1 12 -208 12
-999 0 -763 3 -1001 12 -1010 9 -9 548 -12 2365 -12 2315 0 2352 0 2363 19 7
13 10 350 10 1020 l0 1001 23 1 c12 1 38 1 57 0 105 -3 129 24 87 100 -13 24
-66 125 -117 224 -126 244 -221 427 -233 446 -10 16 -80 17 -837 17 l-827 0
-35 33 c-20 19 -122 117 -228 219 -107 102 -206 197 -222 213 -41 39 -65 34
-129 -26z m-1576 -361 c232 -113 260 -432 52 -582 -22 -16 -42 -29 -45 -30 -3
0 -17 -6 -31 -12 -52 -21 -111 -33 -137 -27 -15 3 -38 8 -52 11 -41 9 -43 9
-91 32 -51 24 -118 91 -147 149 -94 184 3 414 203 480 63 20 185 10 248 -21z"/>
</g>
</svg>
