<?xml version="1.0" standalone="no"?>
<!DOCTYPE svg PUBLIC "-//W3C//DTD SVG 20010904//EN"
 "http://www.w3.org/TR/2001/REC-SVG-20010904/DTD/svg10.dtd">
<svg version="1.0" xmlns="http://www.w3.org/2000/svg"
 width="512.000000pt" height="512.000000pt" viewBox="0 0 512.000000 512.000000"
 preserveAspectRatio="xMidYMid meet">
<metadata>
Created by potrace 1.14, written by Peter Selinger 2001-2017
</metadata>
<g transform="translate(0.000000,512.000000) scale(0.100000,-0.100000)"
fill="#000000" stroke="none">
<path d="M2271 3985 l-268 -265 -790 0 -790 0 -37 -82 c-21 -46 -81 -180 -133
-298 -52 -118 -108 -244 -124 -279 -16 -35 -29 -65 -29 -67 0 -2 37 -4 83 -6
l82 -3 3 -1057 2 -1058 2285 0 2285 0 0 1070 0 1070 90 0 c50 0 90 3 89 8 0 4
-78 167 -173 362 l-172 355 -811 3 -810 2 -248 255 c-136 140 -251 255 -256
255 -6 0 -130 -119 -278 -265z m-1248 -526 c21 -5 52 -22 68 -37 l30 -27 -25
-24 -25 -24 -31 27 c-39 32 -87 34 -124 5 -37 -29 -33 -44 24 -67 34 -14 51
-28 55 -44 3 -13 4 -88 3 -168 l-3 -145 -42 -3 -42 -3 -3 152 -3 151 -45 18
c-50 19 -59 39 -40 94 18 55 84 103 145 105 11 1 37 -4 58 -10z m2095 -196
l-3 -98 -177 -3 -178 -2 0 32 c0 45 30 91 73 111 44 21 138 22 177 2 l30 -16
0 36 c0 34 1 35 40 35 l41 0 -3 -97z m-1523 -172 c59 -27 71 -45 51 -76 -9
-14 -19 -25 -22 -25 -3 0 -21 12 -40 26 -58 45 -167 35 -195 -17 -6 -11 -9
-22 -7 -24 2 -2 39 -7 83 -10 145 -12 165 -32 165 -165 0 -73 -3 -83 -25 -105
-32 -33 -98 -35 -132 -3 -46 43 -16 138 43 138 27 0 37 13 29 39 -6 20 -11 21
-179 37 l-69 6 7 51 c7 64 29 95 86 125 56 28 147 30 205 3z m540 -6 c25 -24
25 -26 25 -215 l0 -190 -93 0 -92 0 -68 148 c-37 81 -67 151 -67 155 0 5 19 7
42 5 l42 -3 55 -122 c48 -104 59 -123 79 -123 21 0 22 3 22 105 0 103 -1 105
-23 105 -74 0 -100 99 -38 147 28 22 89 16 116 -12z m920 6 c59 -27 71 -45 51
-76 -9 -14 -19 -25 -22 -25 -3 0 -21 12 -40 26 -58 45 -167 35 -195 -17 -6
-11 -9 -22 -7 -24 2 -2 39 -7 83 -10 145 -12 165 -32 165 -165 0 -73 -3 -83
-25 -105 -32 -33 -98 -35 -132 -3 -46 43 -16 138 43 138 27 0 37 13 29 39 -6
20 -11 21 -179 37 l-69 6 7 51 c7 64 29 95 86 125 56 28 147 30 205 3z m450
-6 c50 -49 15 -135 -55 -135 -51 0 -30 -25 23 -28 46 -3 47 -4 47 -38 0 -32
-2 -34 -32 -34 -83 0 -92 -96 -12 -116 39 -10 97 3 117 27 15 18 17 44 17 180
l0 159 40 0 40 0 0 -160 c0 -193 -8 -221 -72 -250 -51 -23 -153 -26 -202 -6
-72 30 -100 113 -52 161 l23 23 -20 21 c-14 13 -22 37 -25 75 -8 95 27 146
101 146 27 0 45 -7 62 -25z m520 0 c24 -23 25 -28 25 -179 l0 -155 73 34 72
33 3 141 3 141 39 0 40 0 0 -135 c0 -80 4 -135 10 -135 22 0 50 -45 50 -81 0
-29 -6 -42 -26 -58 -49 -38 -128 -22 -146 30 -4 11 -17 8 -62 -13 -32 -16 -73
-28 -96 -28 l-40 0 0 135 0 135 -29 0 c-36 0 -71 40 -71 82 0 71 103 106 155
53z m-1515 -120 l0 -135 25 0 c14 0 37 -11 50 -25 54 -53 15 -135 -65 -135
-30 0 -47 6 -65 25 -25 24 -25 26 -25 215 l0 190 40 0 40 0 0 -135z m-1418
-85 c87 -27 153 -72 204 -143 58 -79 77 -145 72 -255 -3 -68 -9 -100 -30 -144
-36 -77 -107 -151 -182 -188 -40 -21 -63 -38 -66 -53 -4 -15 -15 -23 -33 -25
-26 -3 -27 -6 -27 -63 l0 -59 30 0 31 0 -3 -57 c-3 -55 -4 -58 -30 -61 -27 -3
-28 -5 -28 -63 0 -59 0 -59 30 -59 29 0 30 -1 30 -50 0 -49 -1 -50 -30 -50
-29 0 -30 -1 -30 -50 0 -49 1 -50 30 -50 27 0 30 -3 30 -31 0 -23 -5 -32 -21
-36 -17 -5 -20 -11 -15 -37 11 -54 58 -118 105 -143 54 -28 129 -30 186 -4 65
29 71 42 44 98 -23 47 -24 55 -27 368 -3 370 -10 345 100 345 112 0 108 10
108 -299 0 -247 1 -260 19 -266 31 -10 89 -80 102 -124 l12 -41 71 0 c87 0
147 25 176 72 19 32 20 49 20 463 0 373 2 433 16 453 13 20 24 22 94 22 110 0
110 0 110 -167 0 -125 1 -135 18 -128 42 16 152 35 212 35 127 0 288 -42 313
-82 12 -18 -1 -57 -32 -97 l-18 -24 -59 23 c-64 24 -222 38 -289 26 -93 -18
-114 -121 -36 -173 44 -28 291 -112 291 -98 0 7 -7 32 -15 55 -11 32 -12 46
-4 56 14 17 142 59 160 52 8 -3 29 -52 48 -109 18 -57 42 -114 53 -125 24 -27
47 -102 41 -135 -5 -29 32 -88 67 -106 38 -20 139 -16 180 6 63 33 100 139
100 286 0 208 -56 293 -185 281 -33 -3 -72 -8 -88 -12 -24 -6 -29 -2 -41 27
-8 19 -17 50 -21 70 -7 35 -6 37 37 54 62 26 200 32 270 11 62 -18 134 -75
169 -134 12 -20 24 -39 26 -41 2 -3 10 4 18 15 17 25 113 48 161 39 34 -6 43
2 23 22 -7 7 -2 22 16 49 24 34 26 47 23 104 -4 77 -29 120 -88 150 -116 59
-279 -18 -280 -133 0 -28 0 -28 -62 -25 l-63 3 3 45 c11 182 215 292 435 235
136 -35 195 -117 185 -256 l-5 -68 31 7 c17 4 90 7 161 7 112 0 136 -3 172
-21 l43 -21 57 105 c32 58 66 110 75 116 21 13 42 -5 145 -127 57 -69 71 -92
63 -102 -6 -7 -62 -26 -125 -41 -102 -25 -113 -30 -101 -43 8 -9 24 -36 37
-61 24 -45 24 -46 22 -350 -3 -298 -3 -305 -24 -322 -28 -23 -125 -25 -157 -2
-21 15 -22 21 -22 180 l0 164 -117 0 c-219 -1 -285 -21 -296 -93 -6 -43 1 -57
28 -57 25 0 49 -24 60 -59 7 -22 11 -23 59 -18 28 3 60 7 71 9 16 2 23 -7 37
-52 10 -30 16 -60 14 -67 -3 -7 -29 -19 -58 -27 -42 -12 -104 -15 -291 -13
l-239 2 -24 28 c-16 18 -24 41 -24 63 l0 36 -50 -46 c-79 -70 -141 -90 -285
-90 -104 -1 -127 2 -171 22 -28 13 -66 39 -84 57 l-33 34 -36 -29 c-55 -44
-117 -68 -209 -79 -106 -13 -260 1 -357 34 -58 19 -72 21 -90 10 -11 -7 -45
-21 -75 -31 -78 -27 -290 -27 -377 0 l-62 19 -38 -33 c-109 -96 -283 -112
-429 -40 -71 35 -111 81 -146 170 -21 52 -23 74 -28 425 -4 204 -7 371 -8 372
-1 1 -27 13 -57 27 -71 32 -154 111 -189 179 -96 190 -23 427 163 525 103 55
196 65 303 32z m1548 -417 c16 -9 37 -32 47 -50 10 -18 21 -33 25 -33 20 0 48
-43 48 -74 0 -56 -27 -79 -99 -84 l-61 -4 0 41 c0 29 4 41 14 41 28 0 28 22 0
51 -35 36 -43 36 -78 1 -23 -25 -25 -31 -12 -41 8 -7 20 -10 26 -6 8 5 10 -7
8 -37 l-3 -43 -56 -3 c-68 -4 -109 22 -109 69 0 28 30 69 50 69 6 0 10 9 10
19 0 24 46 80 74 91 35 14 86 11 116 -7z"/>
<path d="M2892 3250 c-19 -4 -39 -13 -45 -19 -8 -8 15 -11 87 -11 100 0 117
10 48 30 -41 11 -44 11 -90 0z"/>
<path d="M1514 2766 c-9 -24 4 -48 23 -44 12 2 18 12 18 28 0 29 -32 41 -41
16z"/>
<path d="M2057 3053 c-13 -12 -7 -44 9 -50 21 -8 35 16 23 39 -10 19 -21 23
-32 11z"/>
<path d="M2974 2766 c-9 -24 4 -48 23 -44 12 2 18 12 18 28 0 29 -32 41 -41
16z"/>
<path d="M3424 3046 c-9 -24 4 -48 23 -44 12 2 18 12 18 28 0 29 -32 41 -41
16z"/>
<path d="M3934 3046 c-9 -24 4 -48 23 -44 12 2 18 12 18 28 0 29 -32 41 -41
16z"/>
<path d="M4227 2767 c-8 -22 17 -51 37 -44 25 10 17 51 -10 55 -12 2 -24 -3
-27 -11z"/>
<path d="M2504 2766 c-9 -24 4 -48 23 -44 12 2 18 12 18 28 0 29 -32 41 -41
16z"/>
<path d="M925 2794 c-122 -31 -202 -109 -231 -227 -70 -282 285 -477 492 -270
108 107 113 283 12 398 -22 25 -62 57 -89 71 -48 24 -142 38 -184 28z"/>
<path d="M3789 1930 c-20 -5 -60 -19 -90 -30 -49 -20 -54 -20 -65 -5 -11 15
-16 12 -41 -26 -26 -39 -28 -51 -31 -156 l-4 -114 26 26 c67 67 185 94 410 95
l139 0 -7 63 c-6 65 -23 96 -70 131 -22 17 -44 21 -129 23 -56 1 -118 -2 -138
-7z"/>
<path d="M2435 1591 l-16 -50 -67 25 c-37 14 -87 34 -111 45 -24 10 -45 19
-47 19 -2 0 -4 -38 -4 -83 0 -46 -6 -105 -14 -130 -8 -26 -11 -49 -6 -52 17
-10 137 -35 173 -35 34 0 37 -2 37 -30 0 -16 2 -30 5 -30 3 0 29 15 57 34 l51
35 51 -20 c79 -32 78 -32 57 44 l-18 63 29 33 c42 47 35 65 -29 69 -52 3 -52
4 -83 58 -17 29 -35 54 -40 54 -5 0 -16 -22 -25 -49z"/>
</g>
</svg>
