<svg xmlns="http://www.w3.org/2000/svg" fill="none" viewBox="0 0 16 16"><path fill="#3C55AB" d="M12.29 8.577c-.857-.255-1.844-.598-2.774-1.384L8.71 8l4.346 4.347a6.626 6.626 0 001.436-2.816l-.005-.005-.005-.006c-.227-.227-.52-.391-.893-.536-.312-.115-.63-.216-.95-.304l-.349-.103zm.06-5.632L9.518 5.776c-.614-.75-.9-1.555-1.138-2.35l-.09-.313a13.165 13.165 0 00-.342-1.062 4.255 4.255 0 00-.344-.706 6.65 6.65 0 014.744 1.6zm.706.707l-2.83 2.83c.75.614 1.553.9 2.35 1.137l.311.092c.36.104.727.211 1.062.34.242.094.481.205.707.345a6.651 6.651 0 00-1.6-4.743v-.001zM6.48 1.52l-.01-.01a6.627 6.627 0 00-2.817 1.435l4.348 4.348.807-.807c-.787-.93-1.13-1.917-1.385-2.775l-.102-.348c-.088-.32-.19-.638-.304-.95-.145-.374-.31-.666-.536-.893zM1.42 6.925a6.631 6.631 0 011.527-3.272L7.293 8l-.725.727C5.585 7.93 4.441 7.649 3.46 7.453l-.4-.079a12.662 12.662 0 01-1.097-.245 3.239 3.239 0 01-.542-.203zm-.086 1.05a6.646 6.646 0 001.612 4.373l2.91-2.91c-.761-.582-1.665-.82-2.593-1.006l-.362-.07c-.415-.08-.838-.163-1.217-.273a5.058 5.058 0 01-.35-.114zm5.23 2.168l-2.91 2.912a6.647 6.647 0 004.504 1.61 4.1 4.1 0 01-.245-.621c-.11-.356-.193-.75-.273-1.133l-.07-.332c-.185-.85-.42-1.689-1.005-2.436zm2.699 4.404a6.63 6.63 0 003.085-1.492L8.001 8.707l-.725.725c.789.96 1.072 2.021 1.27 2.934l.08.373c.078.372.147.702.242 1.008.105.336.228.597.395.8z"/></svg>