<svg xmlns="http://www.w3.org/2000/svg" fill="none" viewBox="0 0 26 26"><path fill="#fff" d="M12.552 1.908a.5.5 0 01.896 0l3.298 6.682a.5.5 0 00.376.273l7.376 1.078a.5.5 0 01.277.853l-5.336 5.197a.5.5 0 00-.144.443l1.259 7.342a.5.5 0 01-.726.527l-6.595-3.468a.5.5 0 00-.466 0l-6.595 3.468a.5.5 0 01-.726-.527l1.26-7.342a.5.5 0 00-.144-.443l-5.337-5.197a.5.5 0 01.277-.853l7.376-1.078a.5.5 0 00.376-.273l3.298-6.682z"/><ellipse cx="10" cy="12.75" fill="#3C55AB" rx="1" ry="1.75"/><ellipse cx="16" cy="12.75" fill="#3C55AB" rx="1" ry="1.75"/><path stroke="#3C55AB" stroke-linecap="round" stroke-width=".75" d="M13 16.25l-.833 1.154c-.092.128-.242.128-.334 0L11 16.25M15 16.25l-.833 1.154c-.092.128-.242.128-.334 0L13 16.25"/></svg>