<svg xmlns="http://www.w3.org/2000/svg" fill="none" viewBox="0 0 32 32"><g filter="url(#a)"><circle cx="16" cy="15" r="12" fill="#3C55AB"/><circle cx="16" cy="15" r="11" fill="#fff"/><ellipse cx="11.692" cy="13.105" fill="#fff" rx=".781" ry="1.355" transform="rotate(75 11.692 13.105)"/><ellipse cx="20.511" cy="13.105" fill="#fff" rx=".781" ry="1.355" transform="rotate(120 20.51 13.105)"/><ellipse cx="19" cy="11" fill="#3C55AB" rx="1" ry="2"/><path fill="#fff" stroke="#3C55AB" d="M16 15a6 6 0 016 6H10a6 6 0 016-6z"/><ellipse cx="13" cy="11" fill="#3C55AB" rx="1" ry="2"/><path fill="#fff" d="M13 10.5a.5.5 0 11-1 0 .5.5 0 011 0zM19 10.5a.5.5 0 11-1 0 .5.5 0 011 0z"/></g><defs><filter id="a" width="32" height="32" x="0" y="0" color-interpolation-filters="sRGB" filterUnits="userSpaceOnUse"><feFlood flood-opacity="0" result="BackgroundImageFix"/><feColorMatrix in="SourceAlpha" result="hardAlpha" values="0 0 0 0 0 0 0 0 0 0 0 0 0 0 0 0 0 0 127 0"/><feOffset dy="1"/><feGaussianBlur stdDeviation="2"/><feComposite in2="hardAlpha" operator="out"/><feColorMatrix values="0 0 0 0 0.0471588 0 0 0 0 0.0843619 0 0 0 0 0.419189 0 0 0 0.2 0"/><feBlend in2="BackgroundImageFix" result="effect1_dropShadow_884_23165"/><feBlend in="SourceGraphic" in2="effect1_dropShadow_884_23165" result="shape"/></filter></defs></svg>