<svg xmlns="http://www.w3.org/2000/svg" fill="none" viewBox="0 0 73 49"><g filter="url(#a)"><path stroke="#FA7CC7" stroke-width="2" d="M67.503 21.011c.44 5.035-2.415 10.029-7.71 14.02-5.281 3.98-12.87 6.853-21.516 7.61-8.646.756-16.618-.756-22.51-3.759-5.908-3.01-9.587-7.433-10.028-12.467-.44-5.035 2.416-10.03 7.71-14.02 5.282-3.98 12.87-6.853 21.516-7.61 8.646-.756 16.619.755 22.511 3.758 5.907 3.011 9.587 7.434 10.027 12.468z"/><path fill="#FA7CC7" d="M16.224 31.52c-.265.024-.462-.006-.59-.088-.129-.096-.231-.275-.308-.536l-2.8-8.83a1.692 1.692 0 01-.064-.275c-.028-.319.15-.495.536-.528l2.59-.227c.279-.024.476.012.592.109.129.096.224.268.286.517l.877 3.376.498-2.573c.05-.205.123-.359.22-.461.112-.103.274-.164.487-.183l1.335-.117c.212-.018.376.014.49.098.127.07.232.207.317.414l1.096 2.433.12-3.463c.005-.241.063-.42.173-.537.109-.13.303-.207.582-.232l2.59-.227c.385-.033.592.11.62.428.004.053 0 .147-.016.283l-1.224 9.181c-.03.27-.1.464-.21.58-.112.104-.294.167-.546.19l-2.212.192c-.199.018-.362-.008-.488-.077-.127-.07-.225-.201-.296-.396l-1.188-3.249-.625 3.408c-.036.204-.11.35-.222.44-.113.09-.269.145-.468.162l-2.152.188zM32.959 30.358c-3.586.313-5.497-.871-5.732-3.555l-.123-1.414c-.034-.385.027-.678.184-.88.17-.202.473-.322.912-.36l3.387-.297c.305-.026.516.015.633.126.13.109.208.31.233.601l.101 1.156c.026.292-.016.503-.125.633-.096.13-.296.207-.602.234l-.478.042c.015.172.086.293.212.363.14.054.375.067.706.038.372-.032.66-.118.861-.256.216-.14.363-.373.441-.701.077-.341.09-.81.037-1.409-.067-.77-.274-1.3-.62-1.591-.335-.306-.888-.425-1.658-.357a5.076 5.076 0 00-1.28.292c-.428.145-.796.304-1.102.478-.23.127-.378.194-.444.2-.146.012-.28-.07-.403-.246l-1.146-1.627c-.139-.202-.213-.369-.225-.502-.014-.16.055-.292.206-.4.525-.42 1.257-.772 2.196-1.055.938-.296 1.925-.49 2.961-.58 1.9-.166 3.38.16 4.442.976 1.062.818 1.674 2.15 1.835 3.996.16 1.833-.23 3.266-1.17 4.298-.94 1.033-2.353 1.631-4.24 1.797zM42.27 29.242c-.438.038-.758-.028-.96-.197-.19-.171-.3-.45-.334-.834l-.462-5.28c-.05-.571.026-1.08.228-1.526.215-.447.543-.978.985-1.592.335-.457.576-.833.724-1.127.16-.309.227-.622.2-.941-.016-.173-.06-.296-.134-.37-.06-.088-.171-.125-.33-.112-.226.02-.369.153-.427.4-.06.232-.073.547-.038.946.024.279-.09.43-.342.451l-3.088.27c-.24.022-.371-.107-.395-.386-.117-1.329.163-2.417.838-3.266.675-.849 1.83-1.344 3.464-1.487 1.554-.136 2.733.035 3.538.513.818.477 1.275 1.267 1.371 2.37.05.558-.008 1.044-.173 1.46-.164.416-.422.914-.773 1.493a9.29 9.29 0 00-.71 1.287c-.143.36-.194.773-.153 1.238l.262 2.989.259-.023c.305-.027.516.015.633.125.13.11.208.31.233.602l.157 1.793c.026.293-.016.504-.125.634-.096.129-.297.206-.602.233l-3.845.337zM54.111 28.507c-1.726.15-3.103-.063-4.131-.643-1.015-.58-1.576-1.495-1.686-2.743l-.057-.657c-.053-.598.02-1.14.219-1.626.198-.486.512-.881.94-1.186l-.014-.16-.677.06c-.306.026-.523-.015-.654-.124-.116-.11-.187-.311-.213-.604l-.157-1.793c-.025-.292.01-.502.105-.631.11-.13.317-.209.622-.235l3.407-.299c.439-.038.752.028.941.2.203.169.32.446.354.832l.164 1.872c.021.24.024.433.01.582a.748.748 0 01-.185.397c-.145.187-.223.361-.236.523-.012.162 0 .462.039.9l.117 1.335c.042.478.302.696.78.654.226-.02.4-.088.524-.206.122-.131.172-.323.15-.575l-.136-1.554a1.45 1.45 0 00-.101-.473.663.663 0 00-.226-.282.96.96 0 01-.218-.202.646.646 0 01-.061-.235l-.117-1.335c-.008-.093 0-.16.023-.203a.625.625 0 01.105-.17.907.907 0 00.146-.173.704.704 0 00.166-.396c.027-.15.028-.364.004-.643l-.07-.797c-.019-.212.002-.355.063-.427.073-.086.202-.138.388-.154l3.646-.32c.213-.018.349.01.41.086.071.06.116.183.132.37.061.703.013 1.296-.146 1.779-.158.482-.472.878-.94 1.186.502.224.869.52 1.102.888.231.354.375.85.431 1.488l.084.956c.073.837-.075 1.6-.443 2.287-.356.674-.93 1.226-1.722 1.657-.779.43-1.74.694-2.882.794zM54.085 16.584c-.425.037-.718-.024-.88-.184-.175-.172-.28-.457-.315-.856l-.053-.598-.677.06c-.425.037-.718-.025-.88-.184-.175-.172-.28-.458-.315-.856l-.063-.717c-.035-.399.02-.692.164-.878.13-.199.407-.317.832-.354l2.53-.221c.426-.038.726.03.902.202.161.16.26.439.294.837l.07.797c1.261-.27 2.224-.435 2.888-.493.292-.026.503.016.633.125.117.11.187.298.21.564l.1 1.136c.034.398-.013.697-.143.895-.144.187-.429.299-.854.336l-4.443.389z"/></g><defs><filter id="a" width="75.243" height="53.426" x="-1" y="-2" color-interpolation-filters="sRGB" filterUnits="userSpaceOnUse"><feFlood flood-opacity="0" result="BackgroundImageFix"/><feColorMatrix in="SourceAlpha" result="hardAlpha" values="0 0 0 0 0 0 0 0 0 0 0 0 0 0 0 0 0 0 127 0"/><feOffset dy="1"/><feGaussianBlur stdDeviation="2"/><feComposite in2="hardAlpha" operator="out"/><feColorMatrix values="0 0 0 0 0.0471588 0 0 0 0 0.0843619 0 0 0 0 0.419189 0 0 0 0.2 0"/><feBlend in2="BackgroundImageFix" result="effect1_dropShadow_971_36967"/><feBlend in="SourceGraphic" in2="effect1_dropShadow_971_36967" result="shape"/></filter></defs></svg>