<svg xmlns="http://www.w3.org/2000/svg" fill="none" viewBox="0 0 73 49"><g filter="url(#a)"><path stroke="#FA7CC7" stroke-width="2" d="M67.503 21.011c.44 5.035-2.415 10.029-7.71 14.02-5.281 3.98-12.87 6.853-21.516 7.61-8.646.756-16.618-.756-22.51-3.759-5.908-3.01-9.587-7.433-10.028-12.467-.44-5.035 2.416-10.03 7.71-14.02 5.282-3.98 12.87-6.853 21.516-7.61 8.646-.756 16.619.755 22.511 3.758 5.907 3.011 9.587 7.434 10.027 12.468z"/><path fill="#FA7CC7" d="M34.68 31.83c-1.417.125-2.55-.284-3.398-1.226-.848-.941-1.346-2.267-1.496-3.976-.183-2.09.253-3.755 1.308-4.995 1.053-1.256 2.72-1.983 4.998-2.182 2.192-.192 3.854.126 4.987.955 1.132.828 1.768 2.039 1.907 3.631l.476 5.436c.037.423-.038.746-.224.969-.172.22-.507.353-1.004.397l-2.608.228c-.482.042-.834-.03-1.056-.217-.208-.188-.33-.494-.368-.917l-.454-5.195c-.05-.57-.182-.985-.396-1.246-.216-.275-.528-.395-.937-.36-.556.05-.951.32-1.188.811-.222.49-.284 1.298-.186 2.424.127 1.446.46 2.146 1.001 2.098.22-.019.413-.073.582-.161a.306.306 0 01.13-.033c.175-.016.294.084.357.3l.565 1.916c.046.187.044.327-.007.42-.052.078-.177.17-.373.275a6.464 6.464 0 01-1.157.41c-.374.107-.86.186-1.459.239zM33.655 18.803c-.467.04-.79-.027-.967-.203-.193-.19-.31-.503-.348-.941l-.088-1.008c-.038-.439.022-.76.18-.966.144-.218.449-.348.916-.389l5.217-.456-.046-.526c-.041-.468.033-.791.224-.97.174-.192.48-.307.92-.345l1.533-.134c.439-.039.768.02.988.178.204.145.326.45.367.918l.244 2.783c.038.439-.014.767-.157.986-.159.205-.472.328-.94.369l-8.043.704z"/></g><defs><filter id="a" width="75.243" height="53.426" x="-1" y="-2" color-interpolation-filters="sRGB" filterUnits="userSpaceOnUse"><feFlood flood-opacity="0" result="BackgroundImageFix"/><feColorMatrix in="SourceAlpha" result="hardAlpha" values="0 0 0 0 0 0 0 0 0 0 0 0 0 0 0 0 0 0 127 0"/><feOffset dy="1"/><feGaussianBlur stdDeviation="2"/><feComposite in2="hardAlpha" operator="out"/><feColorMatrix values="0 0 0 0 0.0471588 0 0 0 0 0.0843619 0 0 0 0 0.419189 0 0 0 0.2 0"/><feBlend in2="BackgroundImageFix" result="effect1_dropShadow_971_36964"/><feBlend in="SourceGraphic" in2="effect1_dropShadow_971_36964" result="shape"/></filter></defs></svg>