<svg xmlns="http://www.w3.org/2000/svg" fill="none" viewBox="0 0 73 49"><g filter="url(#a)"><path stroke="#FA7CC7" stroke-width="2" d="M67.503 21.011c.44 5.035-2.415 10.029-7.71 14.02-5.281 3.98-12.87 6.853-21.516 7.61-8.646.756-16.618-.756-22.51-3.759-5.908-3.01-9.587-7.433-10.028-12.467-.44-5.035 2.416-10.03 7.71-14.02 5.282-3.98 12.87-6.853 21.516-7.61 8.646-.756 16.619.755 22.511 3.758 5.907 3.011 9.587 7.434 10.027 12.468z"/><path fill="#FA7CC7" d="M12.564 31.044c-3.06.268-4.695-.788-4.903-3.169L7.3 23.747c-.027-.308.022-.543.147-.703.136-.162.379-.258.73-.29l1.896-.165c.362-.032.618.02.769.158.16.125.255.347.283.665l.351 4.017c.032.361.108.617.228.767.13.139.338.195.625.17.298-.026.493-.118.587-.276.093-.158.123-.423.09-.795l-.595-6.806c-.027-.308.022-.543.148-.703.135-.162.378-.258.73-.289l1.896-.166c.361-.032.617.021.768.158.161.125.256.347.284.665l.605 6.918c.208 2.38-1.218 3.704-4.278 3.972zM22.486 30.176c-1.53.134-2.841-.04-3.933-.523-.245-.107-.373-.225-.384-.352a.557.557 0 01.072-.28l.658-1.47c.063-.134.148-.206.254-.215a.756.756 0 01.328.067c.311.134.685.246 1.121.336.436.09.824.12 1.164.09.245-.02.412-.062.503-.123.102-.063.147-.163.135-.301-.012-.139-.101-.238-.267-.298-.157-.072-.459-.164-.908-.274l-.558-.144c-.877-.234-1.524-.53-1.941-.89-.407-.36-.637-.85-.69-1.466-.072-.818.227-1.497.897-2.038.67-.54 1.595-.862 2.775-.965.744-.065 1.381-.057 1.913.025.542.07 1.08.216 1.612.437.235.108.358.231.37.37.007.085-.025.2-.098.345l-.66 1.279c-.073.135-.147.205-.222.212-.032.003-.136-.026-.312-.085a4.155 4.155 0 00-.87-.213 3.436 3.436 0 00-.888-.051c-.574.05-.851.187-.831.41.01.127.144.239.398.334.266.095.644.196 1.135.303l.871.229c.517.158.923.326 1.217.504.294.177.505.394.635.65.14.256.228.586.263.99.045.51-.064.985-.325 1.425-.25.44-.662.813-1.235 1.12-.574.297-1.307.484-2.2.562zM22.341 20.648c-.499.044-.86-.037-1.08-.242-.222-.206-.354-.548-.396-1.026l-.117-1.339c-.03-.34.025-.575.163-.705.127-.14.35-.223.669-.25l1.116-.098c.318-.028.558.015.718.13.148.104.237.327.267.667l.05.573c.397-.11.907-.223 1.528-.342.62-.13 1.154-.213 1.6-.252.34-.03.575.024.705.163.14.127.223.35.251.668l.057.654c.028.319-.015.558-.13.718-.104.148-.327.237-.667.267l-4.734.414zM32.51 29.299c-3.06.268-4.695-.788-4.903-3.169l-.361-4.128c-.027-.308.022-.543.147-.703.136-.162.38-.258.73-.29l1.897-.165c.36-.032.617.02.768.157.161.126.256.348.283.666l.352 4.017c.031.361.107.617.228.767.13.139.338.195.625.17.297-.026.493-.118.586-.276.093-.158.123-.423.091-.795l-.351-4.017c-.027-.308.022-.542.147-.703.136-.162.379-.258.73-.289l1.896-.166c.361-.031.618.021.769.158.16.125.255.347.283.666l.361 4.128c.208 2.38-1.218 3.704-4.278 3.972zM43.133 28.37c-3.06.267-4.694-.789-4.903-3.17l-.36-4.127c-.028-.308.021-.543.146-.704.136-.162.38-.258.73-.289l1.897-.165c.361-.032.617.02.768.157.161.125.256.347.284.666l.351 4.017c.032.36.108.617.228.767.13.138.338.195.625.17.297-.026.493-.118.586-.276.093-.158.124-.423.091-.795l-.595-6.806c-.027-.308.022-.543.147-.704.136-.162.379-.258.73-.288l1.896-.166c.362-.032.618.02.769.157.16.125.255.347.283.666l.605 6.918c.209 2.38-1.218 3.704-4.278 3.972zM53.055 27.502c-1.53.133-2.841-.041-3.932-.524-.245-.107-.373-.224-.385-.352a.556.556 0 01.072-.279l.659-1.47c.063-.135.148-.206.254-.216a.754.754 0 01.327.068c.311.133.685.245 1.122.335.436.09.824.121 1.164.091.244-.021.412-.063.503-.124.102-.062.146-.163.134-.3-.012-.139-.1-.238-.267-.299-.156-.072-.458-.163-.907-.274l-.559-.144c-.877-.233-1.524-.53-1.94-.89-.407-.36-.637-.849-.691-1.465-.072-.818.228-1.498.898-2.038.67-.54 1.595-.862 2.774-.966.744-.065 1.382-.056 1.914.026.541.07 1.078.216 1.612.437.234.108.357.23.37.369.007.085-.026.2-.099.346l-.659 1.278c-.074.135-.148.206-.222.212-.032.003-.136-.025-.313-.085a4.154 4.154 0 00-.87-.213 3.436 3.436 0 00-.888-.05c-.573.05-.85.186-.831.41.011.127.144.238.399.334.265.095.643.195 1.134.302l.872.23c.517.157.922.325 1.216.503.294.178.506.395.635.651.14.256.228.585.264.99a2.33 2.33 0 01-.325 1.425c-.251.44-.663.813-1.236 1.12-.573.296-1.306.483-2.199.561zM55.371 32.326c-.35.03-.596-.017-.735-.144-.14-.127-.224-.35-.252-.67l-.076-.876-.558.05c-.245.02-.408-.013-.49-.102-.094-.089-.151-.25-.172-.483l-.101-1.164c-.02-.234.007-.402.084-.505.066-.102.221-.164.466-.186l2.63-.23c.35-.03.606.022.768.158.151.137.24.359.267.667l.21 2.407c.029.319-.015.553-.13.702-.116.15-.349.24-.7.27l-1.21.106zM62.777 26.651c-1.116.098-1.996-.045-2.64-.428-.633-.383-1.112-.968-1.438-1.753l-1.036-2.479a1.605 1.605 0 01-.113-.376.303.303 0 01.06-.23.9.9 0 01.274-.168l2.304-1.021c.154-.078.279-.12.374-.13a.26.26 0 01.233.093c.07.058.138.165.205.32l1.2 2.882c.094.216.182.375.266.474.093.089.22.126.38.112.201-.018.337-.18.407-.486.07-.305.075-.782.019-1.43-.05-.575-.134-.985-.252-1.231-.118-.247-.289-.36-.512-.341a1.41 1.41 0 00-.518.142.628.628 0 01-.203.066c-.138.011-.247-.07-.326-.245l-.702-1.416a1.044 1.044 0 01-.086-.25c-.009-.095.047-.186.169-.271.385-.248.749-.43 1.092-.546.343-.115.77-.196 1.28-.24 1.073-.094 1.951.21 2.633.91.683.7 1.083 1.73 1.202 3.09.129 1.467-.187 2.63-.947 3.489-.75.847-1.859 1.335-3.325 1.463z"/></g><defs><filter id="a" width="75.243" height="53.426" x="-1" y="-2" color-interpolation-filters="sRGB" filterUnits="userSpaceOnUse"><feFlood flood-opacity="0" result="BackgroundImageFix"/><feColorMatrix in="SourceAlpha" result="hardAlpha" values="0 0 0 0 0 0 0 0 0 0 0 0 0 0 0 0 0 0 127 0"/><feOffset dy="1"/><feGaussianBlur stdDeviation="2"/><feComposite in2="hardAlpha" operator="out"/><feColorMatrix values="0 0 0 0 0.0471588 0 0 0 0 0.0843619 0 0 0 0 0.419189 0 0 0 0.2 0"/><feBlend in2="BackgroundImageFix" result="effect1_dropShadow_971_36966"/><feBlend in="SourceGraphic" in2="effect1_dropShadow_971_36966" result="shape"/></filter></defs></svg>