<svg xmlns="http://www.w3.org/2000/svg" fill="none" viewBox="0 0 73 49"><g filter="url(#a)"><path stroke="#FA7CC7" stroke-width="2" d="M67.503 21.011c.44 5.035-2.415 10.029-7.71 14.02-5.281 3.98-12.87 6.853-21.516 7.61-8.646.756-16.618-.756-22.51-3.759-5.908-3.01-9.587-7.433-10.028-12.467-.44-5.035 2.416-10.03 7.71-14.02 5.282-3.98 12.87-6.853 21.516-7.61 8.646-.756 16.619.755 22.511 3.758 5.907 3.011 9.587 7.434 10.027 12.468z"/><path fill="#FA7CC7" d="M17.565 31.704c-1.288.113-2.318-.259-3.089-1.115-.77-.856-1.224-2.061-1.36-3.615-.166-1.9.23-3.413 1.189-4.541.957-1.141 2.472-1.802 4.544-1.984 1.993-.174 3.504.115 4.533.869 1.03.753 1.608 1.853 1.735 3.301l.432 4.941c.034.385-.034.68-.204.881-.156.201-.46.322-.912.361l-2.371.208c-.438.038-.759-.028-.96-.197-.19-.171-.301-.45-.335-.834l-.413-4.723c-.045-.518-.165-.895-.36-1.132-.196-.25-.48-.36-.852-.327-.505.044-.864.29-1.08.736-.202.447-.258 1.18-.168 2.204.115 1.315.418 1.95.91 1.908.199-.018.375-.067.529-.147a.28.28 0 01.117-.03c.16-.014.268.076.325.272l.514 1.742c.042.17.04.298-.007.382-.047.071-.16.155-.339.25-.36.166-.71.29-1.052.374-.339.096-.781.169-1.326.216zM16.634 19.86c-.425.037-.719-.024-.88-.184-.175-.172-.28-.457-.316-.855l-.08-.917c-.035-.398.02-.691.164-.878.13-.198.408-.316.833-.354l4.742-.414-.042-.479c-.037-.425.03-.718.204-.88.159-.175.437-.28.836-.315l1.394-.122c.399-.035.698.02.898.163.185.13.297.409.334.834l.221 2.53c.035.398-.012.697-.142.896-.145.186-.43.298-.854.335l-7.312.64zM35.122 30.168c-1.394.122-2.528-.14-3.401-.786l-.05.345c-.028.297-.227.462-.6.494l-2.191.192c-.332.03-.598-.028-.798-.171-.188-.158-.296-.402-.325-.735l-.729-8.328c-.035-.398.033-.692.204-.88.17-.203.474-.323.912-.362l2.371-.207c.438-.038.752.028.941.199.202.17.32.447.354.832l.497 5.678c.022.253.112.439.27.559.157.12.375.168.654.143.266-.023.466-.107.6-.253.135-.146.191-.345.17-.597l-.498-5.678c-.035-.399.033-.692.204-.881.17-.203.474-.323.912-.361l2.371-.208c.439-.038.752.028.941.2.203.169.32.446.354.832l.516 5.897c.11 1.248-.174 2.217-.85 2.905-.664.674-1.607 1.064-2.829 1.171zM44.874 29.014c-.332.029-.598-.028-.798-.171-.188-.158-.296-.403-.325-.735l-.45-5.14c-.042-.478-.15-.803-.326-.975-.176-.172-.456-.242-.841-.208-.359.032-.728.17-1.108.418-.178.11-.307.168-.386.175-.146.012-.246-.06-.3-.215l-.784-2.3a1.651 1.651 0 01-.09-.334c-.008-.106.057-.199.197-.278a7.26 7.26 0 011.395-.584 8.722 8.722 0 011.76-.315c1.673-.146 2.932.092 3.776.714.844.622 1.329 1.65 1.454 3.085l.485 5.539c.029.332-.042.592-.213.781-.159.175-.404.277-.736.306l-2.71.237zM51.788 28.409c-.438.038-.759-.027-.96-.197-.19-.171-.301-.449-.335-.834l-.457-5.22-.465-.963c-.163-.334-.254-.6-.271-.8-.02-.239.104-.497.374-.775.54-.556 1.313-1.059 2.317-1.508a9.687 9.687 0 013.199-.842c3.772-.33 5.793 1.046 6.063 4.127l.437 5.001c.034.385-.034.68-.204.881-.156.201-.46.322-.912.361l-2.37.208c-.439.038-.76-.028-.961-.197-.19-.171-.3-.45-.334-.834l-.445-5.081c-.036-.412-.128-.705-.278-.88-.149-.174-.39-.246-.721-.217-.425.037-.783.155-1.073.355l.138.209c.185.278.295.616.33 1.015l.415 4.741c.034.386-.034.68-.204.882-.157.2-.46.321-.912.36l-2.371.208z"/></g><defs><filter id="a" width="75.243" height="53.426" x="-1" y="-2" color-interpolation-filters="sRGB" filterUnits="userSpaceOnUse"><feFlood flood-opacity="0" result="BackgroundImageFix"/><feColorMatrix in="SourceAlpha" result="hardAlpha" values="0 0 0 0 0 0 0 0 0 0 0 0 0 0 0 0 0 0 127 0"/><feOffset dy="1"/><feGaussianBlur stdDeviation="2"/><feComposite in2="hardAlpha" operator="out"/><feColorMatrix values="0 0 0 0 0.0471588 0 0 0 0 0.0843619 0 0 0 0 0.419189 0 0 0 0.2 0"/><feBlend in2="BackgroundImageFix" result="effect1_dropShadow_971_36965"/><feBlend in="SourceGraphic" in2="effect1_dropShadow_971_36965" result="shape"/></filter></defs></svg>