<svg xmlns="http://www.w3.org/2000/svg" fill="none" viewBox="0 0 16 16"><path fill="#3C55AB" d="M13.542 2.313A.45.45 0 0014 1.875v-.438A.45.45 0 0013.542 1H3.458A.45.45 0 003 1.438v.437c0 .24.206.438.458.438h.459v4.284c-.579.276-.917.607-.917.965 0 1.838.991 3.451 2.486 4.39l-.613 1.919c-.18.56.261 1.129.877 1.129h5.5c.616 0 1.057-.569.877-1.13l-.614-1.919C13.01 11.013 14 9.4 14 7.562c0-.358-.338-.689-.917-.965V2.312h.459zm-8.25.656c0-.12.103-.219.229-.219h1.375c.126 0 .229.098.229.219v.437c0 .12-.103.219-.23.219H5.522a.225.225 0 01-.23-.219V2.97zM8.5 8.438c-2.209 0-3.999-.392-3.999-.876 0-.483 1.79-.875 3.999-.875s3.999.392 3.999.875c0 .484-1.79.875-3.999.875z"/></svg>