<svg xmlns="http://www.w3.org/2000/svg" fill="none" viewBox="0 0 33 23"><path fill="#FEFEFE" d="M10.367 7.276c.473-1.593 1.316-2.981 2.465-4.164 2.17-2.235 4.801-3.318 7.945-2.93 1.14.14 2.2.571 3.16 1.286-.763.892-1.511 1.77-2.276 2.668-.806-.601-1.687-.881-2.668-.827-1.311.072-2.466.509-3.474 1.374-.784.671-1.41 1.456-1.773 2.396-.527 1.367-.584 2.787.251 4.051.884 1.337 2.214 1.9 3.823 1.757 1.624-.142 2.924-.902 4.008-2.126.779.593 1.555 1.183 2.395 1.825-.586.536-1.105 1.08-1.7 1.533-.524.402-1.108.736-1.703 1.035-1.727.868-3.555 1.194-5.469.836-.473-.09-.924-.291-1.394-.413-.114-.03-.308 0-.379.084-.994 1.153-1.976 2.318-2.96 3.482-.773.916-1.54 1.841-2.314 2.757-.3.353-.616.405-1.008.154a6.356 6.356 0 01-.692-.512c-.267-.227-.178-.728.143-1.1.736-.846 1.452-1.709 2.18-2.56.688-.806 1.386-1.604 2.072-2.407.284-.334.563-.674.836-1.016.294-.372-.103-.448-.276-.615-.243-.39-.5-.773-.727-1.175-.603-1.067-.776-2.24-.73-3.439.027-.652.17-1.302.26-1.951l.005-.003z"/><path fill="#EA1D24" d="M10.367 7.276c-.09.65-.236 1.299-.26 1.951-.049 1.2.124 2.37.73 3.44.227.4.484.784.727 1.174H8.469c-.068-.52-.122-1.034-.21-1.547-.014-.083-.169-.207-.258-.207a88.79 88.79 0 00-3.276.005c-.138.003-.308.205-.392.353-.203.359-.349.75-.549 1.108-.073.13-.232.291-.356.296-.957.025-1.917.014-2.928.014.522-.965 1.022-1.89 1.522-2.811.457-.838.914-1.677 1.37-2.518.425-.778.846-1.56 1.274-2.339.46-.836.924-1.668 1.384-2.507.264-.485.519-.98.786-1.463.108-.197.252-.324.522-.313.654.027 1.308.008 1.962.008.338 1.787.665 3.52.995 5.25.008.038.035.07.052.106zM5.822 9.599h2.052L7.44 6.607l-.084.025c-.503.975-1.005 1.951-1.533 2.967zM26.34 4.435h-4.033c.402-.507.757-.96 1.119-1.404.294-.361.594-.723.913-1.062.1-.108.27-.21.409-.21 2.486-.014 4.976-.008 7.463-.008.076 0 .151.01.29.018-.074.426-.139.828-.212 1.227-.062.356-.17.709-.186 1.067-.016.315-.157.367-.422.364-.751-.01-1.5-.003-2.252 0-.064 0-.13.008-.227.013-.219 1.248-.435 2.49-.657 3.73-.221 1.243-.448 2.486-.67 3.73-.095.535-.19 1.068-.276 1.602-.03.188-.04.37-.3.366h-2.633l1.666-9.428.008-.005z"/><path fill="#FEFEFE" d="M14.048 8.074c1.765 2.482 4.769 2.29 6.566 1.242.525-.307 1.02-.674 1.506-1.04.203-.151.322-.337.094-.623-1.289-1.63-2.976-2.03-4.92-1.595-1.24.277-1.873.66-3.116 1.703-.033-.014-.065-.03-.097-.043.248-.518.492-1.04.751-1.553.087-.17.214-.32.33-.477.522-.703 1.343-.816 2.103-1 1.376-.337 2.738-.253 4.052.326 1.154.51 1.944 1.391 2.587 2.445.262.431.178.69-.195.995-.54.442-.986 1.002-1.549 1.412-1.973 1.437-4.144 1.986-6.541 1.261-.36-.107-.692-.312-1.044-.455-.386-.157-.478-.52-.513-.841-.06-.553-.016-1.116-.016-1.755l.002-.002z"/><path fill="#EA1D24" d="M24.396 21.976c-.43 0-.838.01-1.243-.008-.092-.006-.233-.09-.262-.168-.392-1.11-.768-2.223-1.182-3.428l-.932 1.307c.16.014.275.052.378.03.47-.092.725.108.83.558.057.242.154.477.251.768-.675 0-1.292.032-1.903-.013-.38-.03-.654.091-.8.401-.235.493-.61.612-1.108.553-.216-.027-.44-.006-.733-.006.387-.56.73-1.067 1.079-1.568.562-.806 1.127-1.61 1.687-2.418.251-.361.486-.736.746-1.092.173-.24.981-.401 1.251-.258.06.032.106.11.133.18.354.973.697 1.949 1.051 2.922.227.628.465 1.25.695 1.878.038.106.04.222.065.359l-.003.003z"/><path fill="#FEFEFE" d="M19.928 7.48c.184.432-.038.782-.213 1.122-.322.625-1.241 1.191-2.025 1.07-.887-.135-1.46-.925-1.163-1.954.3-1.038 1.528-1.784 2.447-1.431-.765.703-.892 1.078-.506 1.477.379.388.857.299 1.457-.283h.003z"/><path fill="#EA1D24" d="M26.04 21.954h-1.317c.219-1.245.435-2.466.651-3.703h1.308c-.216 1.245-.43 2.471-.646 3.703h.003zM26.464 16.324c.152.067.303.137.52.234-.057.348-.112.75-.195 1.143-.014.062-.16.13-.246.135-.338.016-.679.005-1.052.005.016-.196.027-.366.035-.452.214-.122.363-.208.511-.291-.105-.081-.21-.165-.335-.26l.035-.312c.249-.07.49-.135.73-.202h-.003zM26.575 16.033c.049-.092.081-.146.103-.205.021-.057.035-.118.051-.18h.362c.033.436-.013.471-.519.385h.003zM25.875 15.653l.124-.402.376.022c-.027.426-.043.436-.5.38z"/></svg>