<svg xmlns="http://www.w3.org/2000/svg" fill="none" viewBox="0 0 33 25"><g fill="#fff" clip-path="url(#a)"><path d="M9.184 14.735h3.308L7.815 2.049H5.357L.68 14.735h3.307l.619-1.844h3.96l.618 1.844zm-3.706-4.45L6.59 6.987l1.107 3.303-2.219-.003zM32.318 1.894h-8.487l-1.876 2.86h4.337v9.98h3.072v-9.98h2.954v-2.86z"/><path d="M22.713 11.495a5.127 5.127 0 01-4.28 2.314 5.126 5.126 0 01-3.623-1.505 5.144 5.144 0 01-1.502-3.629 5.144 5.144 0 011.502-3.628 5.126 5.126 0 013.623-1.506 5.086 5.086 0 012.918.917l1.885-2.872A8.498 8.498 0 0018.433.104a8.558 8.558 0 00-6.047 2.514 8.589 8.589 0 00-2.509 6.057 8.589 8.589 0 002.509 6.058 8.558 8.558 0 006.047 2.513 8.54 8.54 0 007.122-3.827l-2.842-1.924z"/><path d="M15.475 15.89l-2.13-1.4-5.383 8.219 2.13 1.4 5.383-8.22zM19.992 7.918a.838.838 0 01-.801.61.836.836 0 01-.68-1.312.837.837 0 01.397-.305 1.755 1.755 0 00-1.799.43 1.772 1.772 0 001.25 3.022A1.763 1.763 0 0019.99 9.27a1.774 1.774 0 00.001-1.352z"/><path d="M23.994 7.626a7.152 7.152 0 00-2.441-2.035 7.102 7.102 0 00-3.199-.762 7.107 7.107 0 00-3.02.675A4.369 4.369 0 0013.98 8.59a5.499 5.499 0 016.817-1.597c.759.376 1.42.924 1.934 1.6a5.497 5.497 0 01-8.752.002v.084a4.37 4.37 0 001.056 2.854l.123.064c.992.501 2.087.762 3.198.763a7.109 7.109 0 003.198-.763 7.164 7.164 0 002.44-2.038l.738-.967-.738-.966z"/></g><defs><clipPath id="a"><path fill="#fff" d="M0 0h31.636v24H0z" transform="translate(.682 .104)"/></clipPath></defs></svg>