<svg xmlns="http://www.w3.org/2000/svg" fill="none" viewBox="0 0 441 80"><g clip-path="url(#a)" filter="url(#b)"><path fill="#fff" d="M.271 30.832L437.673.247l3.418 48.875L3.689 79.707z"/><path fill="#3C55AB" d="M20.841 69.902c-.649.045-1.124-.052-1.428-.291-.28-.267-.439-.686-.479-1.257L17.73 51.12c-.07-1.011.387-1.552 1.373-1.62l2.684-.188c.363-.026.64.033.833.176.19.117.31.343.36.679l.165 1.24c1.532-1.959 3.866-3.047 7.005-3.266 2.308-.162 4.206.33 5.694 1.478 1.487 1.147 2.315 2.927 2.484 5.339l.838 11.982c.04.571-.073 1.009-.338 1.314-.241.278-.673.438-1.296.482l-2.918.204c-.648.045-1.124-.052-1.428-.291-.279-.267-.438-.686-.478-1.257l-.825-11.788c-.074-1.064-.4-1.823-.98-2.277-.553-.457-1.374-.647-2.464-.57-1.245.086-2.221.467-2.93 1.142-.709.675-1.031 1.467-.968 2.375l.814 11.632c.04.57-.06 1.008-.3 1.311-.24.278-.686.44-1.334.485l-2.879.2zM35.172 46.146c-1.479.104-2.703-.254-3.672-1.072-.997-.843-1.546-1.977-1.646-3.404-.1-1.426.286-2.626 1.156-3.6.845-.97 2.006-1.508 3.484-1.611 1.479-.103 2.716.266 3.714 1.109.997.842 1.545 1.977 1.645 3.403.1 1.427-.285 2.627-1.156 3.6-.872.947-2.047 1.472-3.525 1.575zm-.21-2.995a1.878 1.878 0 001.287-.599c.312-.386.45-.839.414-1.358a1.696 1.696 0 00-.593-1.21 1.805 1.805 0 00-1.36-.452 1.805 1.805 0 00-1.286.638c-.34.362-.492.79-.457 1.283.036.518.248.947.637 1.284.387.312.84.45 1.358.414zM53.017 67.652c-1.037.072-1.591-.397-1.662-1.409l-.805-11.515c-.086-1.22-.366-2.06-.841-2.522-.478-.488-1.274-.693-2.389-.615a7.073 7.073 0 00-3.325 1.093c-.25.148-.44.226-.57.235-.26.018-.439-.126-.538-.431l-1.066-2.936-.11-.462c-.016-.233.127-.426.429-.577 1.63-.922 3.598-1.464 5.907-1.625 2.827-.198 4.971.278 6.433 1.427 1.462 1.149 2.283 3.02 2.465 5.614l.83 11.865c.07 1.012-.413 1.554-1.45 1.627l-3.308.23zM80.322 65.743c-.856.06-1.478-.08-1.867-.417-.362-.34-.57-.886-.623-1.638l-1.05-15.017c-.06-.856-.141-1.463-.244-1.82-.105-.384-.326-.747-.663-1.088l-1.723-1.717c-.14-.146-.364-.365-.671-.657-.309-.317-.525-.615-.649-.893-.125-.304-.205-.689-.237-1.156l-.133-1.906c-.048-.675.088-1.153.407-1.436.292-.307.813-.487 1.566-.54l12.371-.865c.597-.042 1.007.047 1.23.266.25.217.395.611.435 1.182l.245 3.501c.04.57-.049.98-.266 1.23-.19.248-.585.393-1.181.435l-3.618.253c.93.639 1.552 1.325 1.864 2.059.338.732.548 1.695.632 2.888l.715 10.232.506-.035c.597-.042 1.007.047 1.23.265.25.218.395.611.435 1.182l.245 3.502c.04.57-.049.98-.266 1.23-.191.248-.585.393-1.181.434l-7.51.526zM101.456 64.851c-3.734.261-6.922-.22-9.562-1.442-.592-.272-.899-.563-.92-.874-.013-.182.049-.408.186-.678l1.668-3.557c.16-.324.369-.495.628-.513.208-.015.472.045.795.179.753.338 1.66.627 2.719.865 1.059.24 2.003.33 2.833.271.597-.041 1.007-.135 1.232-.281.25-.148.363-.39.34-.728-.024-.337-.236-.583-.638-.737-.378-.182-1.111-.418-2.2-.706l-1.355-.375c-2.128-.607-3.692-1.357-4.693-2.252-.975-.896-1.515-2.096-1.62-3.6-.14-1.998.619-3.64 2.275-4.93 1.656-1.288 3.924-2.033 6.803-2.234 1.815-.127 3.369-.08 4.662.143 1.317.195 2.62.572 3.911 1.134.566.273.861.578.885.915.014.208-.071.487-.255.84l-1.66 3.087c-.186.325-.37.495-.551.507-.078.006-.331-.068-.758-.22a10.149 10.149 0 00-2.111-.557c-.793-.153-1.513-.206-2.162-.161-1.4.098-2.082.42-2.044.964.022.311.341.588.958.832.642.242 1.56.503 2.752.785l2.114.595c1.253.408 2.235.834 2.943 1.28.709.445 1.216.983 1.521 1.614.33.628.53 1.435.599 2.42a5.679 5.679 0 01-.853 3.462c-.629 1.06-1.648 1.952-3.057 2.676-1.411.698-3.206 1.124-5.385 1.276zM124.407 63.246c-2.723.19-4.861-.194-6.414-1.154-1.527-.962-2.67-2.407-3.43-4.334l-2.42-6.087c-.16-.431-.247-.738-.26-.92-.016-.233.036-.42.157-.558.146-.14.372-.273.675-.399l5.659-2.39c.378-.182.684-.282.917-.298a.634.634 0 01.564.234c.166.145.328.407.485.787l2.801 7.076c.22.532.43.921.629 1.168.224.219.53.315.92.287.492-.034.83-.422 1.013-1.165.182-.743.218-1.905.108-3.487-.098-1.4-.286-2.404-.563-3.01-.277-.606-.687-.89-1.232-.852-.467.032-.889.14-1.268.323a1.53 1.53 0 01-.497.152c-.337.024-.599-.18-.786-.61l-1.651-3.481c-.125-.304-.191-.508-.199-.612-.016-.233.125-.451.424-.655.949-.587 1.844-1.015 2.686-1.282.841-.268 1.884-.445 3.129-.532 2.62-.183 4.746.594 6.379 2.33 1.633 1.736 2.566 4.264 2.798 7.584.25 3.58-.569 6.4-2.458 8.46-1.864 2.033-4.586 3.175-8.166 3.425zM140.835 61.511c-.856.06-1.478-.08-1.866-.417-.363-.34-.571-.885-.623-1.637l-1.118-15.99c-.053-.752.077-1.322.389-1.709.337-.388.934-.612 1.79-.672l4.63-.324c.881-.062 1.504.077 1.866.417.387.312.608.857.662 1.635l.811 11.593.505-.035c.597-.042 1.007.047 1.231.266.25.217.395.61.434 1.181l.245 3.502c.04.57-.048.98-.266 1.23-.191.248-.585.393-1.181.435l-7.509.525zM162.148 60.607c-3.735.261-6.922-.22-9.562-1.442-.592-.272-.899-.563-.921-.874-.013-.182.05-.408.187-.678l1.667-3.557c.16-.324.37-.495.629-.513.207-.014.472.045.794.179.754.338 1.66.627 2.719.865 1.06.24 2.004.33 2.834.271.597-.041 1.007-.135 1.232-.281.25-.148.363-.39.34-.728-.024-.337-.237-.583-.638-.737-.378-.182-1.111-.418-2.2-.706l-1.355-.375c-2.128-.607-3.692-1.357-4.693-2.252-.975-.896-1.515-2.096-1.62-3.6-.14-1.998.619-3.64 2.275-4.93 1.656-1.288 3.923-2.033 6.802-2.234 1.816-.127 3.37-.08 4.663.143 1.317.195 2.62.573 3.91 1.134.567.273.862.578.885.915.015.208-.07.487-.254.84l-1.66 3.087c-.186.325-.37.495-.551.507-.078.006-.331-.068-.759-.22a10.11 10.11 0 00-2.111-.556c-.792-.154-1.513-.208-2.161-.162-1.401.098-2.082.42-2.044.964.022.311.341.588.958.832.642.242 1.559.503 2.752.785l2.114.595c1.253.407 2.234.834 2.943 1.28.709.445 1.216.983 1.52 1.614.331.628.531 1.435.6 2.42a5.679 5.679 0 01-.853 3.462c-.629 1.06-1.649 1.952-3.058 2.676-1.41.698-3.205 1.124-5.384 1.276zM153.876 37.963c-.829.058-1.399-.072-1.708-.389-.336-.341-.532-.9-.586-1.679l-.126-1.79c-.054-.778.063-1.346.35-1.705.26-.383.805-.604 1.635-.662l9.26-.647-.066-.934c-.058-.83.085-1.4.428-1.711.315-.335.862-.53 1.64-.584l2.724-.19c.778-.055 1.359.061 1.744.347.357.262.565.807.623 1.637l.345 4.941c.055.778-.048 1.359-.308 1.742-.288.359-.846.568-1.676.626l-14.279.998zM186.072 58.934c-3.424.24-6.229-.177-8.415-1.249-2.186-1.072-3.357-2.723-3.513-4.954-.149-2.127.474-3.656 1.869-4.587-.741-.522-1.303-1.108-1.687-1.759-.359-.653-.572-1.472-.641-2.457-.076-1.09.14-2.095.649-3.017.509-.922 1.239-1.663 2.19-2.225.975-.59 2.085-.928 3.33-1.015 1.168-.081 2.186-.048 3.057.1.894.119 1.707.375 2.438.767.271.137.416.349.436.634.01.156-.015.353-.076.592l-.735 2.905c-.084.293-.217.445-.399.458-.103.007-.262-.02-.475-.084-.266-.086-.477-.123-.633-.112a.753.753 0 00-.637.396c-.113.243-.158.533-.134.87.056.804.434 1.181 1.134 1.132l.74-.051c.596-.042.915.235.957.832l.215 3.074c.042.596-.236.915-.832.957l-.74.052a1.058 1.058 0 00-.756.365c-.169.194-.241.473-.215.836.054.778.769 1.12 2.143 1.023.804-.056 1.371-.343 1.699-.861.329-.519.457-1.296.385-2.334l-.645-9.22c-.053-.753.077-1.322.389-1.709.337-.388.934-.612 1.79-.672l4.435-.31c.882-.062 1.504.077 1.867.416.387.312.607.857.662 1.635l.644 9.22c.205 2.932-.474 5.325-2.039 7.18-1.566 1.83-4.385 2.888-8.457 3.172zM208.514 57.365c-2.386.167-4.321-.297-5.805-1.393-1.486-1.12-2.314-2.9-2.484-5.338l-.805-11.516c-.053-.752.076-1.322.388-1.708.338-.389.935-.613 1.791-.673l4.629-.324c.882-.061 1.504.078 1.867.417.387.312.607.857.662 1.635l.775 11.088c.035.493.203.859.507 1.098.303.24.714.341 1.233.305.545-.038.951-.197 1.218-.476.267-.28.383-.666.349-1.158l-.775-11.088c-.053-.753.077-1.322.388-1.709.338-.388.935-.612 1.791-.672l4.63-.324c.881-.062 1.504.077 1.866.417.387.312.607.857.662 1.635l1.137 16.262c.045.648-.102 1.154-.441 1.516-.316.335-.798.525-1.446.57l-4.28.3c-.726.05-1.161-.206-1.304-.769l-.202-.65c-.683.673-1.555 1.242-2.618 1.707-1.062.466-2.306.748-3.733.848zM246.06 54.153c-.933.065-1.568-.073-1.905-.414-.337-.341-.536-.953-.597-1.835l-.727-10.388c-.08-1.14.085-2.143.494-3.005.433-.89 1.067-1.886 1.902-2.987.715-.962 1.233-1.742 1.557-2.338.321-.621.455-1.308.403-2.06-.089-1.272-.834-1.858-2.234-1.76-1.686.118-2.464 1.11-2.333 2.978.018.26-.021.444-.118.555-.098.085-.29.138-.575.158l-4.007.28c-.364.025-.56-.182-.591-.623-.153-2.179.425-3.979 1.733-5.4 1.308-1.42 3.246-2.22 5.814-2.4 2.62-.183 4.64.197 6.061 1.14 1.42.918 2.199 2.375 2.339 4.372.074 1.063-.069 1.999-.429 2.806-.363.78-.912 1.692-1.647 2.734-.688.96-1.202 1.817-1.54 2.57-.34.728-.478 1.546-.415 2.454l.503 7.197c.022.311.09.541.205.69.113.122.312.173.597.153l.934-.065c.441-.03.759.051.955.246.195.169.307.474.338.915l.16 2.295c.033.467-.035.797-.204.992-.169.194-.487.307-.953.34l-5.72.4zM259.426 53.218c-.622.044-1.085-.054-1.388-.294-.28-.267-.439-.686-.479-1.256l-1.192-17.04c-.04-.571.06-1.008.299-1.312.266-.305.71-.48 1.332-.523l2.879-.201c.649-.045 1.112.065 1.392.333.305.265.478.683.518 1.254l.312 4.474 4.124-.289c.934-.065 1.553-.343 1.858-.833.304-.49.425-1.19.361-2.098l-.119-1.712c-.04-.57.059-1.007.299-1.31.265-.306.709-.48 1.332-.524l2.917-.204c.649-.045 1.113.066 1.392.333.305.265.478.683.518 1.254l.13 1.867c.18 2.568-.641 4.241-2.463 5.02 1.011.295 1.766.854 2.267 1.68.501.824.791 1.808.871 2.949l.386 5.524c.04.57-.072 1.009-.338 1.314-.241.278-.686.439-1.334.484l-2.918.204c-.623.044-1.086-.054-1.389-.293-.279-.268-.439-.686-.479-1.257l-.362-5.175c-.061-.881-.289-1.53-.683-1.946-.368-.417-.967-.596-1.797-.538l-4.241.296.547 7.82c.04.57-.073 1.008-.338 1.314-.241.277-.686.439-1.335.484l-2.879.201zM267.381 29.127c-.7.049-1.189-.047-1.466-.289-.28-.267-.442-.725-.487-1.373l-.123-1.75-1.712.119c-.57.04-.967-.05-1.191-.269-.226-.244-.357-.626-.393-1.145l-.087-1.245c-.036-.519.041-.902.232-1.15.189-.274.569-.43 1.14-.47l4.863-.34c.623-.044 1.047.056 1.272.301.224.22.359.653.404 1.301l.15 2.14c2.887-.462 4.978-.739 6.275-.83.493-.034.823.034.992.205.168.17.268.476.299.917l.114 1.634c.04.57-.036.98-.227 1.228-.193.222-.575.353-1.146.393l-8.909.623zM300.273 50.362c-.856.06-1.478-.08-1.866-.417-.363-.34-.57-.885-.623-1.637l-1.05-15.018c-.06-.856-.141-1.462-.245-1.82-.105-.384-.326-.746-.662-1.087l-1.723-1.717a21.674 21.674 0 00-.672-.657c-.308-.317-.525-.615-.648-.893-.126-.304-.205-.69-.238-1.156l-.133-1.907c-.047-.674.089-1.153.408-1.436.291-.307.813-.487 1.565-.54l12.372-.864c.596-.042 1.007.047 1.23.265.25.218.395.611.435 1.182l.245 3.502c.04.57-.049.98-.266 1.23-.191.248-.585.393-1.182.434l-3.618.253c.931.64 1.552 1.325 1.864 2.06.338.732.549 1.694.632 2.887l.716 10.232.506-.035c.596-.042 1.006.047 1.23.266.25.217.395.61.435 1.181l.244 3.502c.04.57-.048.98-.265 1.23-.192.248-.585.393-1.182.435l-7.509.525zM323.12 49.35c-7.47.523-11.408-2.12-11.814-7.93l-.705-10.077c-.052-.752.077-1.321.389-1.708.338-.389.934-.613 1.79-.673l4.63-.323c.882-.062 1.504.077 1.867.416.386.312.607.857.661 1.635l.686 9.804c.062.882.236 1.509.522 1.88.311.343.816.49 1.517.44.726-.05 1.206-.266 1.44-.647.234-.382.319-1.026.256-1.934l-1.162-16.612c-.052-.752.077-1.322.389-1.708.338-.389.934-.613 1.79-.673l4.63-.324c.882-.061 1.504.078 1.867.417.386.312.607.857.661 1.635l1.181 16.885c.406 5.81-3.125 8.975-10.595 9.498zM347.338 47.657c-3.735.262-6.923-.22-9.562-1.442-.593-.271-.9-.563-.922-.874-.012-.181.05-.407.188-.678l1.667-3.557c.159-.324.369-.495.628-.513.208-.014.473.045.795.18.753.338 1.659.626 2.719.865 1.059.238 2.004.329 2.834.27.596-.041 1.007-.135 1.231-.28.25-.149.364-.391.34-.728-.024-.337-.236-.583-.638-.738-.378-.182-1.111-.417-2.2-.706l-1.355-.374c-2.128-.607-3.692-1.358-4.693-2.252-.974-.897-1.515-2.097-1.62-3.601-.139-1.997.619-3.64 2.275-4.929 1.656-1.289 3.924-2.034 6.803-2.235 1.815-.127 3.369-.08 4.662.143 1.317.195 2.62.573 3.911 1.134.566.273.861.579.885.916.014.207-.071.487-.254.838l-1.661 3.088c-.186.326-.369.495-.551.508-.078.005-.331-.069-.758-.221a10.126 10.126 0 00-2.111-.556c-.793-.153-1.513-.207-2.162-.162-1.4.098-2.082.42-2.044.964.022.311.341.589.958.832.642.242 1.56.504 2.752.785l2.114.595c1.253.408 2.235.834 2.943 1.28.709.446 1.216.984 1.521 1.614.33.628.53 1.435.599 2.421a5.679 5.679 0 01-.853 3.46c-.629 1.061-1.648 1.954-3.057 2.678-1.411.698-3.206 1.123-5.384 1.275zM348.792 24.333c-.778.055-1.346-.05-1.703-.31-.385-.287-.606-.845-.664-1.675l-.332-4.746c-.058-.83.084-1.4.428-1.711.315-.335.862-.53 1.64-.584l4.124-.288c.778-.055 1.359.061 1.744.347.357.262.565.808.623 1.637l.332 4.747c.058.83-.071 1.412-.386 1.747-.343.31-.904.493-1.682.548l-4.124.288zM371.067 45.998c-2.724.19-4.862-.194-6.415-1.154-1.526-.962-2.67-2.407-3.43-4.334l-2.42-6.087c-.16-.431-.247-.738-.26-.92-.016-.233.036-.42.157-.558.146-.14.372-.274.676-.4l5.658-2.389c.378-.182.684-.282.917-.298a.632.632 0 01.564.234c.166.145.328.407.485.787l2.801 7.076c.22.532.43.921.629 1.168.224.219.531.315.92.287.493-.034.83-.423 1.013-1.165.183-.743.219-1.905.108-3.487-.098-1.4-.285-2.404-.562-3.01-.277-.606-.688-.89-1.233-.852-.467.032-.889.14-1.267.323a1.525 1.525 0 01-.498.152c-.337.024-.599-.18-.785-.61l-1.651-3.481c-.126-.304-.192-.508-.199-.612-.017-.233.124-.451.423-.655.949-.588 1.845-1.015 2.686-1.282.841-.268 1.885-.445 3.129-.532 2.62-.183 4.746.593 6.38 2.33 1.633 1.736 2.565 4.264 2.797 7.584.251 3.58-.569 6.4-2.457 8.46-1.865 2.033-4.587 3.175-8.166 3.425zM389.167 44.146c-.856.06-1.478-.08-1.866-.417-.363-.34-.57-.885-.623-1.637l-.721-10.31c-.078-1.116.087-2.105.496-2.967.435-.864 1.093-1.888 1.975-3.07.668-.881 1.152-1.606 1.451-2.174.323-.596.463-1.205.419-1.828-.023-.337-.105-.579-.246-.725-.116-.174-.33-.25-.641-.229-.441.03-.723.285-.846.763-.125.452-.16 1.067-.106 1.845.038.545-.189.834-.682.869l-6.03.421c-.467.033-.719-.223-.758-.768-.181-2.593.401-4.706 1.747-6.338 1.345-1.632 3.613-2.56 6.803-2.782 3.035-.213 5.328.161 6.881 1.121 1.579.958 2.443 2.514 2.594 4.667.076 1.089-.053 2.036-.388 2.842-.334.805-.854 1.767-1.557 2.884-.637.957-1.114 1.785-1.43 2.485-.29.698-.403 1.5-.339 2.409l.408 5.835.506-.035c.596-.042 1.006.047 1.23.266.25.217.395.61.435 1.181l.244 3.502c.04.57-.048.98-.265 1.23-.192.248-.585.393-1.182.435l-7.509.525zM408.116 43.407c-2.101.147-3.791-.347-5.069-1.483-1.253-1.137-1.943-2.627-2.072-4.468-.174-2.49.532-4.325 2.117-5.504 1.586-1.18 3.935-1.878 7.047-2.096l3.805-.383c-.042-.597-.398-1.028-1.068-1.294s-1.615-.356-2.834-.27a12.55 12.55 0 00-2.587.454c-.819.213-1.517.484-2.094.81-.4.237-.704.363-.912.377-.233.017-.479-.149-.738-.495l-2.179-3.21c-.207-.35-.317-.616-.33-.798-.022-.311.131-.556.457-.736 1.12-.756 2.523-1.375 4.209-1.858 1.711-.51 3.63-.84 5.757-.989 1.426-.1 2.629-.04 3.609.178a18.517 18.517 0 012.063-1.24c.703-.387 1.283-.662 1.741-.825.562-.17.972-.263 1.231-.281.649-.046 1.097.21 1.344.766l1.526 3.373c.094.228.147.42.158.575.032.467-.229.837-.783 1.11l-.717.363a6.76 6.76 0 01.961 2.005c.206.716.347 1.605.421 2.668l.653 9.337c.053.753-.09 1.323-.428 1.712-.312.386-.908.61-1.79.672l-4.435.31c-.856.06-1.478-.079-1.867-.417-.363-.34-.57-.885-.623-1.637l-.323-4.63-3.191.223c-.57.04-.981.134-1.231.282-.25.148-.364.39-.34.727.042.597.426.87 1.152.819.233-.016.604-.12 1.112-.312a.544.544 0 01.23-.056c.312-.021.52.16.625.543l.789 3.464c.076.333.067.581-.026.744-.093.163-.316.322-.67.477-1.292.533-2.859.865-4.7.993z"/></g><defs><clipPath id="a"><path fill="#fff" d="M0 0h441v80H0z"/></clipPath><filter id="b" width="448.82" height="87.461" x="-3.729" y="-2.754" color-interpolation-filters="sRGB" filterUnits="userSpaceOnUse"><feFlood flood-opacity="0" result="BackgroundImageFix"/><feColorMatrix in="SourceAlpha" result="hardAlpha" values="0 0 0 0 0 0 0 0 0 0 0 0 0 0 0 0 0 0 127 0"/><feOffset dy="1"/><feGaussianBlur stdDeviation="2"/><feComposite in2="hardAlpha" operator="out"/><feColorMatrix values="0 0 0 0 0.0471588 0 0 0 0 0.0843619 0 0 0 0 0.419189 0 0 0 0.2 0"/><feBlend in2="BackgroundImageFix" result="effect1_dropShadow_320_204"/><feBlend in="SourceGraphic" in2="effect1_dropShadow_320_204" result="shape"/></filter></defs></svg>