<svg xmlns="http://www.w3.org/2000/svg" fill="none" viewBox="0 0 215 243"><path fill="#3C55AB" d="M22.768 22.23c-.511.035-.93-.075-1.258-.33-.328-.255-.509-.622-.543-1.1l-.514-7.359 1.277-.089.408 5.842a1.17 1.17 0 01.19-.03c.075-.015.149-.026.223-.031.51-.036.93.074 1.258.329.328.255.509.622.542 1.1.034.48-.094.868-.383 1.166-.29.299-.69.466-1.2.501zm-.002-.706c.245-.018.432-.105.56-.264.127-.17.181-.382.163-.637-.018-.255-.1-.453-.25-.592-.149-.15-.346-.216-.59-.2-.246.018-.432.111-.559.28-.128.159-.183.366-.165.621.018.256.102.458.251.608.149.14.346.2.59.184zm4.612-.772l-.341-4.884a.758.758 0 01-.206.046l-.207.015c-.51.036-.93-.074-1.258-.33-.328-.254-.509-.621-.542-1.1-.034-.479.094-.867.383-1.166.29-.298.69-.465 1.2-.5.511-.036.93.073 1.258.329.328.255.509.622.542 1.1l.448 6.4 2.41-.168c.564-.04.99-.213 1.279-.522.288-.32.412-.75.374-1.294l-.62-8.874 1.277-.09.62 8.875c.06.84-.15 1.513-.628 2.017-.48.493-1.181.772-2.107.837l-5.204.364-.067-.958 1.39-.097zm-.851-5.522c.244-.017.43-.105.559-.264.127-.169.182-.381.164-.637-.018-.255-.101-.452-.25-.592-.15-.15-.347-.216-.591-.199-.245.017-.431.11-.558.28-.128.158-.183.365-.165.62.017.256.101.459.25.609.15.139.346.2.59.183zm-1.782-3.805l-.025-.367a2.503 2.503 0 01.772-2.027c.271-.254.604-.46 1-.615.384-.155.822-.25 1.311-.284.49-.035.94-.002 1.354.097.403.1.756.258 1.06.472.303.214.547.485.73.815.183.318.288.68.317 1.084l.025.367-6.544.458zm3.13-2.272c-.575.04-1.051.191-1.428.453-.39.252-.608.556-.658.912l4.357-.305c-.11-.345-.37-.615-.779-.811-.42-.206-.918-.289-1.493-.249zm9.137 6.354a3.49 3.49 0 01.174-1.423c.162-.429.403-.804.723-1.125.32-.322.718-.58 1.197-.774a5.51 5.51 0 011.659-.357 5.357 5.357 0 011.677.124c.51.124.947.324 1.309.598a3 3 0 01.856 1.015c.221.401.35.863.386 1.384l.385 5.507-1.277.089-.373-5.33c-.058-.83-.342-1.458-.853-1.882-.51-.424-1.192-.606-2.043-.547-.851.06-1.5.335-1.947.826-.447.491-.641 1.152-.583 1.982l.312 4.469.798-.056 1.147-1.492.37-.443c-.398-.025-.722-.158-.974-.397-.241-.24-.376-.562-.404-.966-.032-.447.082-.813.34-1.098.268-.286.637-.446 1.105-.479.468-.032.85.075 1.145.321.306.246.475.593.506 1.04.022.308-.034.59-.166.845-.131.255-.31.535-.534.84l-2.028 2.66-2.521.176-.386-5.507zm4.144 1.908c.234-.017.41-.104.527-.261.128-.16.183-.36.166-.606-.017-.244-.1-.436-.249-.576-.138-.14-.324-.201-.558-.185-.234.016-.415.104-.543.262-.117.158-.168.36-.15.604.017.245.094.438.232.578.15.139.34.2.575.184zm9.123 2.89c-.511.036-.93-.073-1.258-.328-.328-.256-.509-.622-.543-1.101l-.514-7.358 1.277-.09.408 5.842a1.16 1.16 0 01.19-.03c.075-.015.149-.026.223-.03.51-.037.93.073 1.258.328.328.255.509.622.542 1.101.034.479-.094.867-.383 1.166-.29.298-.69.465-1.2.5zm-.002-.705c.245-.017.431-.105.56-.264.127-.169.181-.381.163-.637-.017-.255-.1-.452-.25-.592-.15-.15-.346-.216-.59-.199-.246.017-.432.11-.559.28-.128.158-.183.365-.165.62.018.256.102.459.251.609.149.139.346.2.59.183zm5.794.3c-.639.045-1.159-.127-1.56-.516-.39-.39-.612-.946-.662-1.67l-.365-5.22c-.034-.478.094-.866.383-1.165.29-.298.69-.465 1.2-.5.511-.036.93.073 1.258.328.328.255.51.623.543 1.101.033.48-.095.868-.384 1.166-.29.298-.69.465-1.2.5l-.224.017a.604.604 0 01-.193-.02l.248 3.544c.035.511.158.887.367 1.13.21.241.485.35.825.327.34-.024.592-.175.754-.454.173-.28.242-.664.208-1.153l-.135-1.932 1.277-.089.135 1.931c.034.49.151.861.35 1.115a.93.93 0 00.827.343c.34-.024.597-.17.77-.44.175-.268.244-.658.208-1.168l-.449-6.417 1.277-.089.46 6.576c.051.734-.09 1.321-.422 1.762-.323.429-.804.665-1.442.71-.543.038-1-.08-1.372-.353-.373-.284-.62-.69-.743-1.215l-.08.005c-.047.538-.236.974-.566 1.307-.32.322-.75.502-1.293.54zm-.788-6.68c.245-.018.43-.106.559-.264.127-.17.181-.382.164-.637-.018-.256-.102-.453-.25-.592-.15-.15-.347-.217-.592-.2-.244.018-.43.11-.557.28-.128.159-.183.366-.166.621.018.255.102.458.252.608.148.14.345.2.59.183zm12.158 1.876c-.404.028-.735.19-.992.486a1.411 1.411 0 00-.343 1.067c.034.478.21.851.527 1.117.33.266.813.377 1.451.332l.718-.05c.639-.045 1.107-.232 1.404-.563.308-.343.442-.79.404-1.344l-.432-6.177 1.277-.089.423 6.05c.067.957-.202 1.697-.807 2.22-.595.513-1.451.808-2.569.886-1.117.078-1.993-.064-2.628-.425-.635-.373-.98-.932-1.031-1.677-.032-.446.066-.817.29-1.11.237-.295.552-.526.947-.692l-.004-.064c-.48-.116-.837-.337-1.073-.663-.237-.326-.372-.733-.407-1.223l-.057-.814c-.049-.702.095-1.252.43-1.65.335-.408.806-.633 1.413-.676.478-.033.877.078 1.194.334.328.255.509.622.542 1.1.033.48-.094.868-.384 1.166-.289.298-.689.465-1.2.501-.298.021-.568-.03-.812-.152l.004.064c.015.213.044.393.086.54a.79.79 0 00.201.354.83.83 0 00.383.198c.173.03.393.037.659.018l1.037-.072.067.957-.718.05zm-.908-2.664c.245-.017.431-.104.56-.263.126-.17.18-.382.163-.637-.018-.255-.101-.453-.25-.592-.15-.15-.346-.216-.591-.2-.245.018-.43.11-.558.28-.128.159-.183.366-.165.621.018.256.101.458.25.608.15.14.346.2.591.183zM78.96 18.3a4.03 4.03 0 01-1.29-.102 2.97 2.97 0 01-1.028-.474 2.47 2.47 0 01-.682-.802 2.651 2.651 0 01-.3-1.086c-.037-.521.034-.96.212-1.314.178-.365.419-.745.723-1.141.284-.373.496-.698.637-.975.14-.288.198-.612.173-.974-.032-.447-.193-.762-.483-.945-.292-.193-.688-.273-1.188-.238a2.49 2.49 0 00-.837.187l.038.078a.469.469 0 01.11-.024.591.591 0 01.143-.026c.35-.024.651.061.9.258.248.186.385.465.411.837.026.373-.079.7-.316.985-.226.283-.568.44-1.025.472-.458.032-.824-.081-1.099-.34-.265-.27-.413-.629-.444-1.075a1.908 1.908 0 01.106-.778 1.95 1.95 0 01.416-.703c.2-.206.445-.373.735-.5.3-.139.642-.221 1.025-.248.798-.056 1.424.093 1.876.446.452.353.701.85.746 1.488.032.457-.021.846-.16 1.166a5.07 5.07 0 01-.633 1.038c-.264.35-.47.68-.62.99-.15.3-.212.646-.184 1.04l.014.207c.036.51.22.915.55 1.212.331.298.8.426 1.407.383.606-.042 1.067-.256 1.382-.642.315-.396.451-.892.41-1.488l-.417-5.953 1.277-.09.42 6.002c.03.436-.022.84-.156 1.214a2.704 2.704 0 01-.607.956c-.259.275-.58.495-.964.661-.384.166-.81.265-1.278.298zm-3.816-5.94c.213-.015.373-.09.481-.226a.77.77 0 00.154-.556c-.016-.224-.092-.395-.229-.514-.126-.13-.296-.188-.509-.173a.663.663 0 00-.496.243c-.108.136-.154.316-.139.54.016.223.087.4.214.53.136.119.311.17.524.156zm2.986-5.133l.828-.555-.003-.032c-.332-.02-.596-.124-.791-.314-.206-.188-.32-.442-.343-.762-.025-.372.076-.679.305-.92.219-.239.53-.373.934-.401.405-.029.737.06.997.267.25.207.388.497.414.87.017.244-.03.477-.144.699-.113.211-.355.426-.724.644l.007.112 1.916-.134.58-2.03 1.085-.076-.6 1.743c-.125.35-.267.622-.424.815-.17.183-.45.288-.844.316l-3.16.22-.033-.462zm1.063-1.085a.663.663 0 00.452-.192c.109-.125.156-.294.14-.507-.014-.213-.084-.368-.208-.466a.627.627 0 00-.475-.144.627.627 0 00-.45.208c-.11.115-.158.279-.143.491.015.213.085.374.21.483.125.098.283.14.474.127zm9.679 11.465c-1.128.079-2.01-.073-2.647-.457-.625-.384-.968-1.006-1.028-1.868l-.125-1.788c-.037-.521.088-.947.375-1.277.287-.33.686-.513 1.197-.55.51-.035.93.075 1.258.33.328.255.509.622.542 1.1.034.48-.094.868-.383 1.166-.29.299-.69.466-1.2.501l-.224.016a.604.604 0 01-.194-.019l.038.543c.034.479.198.842.493 1.088.305.236.745.333 1.32.293l1.021-.072c.575-.04.992-.197 1.25-.472.27-.286.387-.668.353-1.147l-.226-3.24c-.053-.756-.334-1.335-.843-1.738-.5-.403-1.174-.575-2.025-.516-.766.054-1.394.258-1.882.613-.479.344-.84.764-1.083 1.263l-.862-.63c.282-.565.739-1.057 1.373-1.475.644-.42 1.477-.665 2.499-.736.595-.042 1.133 0 1.612.128.49.126.91.32 1.26.585.36.264.646.597.856.999.21.392.332.843.367 1.354l.224 3.192c.06.862-.198 1.527-.775 1.995-.566.467-1.413.74-2.541.819zm-2.01-3.516c.255-.018.451-.112.59-.282.148-.171.213-.39.194-.655-.019-.267-.113-.474-.284-.622-.16-.15-.368-.215-.623-.197a.844.844 0 00-.606.283c-.138.17-.197.388-.179.654.019.266.108.473.268.623.171.148.384.213.64.196zm9.414 2.998c-.51.036-.93-.08-1.259-.345-.329-.266-.51-.638-.543-1.117-.034-.479.094-.872.382-1.181.289-.31.688-.481 1.2-.517.159-.011.314-.006.465.015-.052-.135-.087-.336-.106-.602l-.162-2.314a.761.761 0 01-.205.046l-.207.015c-.511.036-.93-.074-1.258-.33-.328-.254-.51-.621-.543-1.1-.033-.479.095-.867.384-1.166.29-.298.69-.465 1.2-.5.51-.036.93.073 1.258.329.328.255.509.622.542 1.1l.336 4.805 3.475 1.296.064-.004-.538-7.693 1.277-.09.609 8.715-1.197.084-3.622-1.335a.851.851 0 01.03.19c.033.48-.094.873-.383 1.182-.288.31-.688.481-1.199.517zm-.049-.702c.266-.019.463-.102.592-.25a.708.708 0 00.186-.558l-.018-.256a.708.708 0 00-.262-.527c-.148-.128-.355-.183-.62-.165-.267.019-.47.102-.609.251a.735.735 0 00-.17.557l.019.256c.015.223.097.4.245.528.159.128.371.183.637.164zm-.483-5.997c.244-.017.43-.105.559-.264.127-.169.181-.381.163-.637-.017-.255-.1-.452-.25-.592-.149-.15-.346-.216-.59-.199-.246.017-.431.11-.559.28-.127.158-.183.365-.165.62.018.256.102.459.251.609.15.139.346.2.59.183zm2.68 10.639c-.436.03-.79-.063-1.061-.279-.282-.205-.437-.51-.465-.913-.028-.394.088-.718.349-.971.25-.253.592-.395 1.029-.425.436-.03.79.062 1.062.279.26.216.405.522.433.916l.116 1.66 1.053-.074c.522-.037.766-.284.734-.741l-.149-2.139 1.245-.087.147 2.107c.038.543-.07.983-.325 1.322-.253.349-.635.541-1.146.577l-1.836.129c-.298.02-.532-.044-.703-.192-.17-.138-.264-.34-.283-.606l-.04-.574-.16.01zm-.08-.7c.372-.026.544-.236.517-.63-.028-.394-.228-.577-.6-.551-.383.026-.56.237-.533.63.027.394.233.578.616.55zm9.472-4.047c-.66.046-1.206-.119-1.639-.495-.433-.386-.681-1.021-.742-1.905-.06-.85.154-1.534.642-2.05.498-.526 1.226-.823 2.183-.89l2.73-.19-.036-.511c-.109-1.565-.962-2.29-2.558-2.18-.692.05-1.266.25-1.722.602a3.43 3.43 0 00-1.045 1.34l-.881-.66c.259-.585.678-1.084 1.259-1.5.59-.425 1.385-.673 2.386-.743 1.149-.08 2.057.144 2.725.675.668.52 1.037 1.296 1.11 2.328l.395 5.65-1.277.09-.289-4.134-2.618.183c-.606.043-1.08.22-1.422.533-.332.3-.501.708-.508 1.222a1.74 1.74 0 011.09-.461c.479-.034.877.078 1.195.333.327.255.508.622.542 1.101.033.479-.095.868-.384 1.166-.279.297-.657.463-1.136.496zm-.065-.701c.245-.017.431-.105.559-.264.127-.169.182-.381.164-.637-.018-.255-.101-.452-.25-.592-.15-.15-.347-.216-.592-.199-.244.017-.43.11-.557.28-.128.158-.183.365-.165.62.017.256.101.459.251.609.148.14.345.2.59.183zM8.668 45.269c-.627.044-1.155-.09-1.584-.403-.417-.313-.647-.767-.688-1.363l-.073-1.037c-.157.043-.316.07-.475.081-.511.036-.936-.073-1.274-.328-.339-.254-.525-.62-.558-1.1-.034-.478.1-.867.4-1.166.3-.3.704-.467 1.215-.502.51-.036.936.073 1.274.328.339.254.525.62.558 1.1l.175 2.505c.023.32.12.559.291.718.172.159.39.229.656.21.266-.018.473-.118.621-.3.148-.181.21-.431.188-.75l-.27-3.863c-.052-.745-.326-1.303-.823-1.675-.496-.371-1.149-.529-1.958-.472-.766.053-1.399.252-1.898.597-.501.335-.897.785-1.19 1.35l-.865-.677c.321-.61.794-1.114 1.419-1.51.623-.407 1.473-.648 2.547-.724a5.271 5.271 0 011.612.112c.49.116.903.3 1.242.555.349.254.622.571.82.953.209.381.33.816.364 1.306l.28 3.99c.04.596-.128 1.078-.509 1.447-.37.368-.869.574-1.497.618zm-2.917-3.42c.244-.018.436-.106.575-.266.137-.17.197-.382.18-.638-.018-.255-.107-.452-.266-.59a.771.771 0 00-.608-.199.771.771 0 00-.573.281c-.139.16-.2.367-.181.622.017.256.106.458.266.607.16.139.362.2.607.182zm3.63-7.28c-.51.036-.93-.074-1.257-.329-.33-.266-.51-.638-.544-1.117-.033-.479.095-.867.384-1.165.289-.31.688-.481 1.199-.517.51-.036.93.079 1.259.345.328.255.509.622.542 1.1.034.48-.094.873-.382 1.182-.29.298-.69.465-1.2.501zm-.05-.734c.244-.017.426-.094.545-.23a.727.727 0 00.155-.525l-.018-.255a.671.671 0 00-.226-.482c-.137-.129-.328-.185-.573-.168-.245.017-.426.1-.544.247a.671.671 0 00-.157.508l.018.255c.014.202.09.368.227.497.137.12.328.17.572.153zm8.042 10.633l-.419-5.986c-.044-.638-.243-1.11-.596-1.417-.343-.319-.84-.455-1.488-.41-.543.038-.981.197-1.314.477-.334.27-.599.614-.794 1.034l-.83-.632c.212-.485.562-.9 1.052-1.244.489-.344 1.148-.545 1.978-.603 1-.07 1.779.121 2.334.574.556.453.865 1.127.927 2.02l.427 6.098-1.277.089zm6.173-.24c-.51.036-.93-.073-1.258-.328-.328-.256-.508-.622-.542-1.101l-.514-7.358 1.277-.09.408 5.842a1.17 1.17 0 01.19-.03c.074-.015.148-.026.223-.03.51-.037.93.073 1.258.328.328.255.508.622.542 1.101.033.479-.095.867-.384 1.166-.289.298-.689.465-1.2.5zm0-.705c.244-.017.43-.105.558-.264.127-.169.182-.381.164-.637-.018-.255-.101-.452-.25-.592-.15-.15-.346-.216-.591-.199-.245.017-.43.11-.558.28-.128.158-.183.365-.165.62.018.256.101.459.25.609.15.139.346.2.591.183zm4.61-.772l-.34-4.884a.761.761 0 01-.206.047l-.207.014c-.511.036-.93-.074-1.258-.329-.328-.255-.51-.622-.543-1.1-.033-.48.095-.868.384-1.166.29-.298.69-.465 1.2-.501.51-.036.93.074 1.258.329.328.255.509.622.542 1.1l.448 6.401 2.41-.169c.564-.039.99-.213 1.278-.522.288-.32.413-.75.375-1.293l-.62-8.875 1.276-.089.621 8.875c.059.84-.15 1.512-.629 2.016-.479.494-1.18.773-2.107.837l-5.203.364-.067-.957 1.389-.098zm-.85-5.522c.244-.017.43-.105.558-.263.128-.17.182-.382.164-.637-.017-.256-.1-.453-.25-.592-.149-.15-.346-.217-.59-.2-.246.017-.431.11-.559.28-.128.159-.183.366-.165.621.018.255.102.458.251.608.149.14.346.2.59.183zm.296-3.822a1.339 1.339 0 01-1.034-.344c-.286-.27-.447-.659-.483-1.17-.04-.574.104-1.039.432-1.393.327-.365.8-.57 1.416-.612l2.634-.185.17-1.006 1.212.124-.15.844c-.045.27-.132.48-.26.628-.14.149-.38.235-.72.259l-2.65.185c-.34.024-.6.122-.781.295-.181.163-.26.398-.24.707.018.245.095.432.233.561.136.119.31.17.524.156.447-.031.658-.372.634-1.023l.878-.061c.161.63.526.957 1.095.982l.015-.017a.731.731 0 01-.347-.602.746.746 0 01.229-.625c.16-.161.389-.252.687-.273.33-.023.597.055.802.233a.987.987 0 01.32.683c.028.394-.083.722-.332.986-.249.263-.623.412-1.123.447-.426.03-.805-.029-1.136-.177a1.603 1.603 0 01-.76-.78l-.064.004a1.554 1.554 0 01-.328.809c-.188.216-.48.338-.873.365zm3.611-1.118a.533.533 0 00.358-.154.533.533 0 00.102-.376.475.475 0 00-.152-.342.498.498 0 00-.377-.118.447.447 0 00-.341.168.447.447 0 00-.12.361c.011.15.067.268.17.357.091.08.211.114.36.104zm13.872 10.433c-.511.036-.93-.079-1.26-.345-.328-.265-.51-.638-.543-1.116v-.016l-2.887 1.613-1.213.085-.409-5.842a.762.762 0 01-.205.047l-.207.014c-.511.036-.93-.074-1.258-.33-.328-.254-.51-.621-.543-1.1-.033-.479.095-.867.384-1.166.29-.298.69-.465 1.2-.5.51-.036.93.073 1.258.329.328.255.509.622.542 1.1l.443 6.337.064-.005 3.581-1.998-.416-5.954 1.277-.089.347 4.964c.008.117.012.245.01.384 0 .14-.033.28-.098.424.43.023.782.165 1.056.423.275.26.428.607.458 1.043.034.479-.094.873-.382 1.182-.289.308-.688.48-1.2.516zm-.05-.702c.267-.018.464-.102.593-.25a.708.708 0 00.185-.558l-.018-.255a.708.708 0 00-.261-.528c-.148-.128-.355-.183-.621-.165-.266.02-.469.103-.608.252a.736.736 0 00-.17.557l.018.255c.016.223.098.4.246.528.158.128.37.183.637.164zm-6.771-5.557c.244-.017.43-.105.558-.264.128-.169.182-.381.164-.637-.017-.255-.1-.452-.25-.592-.149-.15-.346-.216-.59-.199-.246.017-.431.11-.559.28-.128.158-.183.365-.165.62.018.256.102.459.251.609.149.14.346.2.59.183zm14.492 5.723a4.032 4.032 0 01-1.29-.102 2.973 2.973 0 01-1.028-.474 2.47 2.47 0 01-.681-.802 2.654 2.654 0 01-.3-1.086c-.037-.521.034-.96.212-1.314.178-.365.419-.745.722-1.141.284-.373.497-.698.638-.975.14-.288.198-.613.172-.974-.03-.447-.192-.762-.483-.945-.291-.193-.687-.273-1.187-.238a2.49 2.49 0 00-.837.187l.037.078a.475.475 0 01.11-.024.594.594 0 01.143-.026c.352-.025.652.061.9.258.249.186.386.465.412.837.026.373-.08.7-.316.985-.226.283-.568.44-1.026.472-.457.032-.823-.081-1.098-.34-.265-.27-.413-.629-.444-1.075a1.906 1.906 0 01.106-.778c.088-.263.227-.497.416-.703.2-.206.444-.373.735-.5.3-.139.642-.221 1.025-.248.798-.056 1.423.093 1.876.446.452.353.7.85.745 1.488.032.457-.02.846-.159 1.166-.138.32-.349.666-.633 1.038-.264.35-.47.68-.62.99-.15.3-.212.646-.184 1.04l.014.207c.036.51.22.915.55 1.212.331.298.8.426 1.406.383.607-.042 1.068-.256 1.383-.642.314-.396.45-.892.41-1.488l-.417-5.953 1.277-.09.42 6.002c.03.436-.022.84-.156 1.214a2.703 2.703 0 01-.607.956c-.259.275-.58.495-.964.661-.384.166-.81.265-1.279.298zm-3.815-5.94c.212-.015.373-.09.481-.226a.77.77 0 00.154-.556c-.016-.224-.092-.395-.229-.514-.127-.13-.296-.188-.51-.173a.663.663 0 00-.495.243c-.108.136-.155.316-.14.54.017.223.088.4.214.53.137.119.312.17.525.156zm13.727 5.247c-1.127.079-2.01-.073-2.646-.457-.625-.384-.968-1.007-1.029-1.868l-.125-1.788c-.036-.521.09-.947.376-1.277.287-.33.686-.514 1.197-.55.51-.035.93.075 1.258.33.328.255.508.622.542 1.1.033.48-.095.868-.384 1.166-.289.299-.689.465-1.2.501l-.223.016a.604.604 0 01-.194-.019l.038.543c.033.479.198.842.493 1.088.305.236.745.333 1.32.293l1.021-.072c.575-.04.991-.197 1.25-.472.269-.286.387-.668.353-1.147l-.226-3.24c-.053-.756-.334-1.335-.844-1.738-.498-.403-1.173-.575-2.025-.516-.766.054-1.393.258-1.881.613-.479.344-.84.764-1.083 1.263l-.862-.63c.281-.565.739-1.057 1.372-1.475.645-.42 1.478-.665 2.5-.736.595-.042 1.133 0 1.612.128.49.126.91.32 1.26.585.36.264.646.596.856.999.209.392.331.843.367 1.353l.223 3.193c.06.862-.198 1.527-.774 1.995-.567.467-1.414.74-2.542.819zm-2.01-3.517c.256-.017.452-.111.59-.281.149-.171.213-.39.195-.656-.019-.266-.113-.473-.284-.621-.16-.15-.368-.215-.623-.197a.844.844 0 00-.606.283c-.138.17-.198.388-.18.654.02.266.109.474.269.623.17.148.384.213.64.196zm10.455 2.734l-3.327-6.055 1.389-.097 2.829 5.127 1.356-.095-.341-4.884a.762.762 0 01-.206.047c-.063.004-.133.01-.207.014-.51.036-.93-.074-1.258-.329-.328-.255-.509-.622-.542-1.1-.034-.48.094-.868.383-1.166.29-.298.69-.465 1.2-.501.511-.036.93.074 1.258.329.328.255.51.622.543 1.1l.514 7.359-3.591.25zm1.396-6.642c.245-.017.431-.105.559-.263.127-.17.182-.382.164-.637-.018-.256-.101-.453-.25-.592-.15-.15-.347-.217-.591-.2-.245.018-.431.11-.558.28-.128.159-.183.366-.165.621.018.255.101.458.25.608.15.14.346.2.591.183zm7.789 6.192c-.511.036-.93-.074-1.258-.329-.328-.255-.509-.622-.542-1.1l-.58-8.3-2.297-.722-.017-.256c-.034-.478.01-.915.133-1.308a2.83 2.83 0 01.585-1.035 3.01 3.01 0 01.96-.71 3.46 3.46 0 011.246-.31c.734-.052 1.343.023 1.828.224a3.82 3.82 0 011.262.842l-.745.822a3.02 3.02 0 00-.882-.692c-.356-.2-.795-.281-1.316-.245a2.623 2.623 0 00-.759.166c-.24.091-.444.218-.615.38-.17.161-.306.363-.406.605a2.03 2.03 0 00-.133.86l1.719.489c.218.07.385.166.5.286.127.12.198.301.215.546l.472 6.752c.064-.016.127-.025.19-.03.075-.016.149-.026.223-.031.511-.036.93.074 1.258.329.328.255.509.622.542 1.1.034.48-.094.868-.383 1.166-.29.298-.69.465-1.2.501zm-.002-.706c.245-.017.432-.105.56-.263.127-.17.181-.382.163-.637-.017-.256-.1-.453-.25-.592-.149-.15-.346-.216-.59-.2-.246.018-.431.11-.559.28-.128.159-.183.366-.165.621.018.256.102.458.251.608.149.14.346.2.59.183zm7.29.196c-.51.036-.935-.073-1.273-.328-.34-.264-.526-.636-.56-1.115-.033-.479.1-.868.4-1.167.299-.31.704-.482 1.215-.518.149-.01.299-.005.45.017l-.048-.687c-.028-.393-.127-.664-.297-.813-.171-.148-.481-.223-.93-.224l-4.108-.017-.052-.75c-.036-.511.023-.97.176-1.376.154-.406.386-.754.697-1.043a3.44 3.44 0 011.155-.69c.459-.171.98-.277 1.566-.318.84-.059 1.568.03 2.183.264.615.224 1.058.514 1.328.87l-.663.832c-.3-.321-.661-.58-1.08-.775-.411-.206-.962-.285-1.654-.237-.776.054-1.399.253-1.866.596-.459.331-.664.827-.618 1.486l.013.192 3.111-.009c.363-.004.68.027.953.094.282.055.519.156.71.303.193.147.34.35.444.61.114.25.184.565.211.948l.152 2.17c.033.48-.1.874-.399 1.183-.3.3-.705.467-1.216.502zm-.22-2.454a.844.844 0 00-.605.283c-.138.17-.197.393-.178.67.02.276.11.49.27.639.17.148.383.213.639.195.255-.017.452-.111.59-.281.148-.171.213-.395.193-.672-.02-.276-.114-.489-.285-.637-.16-.15-.368-.215-.623-.197zm6.816 1.8l-3.327-6.054 1.389-.097 2.828 5.127 1.357-.095-.342-4.884a.761.761 0 01-.205.047l-.207.014c-.511.036-.93-.074-1.258-.329-.328-.255-.509-.622-.543-1.1-.033-.48.095-.868.384-1.166.29-.299.69-.466 1.2-.501.51-.036.93.074 1.258.329.328.255.509.622.542 1.1l.515 7.359-3.591.25zm1.396-6.64c.244-.018.43-.106.559-.264.127-.17.181-.382.164-.637-.018-.256-.102-.453-.25-.592-.15-.15-.347-.217-.592-.2-.244.017-.43.11-.558.28-.127.159-.182.366-.165.621.018.255.102.458.251.608.15.14.346.2.59.183zm7.15 6.236c-.511.035-.93-.074-1.258-.33-.328-.255-.509-.621-.542-1.1l-.515-7.358 1.277-.09.409 5.842c.063-.015.126-.025.19-.03.074-.015.148-.026.222-.03.511-.036.931.073 1.258.328.328.255.509.622.543 1.101.033.479-.095.867-.384 1.166-.289.298-.689.465-1.2.5zm-.001-.706c.244-.017.431-.105.559-.264.127-.169.182-.381.164-.637-.018-.255-.101-.452-.25-.592-.15-.15-.347-.216-.592-.199-.244.017-.43.11-.557.28-.128.158-.183.365-.165.62.017.256.101.459.251.609.148.139.345.2.59.183zm7.289.196c-.511.036-.935-.074-1.274-.328-.339-.265-.526-.637-.559-1.116-.034-.478.1-.867.399-1.166.3-.31.705-.483 1.215-.518.149-.01.299-.005.451.016l-.048-.686c-.028-.394-.127-.665-.298-.813-.171-.149-.481-.223-.93-.224l-4.107-.017-.052-.75c-.036-.511.023-.97.176-1.376.153-.407.386-.754.697-1.044.311-.289.696-.519 1.155-.69.458-.17.98-.277 1.565-.318.841-.059 1.569.03 2.184.265.614.224 1.057.514 1.328.87l-.664.831a3.45 3.45 0 00-1.08-.774c-.41-.207-.961-.286-1.653-.237-.777.054-1.399.253-1.867.595-.458.332-.664.827-.618 1.487l.014.192 3.111-.01c.363-.004.681.028.953.094.281.055.518.156.71.303.192.147.34.35.444.611.114.249.184.565.211.948l.151 2.17c.034.48-.099.873-.398 1.183-.3.299-.705.466-1.216.502zm-.22-2.455a.842.842 0 00-.605.283c-.138.17-.197.394-.178.67.019.277.109.49.269.64a.844.844 0 00.639.195c.256-.018.452-.112.59-.282.149-.17.213-.394.194-.671-.02-.277-.115-.49-.285-.638-.161-.149-.368-.215-.624-.197zm-6.02-8.143a2.513 2.513 0 01.162-1.119c.136-.351.345-.654.626-.91a3.28 3.28 0 011.032-.617 4.555 4.555 0 011.359-.287c.628-.044 1.168.03 1.619.223.441.183.781.454 1.02.811l.047-.003-.137-1.963 1.245-.088.267 3.815-7.215.505-.025-.367zm3.49-1.929c-.66.046-1.21.203-1.652.469-.452.256-.709.563-.769.92l5.027-.352c-.109-.345-.401-.614-.874-.805-.484-.201-1.062-.279-1.732-.232zm9.85 8.02a1.39 1.39 0 00-.992.487 1.409 1.409 0 00-.343 1.067c.034.479.209.851.527 1.118.329.265.813.376 1.451.331l.718-.05c.639-.045 1.107-.232 1.404-.563.308-.343.442-.79.404-1.344l-.432-6.177 1.277-.089.423 6.05c.067.957-.202 1.697-.807 2.221-.595.512-1.452.807-2.569.885-1.117.079-1.993-.063-2.628-.425-.636-.373-.979-.932-1.031-1.676-.032-.447.065-.818.291-1.111.236-.295.551-.526.946-.692l-.005-.064c-.478-.116-.836-.337-1.072-.663-.237-.325-.373-.733-.407-1.222l-.057-.814c-.049-.703.095-1.253.43-1.65.335-.409.806-.634 1.413-.677.478-.033.876.078 1.194.334.328.255.508.622.542 1.1.033.48-.095.868-.384 1.166-.289.299-.689.466-1.2.501-.298.021-.569-.03-.812-.151l.004.063c.015.213.044.393.086.54a.787.787 0 00.201.355c.092.09.22.155.383.197.173.031.393.037.659.018l1.037-.072.067.958-.718.05zm-.908-2.662c.245-.018.431-.105.559-.264.127-.17.182-.382.164-.637-.018-.255-.101-.453-.25-.592-.149-.15-.347-.216-.591-.2-.245.018-.431.111-.558.28-.128.159-.183.366-.165.621.018.256.101.458.251.608.149.14.345.2.59.184zm15.634 5.643c-.511.035-.931-.08-1.26-.345-.328-.266-.509-.638-.543-1.117l-.001-.016-2.886 1.613-1.213.085-.409-5.842a.754.754 0 01-.205.047c-.064.004-.133.01-.208.014-.51.036-.93-.074-1.258-.329-.328-.255-.508-.622-.542-1.1-.033-.48.095-.868.384-1.166.289-.298.689-.465 1.2-.501.511-.036.93.074 1.258.329.328.255.508.622.542 1.1l.443 6.337.064-.004 3.581-1.999-.416-5.953 1.277-.09.347 4.964c.008.117.012.245.011.385a1.04 1.04 0 01-.099.423c.429.024.781.165 1.056.424s.428.606.458 1.042c.033.48-.094.873-.383 1.182-.288.309-.688.481-1.198.517zm-.049-.703c.266-.018.463-.101.592-.25a.707.707 0 00.185-.558l-.018-.255a.708.708 0 00-.261-.527c-.148-.129-.355-.184-.621-.165-.266.018-.469.102-.608.25a.737.737 0 00-.17.558l.018.255c.016.224.098.4.246.529.158.127.371.182.637.163zm-6.773-5.557c.245-.017.431-.105.559-.263.128-.17.182-.382.164-.637-.018-.256-.101-.453-.25-.592-.149-.15-.346-.217-.591-.2-.245.018-.431.11-.558.28-.128.159-.183.366-.165.621.018.255.102.458.251.608.149.14.346.2.59.183zM8.758 137.23c-.238-.651-.227-1.245.032-1.782.265-.551.778-.965 1.54-1.242l2.069.865 1.028-1.992c.762-.278 1.416-.289 1.963-.034.553.242.949.688 1.186 1.34l2.265 6.224-1.202.438-2.2-6.044c-.139-.381-.344-.647-.614-.798-.265-.165-.56-.199-.889-.103l-1.11 2.141-2.228-.926a1.1 1.1 0 00-.63.655c-.1.286-.08.62.058 1.001l1.904 5.232.902-.328.692-1.75.233-.528c-.389.085-.737.047-1.046-.113-.297-.164-.516-.436-.655-.817-.153-.421-.145-.805.025-1.15.18-.349.49-.604.93-.764.442-.161.838-.163 1.19-.008.362.153.62.439.772.86.106.291.13.577.074.858-.056.282-.15.6-.282.955l-1.216 3.115-2.526.92-2.265-6.225zm5.036 1.675c.22-.081.365-.213.435-.397.079-.188.077-.397-.007-.627-.084-.231-.217-.393-.398-.486-.172-.096-.368-.104-.588-.024-.22.08-.37.214-.45.402-.069.184-.062.391.022.622.084.231.212.394.383.491.181.093.382.099.603.019zm11.95-.604c-.481.175-.92.187-1.315.036-.4-.161-.681-.467-.845-.918-.164-.451-.143-.862.062-1.232.203-.38.544-.658 1.025-.833.14-.051.286-.087.438-.108l-.236-.646c-.135-.371-.305-.604-.51-.7-.205-.096-.523-.082-.955.041l-3.953 1.115-.257-.706c-.175-.481-.245-.938-.21-1.371.035-.433.163-.831.383-1.195.219-.364.526-.691.92-.982a5.59 5.59 0 011.416-.737c.792-.288 1.516-.404 2.172-.348.653.046 1.158.203 1.517.47l-.409.983a3.458 3.458 0 00-1.252-.447c-.451-.085-1.002-.01-1.654.228-.732.266-1.275.628-1.63 1.087-.35.445-.41.978-.185 1.599l.066.181 2.988-.866a3.86 3.86 0 01.942-.173c.286-.025.542.007.767.095.225.089.423.244.595.465.177.208.332.492.463.853l.744 2.045c.165.451.146.866-.057 1.246-.206.37-.549.643-1.03.818zm-.888-2.299a.846.846 0 00-.504.439c-.086.202-.081.433.014.693.095.261.24.441.434.54a.84.84 0 00.669.012c.24-.087.404-.232.49-.433.095-.205.095-.438 0-.699-.095-.261-.244-.439-.45-.534-.195-.1-.412-.105-.653-.018zm8.606-.51c-.482.175-.915.185-1.3.031-.386-.155-.66-.458-.825-.909-.164-.451-.148-.86.047-1.226.196-.367.535-.638 1.016-.813.07-.025.137-.044.2-.056.061-.022.128-.04.202-.056l-1.062-2.917c-.219-.601-.542-1.006-.97-1.213-.427-.208-.946-.2-1.558.022-.51.186-.893.461-1.146.826a2.841 2.841 0 00-.478 1.213l-.973-.379c.07-.525.293-1.02.669-1.486.385-.469.969-.846 1.75-1.131.943-.343 1.745-.368 2.408-.076.672.289 1.162.854 1.468 1.696l1.615 4.436c.164.451.148.859-.048 1.226-.196.366-.534.637-1.015.812zm-.286-.645c.23-.084.385-.22.464-.408.076-.197.07-.416-.018-.657-.087-.241-.222-.407-.403-.5-.185-.103-.393-.113-.623-.029-.23.084-.384.225-.46.423-.079.188-.075.402.013.642.087.241.224.413.409.516.181.092.387.097.618.013zm9.07-2.552c-.591.215-1.136.232-1.634.05-.487-.186-.833-.56-1.037-1.121l-.356-.977c-.14.084-.284.154-.435.209-.48.175-.92.187-1.315.036-.395-.151-.675-.452-.84-.903-.164-.451-.143-.862.063-1.232s.55-.643 1.03-.818c.482-.175.92-.187 1.316-.036.395.151.675.452.84.904l.858 2.36c.11.301.269.504.478.61.208.105.438.112.689.021.25-.091.421-.244.513-.459.092-.215.084-.473-.026-.774l-1.324-3.638c-.256-.702-.673-1.163-1.253-1.383-.58-.221-1.25-.192-2.012.085-.721.263-1.275.629-1.66 1.098a3.544 3.544 0 00-.77 1.626l-1.02-.413c.14-.675.456-1.29.947-1.843.488-.563 1.238-1.029 2.25-1.398a5.272 5.272 0 011.58-.336c.502-.024.951.04 1.347.191.405.147.756.377 1.051.69.305.309.542.694.71 1.155l1.368 3.758c.204.562.174 1.072-.09 1.531-.254.456-.677.792-1.268 1.007zm-3.748-2.484c.23-.084.39-.222.48-.413.086-.202.085-.423-.003-.663-.087-.241-.227-.406-.418-.495a.772.772 0 00-.639-.023.773.773 0 00-.474.428c-.09.192-.09.407-.003.648.088.241.23.411.424.51.192.089.403.092.633.008zm12.413-5.284l-2.466.897c-.571.208-.978.51-1.22.904-.236.381-.287.82-.152 1.315.213-.35.52-.598.922-.744.45-.164.864-.167 1.24-.008.385.155.66.458.824.909.164.451.148.859-.048 1.226-.185.363-.504.626-.955.79-.621.226-1.192.218-1.711-.024-.523-.252-.937-.794-1.24-1.626-.291-.802-.274-1.518.053-2.148.334-.643.951-1.129 1.854-1.458l2.57-.935-.175-.481c-.536-1.474-1.556-1.937-3.06-1.39-.65.237-1.147.588-1.489 1.053a3.434 3.434 0 00-.635 1.577l-1.028-.392c.087-.634.353-1.23.796-1.789.45-.572 1.146-1.03 2.089-1.373.892-.324 1.705-.399 2.438-.223l-.558-1.534 1.218-.443.372 1.022c.19.522.095.948-.284 1.278.6.372 1.043.949 1.328 1.731l1.937 5.322-1.203.438-1.417-3.894zm-2.11 4.633c.23-.084.385-.22.464-.407.075-.198.07-.417-.018-.658-.088-.24-.222-.407-.403-.5-.185-.103-.393-.113-.624-.029-.23.084-.383.225-.459.423-.08.188-.075.402.013.642.087.241.223.413.408.516.182.093.388.097.618.013zm11.232-3.339c-1.062.387-1.952.483-2.67.29-.707-.196-1.208-.7-1.504-1.512l-.613-1.684c-.178-.491-.175-.935.01-1.332.185-.396.518-.682.999-.857.48-.175.914-.185 1.3-.031.385.155.66.458.824.909.164.451.149.86-.047 1.226-.196.367-.535.638-1.016.813l-.21.076a.605.605 0 01-.192.036l.186.511c.165.451.423.755.774.91.359.142.808.115 1.35-.082l.962-.35c.541-.197.898-.464 1.071-.799.18-.349.188-.749.023-1.2l-1.11-3.052c-.26-.712-.69-1.191-1.29-1.438-.59-.25-1.287-.23-2.089.062-.721.263-1.268.632-1.64 1.108a3.35 3.35 0 00-.692 1.512l-1.003-.367c.115-.621.42-1.22.913-1.797.504-.581 1.237-1.046 2.2-1.396a4.923 4.923 0 011.585-.322 3.51 3.51 0 011.372.216c.42.153.785.395 1.098.724.31.319.551.719.726 1.2l1.095 3.007c.295.812.23 1.522-.195 2.131-.415.605-1.154 1.101-2.217 1.488zm-2.901-2.826c.24-.088.403-.232.489-.434.096-.205.098-.433.006-.683-.09-.251-.239-.424-.444-.519-.195-.1-.413-.106-.653-.018a.846.846 0 00-.505.439c-.085.201-.082.427.009.678.091.251.234.425.43.525a.85.85 0 00.668.012zm9.614-.843l-1.68-4.616a.873.873 0 01-.164.111l-.21.076c-.482.175-.915.186-1.3.031-.386-.155-.661-.458-.825-.909-.164-.451-.149-.86.047-1.226.196-.367.535-.637 1.016-.812.48-.176.914-.186 1.3-.031.385.155.66.458.824.909l2.195 6.029 2.27-.826c.531-.194.893-.479 1.085-.855.189-.387.19-.835.004-1.347l-2.08-5.713 1.203-.438 2.08 5.714c.288.792.272 1.496-.05 2.112-.323.606-.921 1.068-1.793 1.385l-4.902 1.784-.328-.902 1.308-.476zm-2.34-5.074c.23-.084.385-.22.464-.407.076-.198.07-.417-.018-.658-.088-.24-.222-.407-.403-.5-.185-.103-.393-.112-.624-.029-.23.084-.383.225-.459.423-.08.188-.075.402.013.642.087.241.224.413.409.516.18.093.387.097.617.013zm-38.21 44.47c-.48.175-.914.185-1.3.031-.385-.155-.66-.458-.824-.909l-2.845-7.818-2.406-.061-.088-.241a3.55 3.55 0 01-.233-1.294c.016-.426.108-.811.278-1.157.175-.359.418-.674.728-.946.31-.272.68-.486 1.111-.643.692-.251 1.298-.347 1.82-.287a3.83 3.83 0 011.445.461l-.49.996a3.025 3.025 0 00-1.038-.423c-.398-.093-.842-.051-1.333.128a2.62 2.62 0 00-.684.368 1.827 1.827 0 00-.486.535c-.12.202-.194.433-.224.694-.03.261.006.548.11.863l1.786-.004c.23.008.417.053.56.137.155.08.274.235.358.466l2.314 6.36c.057-.032.115-.059.175-.081.067-.036.135-.066.205-.092.481-.175.915-.185 1.3-.03.386.155.66.458.825.909.164.451.148.859-.048 1.226-.195.366-.534.637-1.015.812zm-.195-.678c.23-.084.386-.22.465-.407.075-.198.07-.417-.018-.658-.088-.24-.222-.407-.404-.5-.184-.103-.392-.112-.623-.029-.23.084-.383.225-.459.423-.08.188-.075.402.012.642.088.241.224.413.41.516.18.093.387.097.617.013zm7.062-1.821c-.481.175-.92.187-1.315.036-.4-.161-.681-.467-.845-.918-.165-.451-.144-.862.062-1.232.202-.38.544-.658 1.025-.833.14-.051.286-.087.438-.108l-.236-.646c-.135-.371-.305-.604-.51-.7-.205-.096-.523-.082-.955.041l-3.953 1.115-.258-.706c-.175-.481-.244-.938-.209-1.371.035-.433.163-.831.382-1.195.22-.364.526-.691.92-.982a5.59 5.59 0 011.417-.737c.792-.288 1.516-.404 2.172-.348.653.046 1.158.203 1.517.47l-.409.983a3.459 3.459 0 00-1.252-.447c-.451-.085-1.003-.009-1.654.228-.732.266-1.275.628-1.63 1.087-.35.445-.41.978-.185 1.599l.066.181 2.988-.866a3.86 3.86 0 01.942-.173c.286-.025.542.007.767.096a1.4 1.4 0 01.594.464c.178.208.333.492.464.853l.744 2.045c.164.451.145.866-.057 1.246-.206.37-.55.643-1.03.818zm-.888-2.299a.846.846 0 00-.504.439c-.086.202-.081.433.014.693.094.261.24.441.434.54a.84.84 0 00.669.012c.24-.087.404-.232.49-.433.095-.205.095-.438 0-.699-.095-.26-.245-.439-.45-.534-.195-.099-.413-.105-.653-.018zm7.047-.147l-4.866-4.903 1.308-.476 4.132 4.149 1.278-.466-1.675-4.6a.781.781 0 01-.184.101l-.196.071c-.48.175-.914.185-1.3.03-.385-.154-.66-.457-.824-.908-.164-.451-.148-.86.047-1.226.196-.367.535-.638 1.016-.813.48-.175.914-.185 1.3-.03.385.155.66.458.824.909l2.523 6.931-3.383 1.231zm-.488-6.769c.23-.084.385-.22.464-.408.076-.197.07-.417-.018-.657-.087-.241-.222-.407-.403-.5-.185-.103-.393-.113-.623-.029-.231.084-.384.225-.46.423-.079.187-.075.402.013.642.087.241.224.412.409.515.181.093.387.098.618.014zm8.592 4.024c-.481.175-.915.185-1.3.03-.386-.155-.66-.457-.825-.909l-2.522-6.931 1.202-.437 2.003 5.502c.057-.032.115-.058.175-.08.067-.036.135-.066.205-.092.481-.175.915-.185 1.3-.03.386.154.66.457.825.908.164.451.148.86-.048 1.227-.196.366-.534.637-1.015.812zm-.196-.678c.23-.084.386-.22.465-.408.075-.197.07-.417-.018-.657-.088-.241-.222-.407-.404-.5-.184-.103-.392-.113-.623-.029-.23.084-.383.225-.459.423-.08.187-.075.402.012.642.088.241.224.412.41.515.18.093.387.098.617.014zm7.061-1.821c-.481.175-.92.187-1.315.036-.4-.161-.68-.467-.845-.918-.164-.451-.143-.862.063-1.232.202-.38.544-.658 1.025-.833.14-.051.286-.087.437-.108l-.235-.646c-.135-.371-.305-.605-.51-.7-.206-.096-.524-.082-.956.041l-3.953 1.115-.257-.706c-.175-.481-.245-.938-.21-1.371.036-.433.163-.831.383-1.195.22-.364.526-.691.92-.982a5.59 5.59 0 011.417-.737c.792-.288 1.516-.404 2.172-.348.652.046 1.158.203 1.516.47l-.409.983a3.459 3.459 0 00-1.252-.447c-.45-.085-1.002-.01-1.654.228-.731.266-1.275.628-1.63 1.087-.35.445-.41.978-.184 1.599l.065.181 2.988-.867c.348-.104.662-.161.942-.172.286-.025.542.007.767.095.225.089.423.244.595.465.178.208.332.492.463.853l.745 2.045c.164.451.145.866-.057 1.246-.206.37-.55.643-1.03.818zm-.888-2.299a.846.846 0 00-.504.439c-.086.201-.08.432.014.693.095.261.24.441.435.54a.84.84 0 00.668.012c.24-.088.404-.232.49-.433.095-.206.096-.438 0-.699-.094-.261-.244-.439-.45-.534-.194-.1-.412-.105-.653-.018zm-8.032-6.169a2.501 2.501 0 01-.152-1.119 2.36 2.36 0 01.351-1.048c.2-.322.474-.615.822-.877a4.556 4.556 0 011.227-.651c.591-.216 1.13-.293 1.618-.232.474.055.875.221 1.203.499l.045-.017-.673-1.849 1.173-.427 1.308 3.593-6.796 2.474-.126-.346zm2.824-2.815c-.622.226-1.108.528-1.459.905-.364.371-.526.737-.486 1.097l4.736-1.724c-.2-.302-.555-.479-1.062-.533-.521-.06-1.098.025-1.73.255zm11.679 4.994c-.38.139-.654.386-.82.742a1.41 1.41 0 00-.035 1.119c.164.451.436.761.815.929.389.165.884.138 1.486-.081l.676-.246c.602-.219 1-.528 1.195-.928.201-.414.207-.882.017-1.403l-2.118-5.819 1.203-.437 2.074 5.698c.328.902.274 1.688-.163 2.358-.431.656-1.173 1.176-2.225 1.559-1.053.383-1.934.488-2.644.315-.713-.183-1.198-.625-1.453-1.327-.153-.421-.162-.803-.027-1.148.146-.348.386-.657.72-.926l-.023-.06c-.492.02-.896-.093-1.214-.341-.317-.248-.56-.602-.727-1.063l-.28-.767c-.24-.662-.254-1.23-.04-1.705.209-.485.599-.831 1.17-1.039.451-.164.865-.167 1.24-.009.386.155.66.458.825.909.164.451.148.86-.048 1.226-.196.367-.534.638-1.015.813-.28.102-.555.128-.823.078l.022.06c.073.2.15.365.231.495a.792.792 0 00.291.285c.113.061.254.09.423.085.175-.018.387-.073.638-.164l.977-.356.329.902-.677.246zm-1.607-2.309c.23-.084.386-.22.465-.408.075-.198.07-.417-.018-.657-.088-.241-.222-.408-.404-.501-.185-.102-.392-.112-.623-.028-.23.084-.384.225-.46.422-.078.188-.074.402.013.643.088.241.224.412.41.515.18.093.387.098.617.014zm16.584 1.115c-.482.175-.917.18-1.306.015-.39-.164-.666-.472-.83-.923l-.005-.015-2.33 2.346-1.143.416-2.003-5.503a.75.75 0 01-.184.101l-.196.071c-.481.176-.914.186-1.3.031-.385-.155-.66-.458-.824-.909-.165-.451-.149-.86.047-1.226s.534-.637 1.015-.812c.482-.175.915-.186 1.3-.031.386.155.66.458.825.909l2.173 5.969.06-.022 2.891-2.908-2.04-5.608 1.202-.438 1.702 4.676c.04.11.079.232.116.366.038.134.045.279.022.435.42-.096.797-.058 1.132.116.335.173.578.465.727.876.165.451.15.864-.042 1.241-.192.376-.528.652-1.01.827zm-.241-.661c.25-.092.417-.226.5-.404a.708.708 0 00.024-.588l-.087-.24a.707.707 0 00-.397-.435c-.177-.083-.392-.079-.642.013-.25.091-.422.227-.515.409a.735.735 0 00-.01.582l.088.24a.732.732 0 00.381.44c.188.08.407.074.658-.017zm-8.042-3.476c.23-.084.386-.219.465-.407.075-.198.07-.417-.018-.658-.088-.24-.222-.407-.404-.5-.184-.103-.392-.112-.623-.028-.23.083-.383.224-.459.422-.08.188-.075.402.013.643.087.24.223.412.408.515.182.093.388.097.618.013z"/><g filter="url(#a)"><path fill="#FFCE4F" d="M6.353 52.839l125.693-8.79 3.837 54.867-125.693 8.789z"/><ellipse cx="71.55" cy="76.349" fill="#ECF7F7" rx="56.221" ry="22" transform="rotate(-4 71.55 76.349)"/><path fill="#3C55AB" d="M41.762 89.925c-3.67.256-6.519-.498-8.548-2.262-2.03-1.784-3.169-4.429-3.414-7.934-.245-3.504.514-6.272 2.279-8.3 1.762-2.05 4.478-3.204 8.148-3.46 3.67-.257 6.52.507 8.55 2.291 2.03 1.764 3.167 4.399 3.412 7.904.245 3.504-.513 6.282-2.276 8.332-1.764 2.029-4.48 3.172-8.15 3.429zm-.363-5.196c1.34-.093 2.276-.635 2.808-1.626.53-1.01.727-2.485.591-4.423-.137-1.958-.537-3.39-1.201-4.297-.664-.907-1.667-1.313-3.007-1.22-1.34.094-2.276.636-2.807 1.626-.532.99-.729 2.465-.592 4.423.136 1.938.536 3.37 1.202 4.298.664.907 1.666 1.313 3.006 1.22zm15.543 3.668c-.68.048-1.175-.063-1.484-.331-.288-.27-.453-.704-.495-1.302L53.74 69.261c-.041-.598.062-1.05.31-1.358.268-.309.742-.487 1.422-.535l7.391-.516c3.093-.217 5.383.245 6.872 1.384 1.507 1.117 2.348 2.912 2.52 5.386.174 2.474-.409 4.369-1.746 5.685-1.317 1.314-3.511 2.079-6.583 2.293l-1.856.13.316 4.515c.042.598-.071 1.051-.34 1.36-.248.307-.722.486-1.423.535l-3.68.257zm5.935-12.006c.66-.046 1.163-.258 1.51-.634.367-.378.526-.917.477-1.618-.05-.722-.284-1.244-.7-1.567-.396-.325-.924-.464-1.583-.418l-2.103.147.296 4.237 2.103-.147zm13.74 10.63c-.68.048-1.175-.063-1.484-.331-.288-.27-.453-.704-.495-1.302l-1.224-17.503c-.042-.598.061-1.05.309-1.358.268-.309.743-.487 1.423-.534l12.803-.896c.66-.046 1.113.068 1.36.34.266.251.42.686.464 1.304l.12 1.732c.044.618-.048 1.08-.275 1.386-.208.284-.642.45-1.302.496l-7.236.505.186 2.66 4.453-.311c.66-.047 1.113.067 1.36.34.266.25.421.685.464 1.303l.117 1.67c.043.619-.049 1.081-.276 1.387-.208.284-.642.449-1.302.495l-4.453.311.186 2.66 7.206-.504c.66-.046 1.113.067 1.36.34.266.25.42.685.464 1.304l.12 1.731c.044.619-.048 1.081-.275 1.387-.208.284-.642.449-1.302.495l-12.772.893zm18.375-1.285c-.68.048-1.175-.063-1.483-.331-.289-.27-.454-.704-.495-1.302L91.787 66.57c-.041-.598.062-1.04.312-1.327.268-.309.753-.488 1.454-.537l2.938-.205c.433-.03.767.008 1.002.116.255.086.507.286.757.6l6.179 7.927-.517-7.39c-.042-.599.061-1.051.309-1.359.269-.308.743-.487 1.423-.534l3.68-.257c.701-.05 1.196.061 1.484.33.307.249.483.682.526 1.3l1.226 17.535c.042.597-.071 1.05-.34 1.36-.249.286-.724.454-1.425.503l-2.938.206c-.433.03-.777.002-1.031-.084-.236-.107-.478-.318-.728-.632l-6.18-7.928.52 7.422c.041.598-.072 1.052-.34 1.36-.25.287-.725.455-1.426.504l-3.68.257z"/></g><g filter="url(#b)"><ellipse cx="119.79" cy="128.561" fill="#6BC9FF" rx="33.5" ry="33" transform="rotate(9 119.79 128.561)"/><ellipse cx="170.163" cy="136.54" fill="#6BC9FF" rx="33.5" ry="33" transform="rotate(9 170.163 136.54)"/><path fill="#3C55AB" d="M115.003 139.411c-2.899-.459-5.16-1.508-6.784-3.146-.216-.223-.306-.446-.27-.671.029-.183.161-.424.397-.721l1.948-2.391c.255-.294.496-.424.72-.388.143.022.333.147.569.372.863.89 1.744 1.407 2.642 1.549 1.388.22 2.187-.334 2.398-1.661l1.964-12.4c.093-.592.295-1.01.606-1.254.331-.24.833-.307 1.507-.2l3.644.577c.694.11 1.151.329 1.371.656.244.311.317.772.22 1.385l-1.974 12.462c-.342 2.163-1.289 3.781-2.84 4.854-1.548 1.052-3.587 1.378-6.118.977zm20.924 3.314c-3.633-.576-6.24-1.951-7.821-4.126-1.577-2.196-2.091-5.029-1.541-8.499.549-3.47 1.912-5.995 4.087-7.576 2.179-1.601 5.085-2.114 8.718-1.538 3.633.575 6.239 1.961 7.816 4.157 1.581 2.175 2.096 4.998 1.546 8.468-.549 3.47-1.913 6.006-4.092 7.606-2.175 1.581-5.08 2.083-8.713 1.508zm.815-5.144c1.326.21 2.36-.107 3.101-.953.744-.865 1.268-2.257 1.572-4.176.307-1.939.239-3.425-.205-4.458-.443-1.033-1.328-1.654-2.655-1.864-1.326-.21-2.36.107-3.101.952-.74.846-1.264 2.238-1.572 4.177-.303 1.919-.235 3.405.205 4.458.443 1.033 1.328 1.654 2.655 1.864zm14.319 7.07c-.674-.107-1.131-.325-1.371-.656-.22-.328-.283-.788-.19-1.38l2.745-17.33c.094-.592.296-1.01.607-1.254.331-.24.833-.307 1.507-.2l3.643.577c.694.11 1.151.329 1.371.656.244.311.318.772.221 1.385l-2.745 17.33c-.094.592-.306 1.008-.637 1.249-.311.243-.813.31-1.507.2l-3.644-.577zm10.091 1.598c-.674-.106-1.131-.325-1.371-.656-.22-.328-.283-.788-.19-1.38l2.75-17.36c.094-.592.294-1 .602-1.223.331-.241.843-.306 1.537-.196l2.909.46c.429.068.746.181.951.339.228.141.429.393.602.755l4.237 9.114 1.159-7.318c.094-.592.296-1.01.607-1.253.331-.241.833-.308 1.507-.201l3.644.577c.694.11 1.151.329 1.371.657.243.31.317.772.22 1.384l-2.75 17.361c-.094.592-.306 1.008-.637 1.248-.307.224-.808.28-1.502.17l-2.909-.46c-.428-.068-.757-.172-.986-.313-.205-.158-.394-.418-.567-.781l-4.237-9.114-1.164 7.349c-.094.592-.306 1.008-.637 1.248-.308.224-.808.28-1.502.17l-3.644-.577z"/></g><path fill="#3C55AB" d="M157.737 62.163l-2.534-.68c-.588-.157-1.094-.143-1.519.04-.411.178-.704.508-.878.991a1.74 1.74 0 011.181-.08c.464.123.804.358 1.021.703.227.348.278.754.154 1.218-.124.463-.372.79-.742.977-.361.19-.772.224-1.236.1-.639-.172-1.102-.505-1.388-1.002-.284-.507-.311-1.188-.082-2.043.221-.824.646-1.4 1.275-1.729.642-.336 1.427-.38 2.354-.13l2.643.707.132-.494c.406-1.515-.164-2.48-1.709-2.893-.67-.18-1.278-.177-1.825.008a3.435 3.435 0 00-1.424.927l-.617-.911c.434-.469.994-.805 1.678-1.008.697-.21 1.529-.186 2.498.073.917.246 1.625.65 2.126 1.216l.422-1.577 1.252.336-.282 1.05c-.143.536-.465.831-.965.885.278.649.31 1.375.095 2.179l-1.466 5.47-1.236-.33 1.072-4.003zm-4.386 2.584c.237.064.441.041.614-.067.175-.119.296-.302.362-.549.067-.247.052-.46-.043-.64-.093-.191-.257-.318-.494-.382-.237-.063-.444-.036-.619.083-.172.108-.292.286-.358.533-.066.248-.053.467.039.657.096.18.262.302.499.365zm11.534 3.82c-.495-.133-.861-.374-1.098-.725-.235-.361-.29-.773-.166-1.237.125-.464.377-.788.758-.973.384-.196.823-.227 1.317-.094.145.038.285.092.421.162l.178-.665c.102-.38.096-.67-.017-.865-.113-.196-.382-.368-.806-.515l-3.878-1.353.195-.727c.132-.494.337-.909.614-1.243.278-.334.611-.587.999-.76a3.437 3.437 0 011.316-.276 5.581 5.581 0 011.584.209c.814.218 1.474.538 1.979.96.508.413.832.831.973 1.255l-.899.571a3.456 3.456 0 00-.769-1.084c-.321-.329-.816-.583-1.486-.762-.752-.202-1.405-.217-1.959-.045-.541.164-.897.566-1.068 1.205l-.05.185 2.945 1.004c.344.115.634.248.87.4.249.143.44.316.573.517.134.202.208.442.221.722.027.272-.01.594-.109.965l-.563 2.101c-.125.464-.379.794-.762.989-.381.185-.819.211-1.313.079zm.591-2.393a.845.845 0 00-.665.07c-.186.117-.314.308-.386.576-.072.268-.056.499.047.692a.843.843 0 00.54.393c.247.067.464.042.65-.074.196-.113.329-.304.401-.572.072-.268.051-.5-.062-.695-.103-.194-.278-.323-.525-.39zm.817-8.726l.963-.255.008-.03c-.308-.128-.523-.313-.646-.555-.133-.246-.158-.523-.075-.832.096-.36.292-.617.587-.77.285-.156.623-.181 1.014-.076.392.105.677.297.856.577.169.277.205.596.108.956a1.316 1.316 0 01-.363.615c-.177.163-.475.287-.895.373l-.029.108 1.854.498 1.209-1.73 1.051.281-1.134 1.452c-.233.29-.455.502-.667.633-.219.118-.52.126-.901.024l-3.06-.82.12-.448zm1.358-.68c.186.05.349.039.49-.034.144-.083.243-.227.298-.433.056-.206.04-.376-.045-.51a.63.63 0 00-.403-.29.628.628 0 00-.494.05c-.141.073-.239.212-.294.418-.055.207-.041.381.042.525a.66.66 0 00.406.275zm5.587 13.838l1.553-5.795c.166-.618.132-1.13-.102-1.535-.221-.413-.645-.703-1.274-.871-.525-.141-.991-.133-1.397.023a2.847 2.847 0 00-1.088.719l-.579-.868c.359-.39.825-.668 1.4-.834.574-.166 1.264-.142 2.067.074.969.26 1.642.694 2.02 1.303.378.61.451 1.346.219 2.212l-1.582 5.904-1.237-.332zm6.17 1.653l-1.174-6.807 1.344.36 1.006 5.769 1.313.352 1.267-4.73a.76.76 0 01-.209-.023l-.201-.053c-.494-.133-.855-.373-1.082-.721-.227-.348-.279-.754-.154-1.217.124-.464.371-.79.742-.978.371-.187.803-.215 1.298-.083.494.133.855.373 1.082.721.227.348.278.754.154 1.218l-1.909 7.124-3.477-.932zm3.482-5.825c.237.064.442.041.614-.067.176-.119.297-.302.363-.549.066-.247.052-.46-.044-.641-.092-.19-.257-.318-.494-.381-.237-.064-.443-.036-.618.083-.173.108-.292.286-.359.533-.066.247-.053.466.04.657.095.18.261.302.498.365zm5.191 2.981l-1.211-.92c.158-.466.393-.867.704-1.203a3.558 3.558 0 011.127-.808 3.86 3.86 0 011.43-.33 5.286 5.286 0 011.689.188 5.091 5.091 0 011.499.65 3.41 3.41 0 011.023 1.003c.253.377.411.795.476 1.254.075.462.043.95-.095 1.466l-1.412 5.27-1.236-.332 1.37-5.115c.224-.835.148-1.54-.228-2.115-.376-.576-.965-.971-1.769-1.186-.69-.185-1.336-.187-1.937-.006-.598.171-1.047.509-1.348 1.014l.736.528c.184.138.311.282.381.434.08.154.089.35.025.586l-1.279 4.776-1.237-.332 1.292-4.822zm11.6 8.276l1.553-5.795c.165-.618.131-1.13-.103-1.535-.22-.412-.645-.703-1.274-.871-.525-.141-.991-.133-1.397.023a2.834 2.834 0 00-1.087.719l-.58-.867c.359-.39.825-.668 1.4-.835.575-.166 1.264-.141 2.067.074.969.26 1.642.694 2.02 1.303.378.61.451 1.347.219 2.212l-1.582 5.904-1.236-.331zm8.067 2.36c-.495-.132-.861-.373-1.098-.724-.235-.361-.29-.773-.166-1.237.125-.464.377-.788.758-.973.384-.195.823-.227 1.317-.094.144.038.285.092.421.162l.178-.665c.102-.38.096-.67-.017-.865-.113-.196-.382-.368-.806-.514l-3.878-1.354.195-.727c.132-.494.337-.909.614-1.243.278-.334.611-.587.999-.76a3.437 3.437 0 011.316-.276 5.581 5.581 0 011.584.209c.814.218 1.474.538 1.979.96.508.413.832.831.972 1.255l-.898.571a3.442 3.442 0 00-.77-1.084c-.32-.329-.815-.583-1.485-.762-.752-.202-1.405-.217-1.959-.045-.541.164-.897.566-1.068 1.205l-.05.185 2.945 1.004c.344.115.634.248.87.4.248.143.44.316.573.517.134.202.208.442.221.722.027.272-.01.594-.109.965l-.563 2.102c-.125.463-.379.793-.762.988-.381.185-.819.211-1.313.079zm.591-2.392a.845.845 0 00-.665.07c-.186.117-.314.308-.386.576-.072.268-.056.499.047.692a.843.843 0 00.54.393c.247.067.464.042.65-.074.196-.113.329-.304.401-.572.072-.268.051-.5-.062-.695-.103-.194-.278-.323-.525-.39zm-63.413 8.336c-.494-.133-.853-.378-1.078-.736-.224-.358-.274-.77-.15-1.233.124-.464.373-.794.747-.993.373-.198.807-.23 1.301-.098.155.041.3.097.436.166-.005-.144.027-.346.096-.603l.6-2.241a.764.764 0 01-.209-.023l-.201-.054c-.494-.133-.855-.373-1.082-.72-.227-.349-.279-.754-.154-1.218.124-.464.371-.79.742-.977.37-.188.803-.216 1.297-.083.495.132.856.372 1.083.72.227.348.278.754.154 1.218l-1.246 4.652 2.863 2.357.062.017 1.996-7.45 1.236.332-2.261 8.438-1.159-.31-2.99-2.442a.872.872 0 01-.034.19c-.125.464-.373.794-.747.993-.373.198-.807.23-1.302.098zm.183-.68c.257.07.471.055.641-.043a.708.708 0 00.357-.468l.066-.247a.709.709 0 00-.075-.584c-.098-.17-.276-.289-.534-.358-.257-.069-.476-.056-.656.04a.736.736 0 00-.342.471l-.066.247a.736.736 0 00.06.58c.108.172.291.293.549.362zm1.495-5.828c.237.064.442.041.614-.067.176-.118.296-.302.363-.549.066-.247.051-.46-.044-.64-.092-.191-.257-.318-.494-.382-.237-.063-.443-.036-.619.083-.172.108-.292.286-.358.533-.066.248-.053.467.04.657.095.18.261.302.498.365zm.364-4.341c.105-.392.278-.726.518-1.004a2.36 2.36 0 01.888-.657c.349-.15.741-.232 1.176-.248.425-.019.885.038 1.379.17.608.164 1.094.41 1.459.74a2.2 2.2 0 01.699 1.098l.047.012.509-1.9 1.205.322-.989 3.694-6.986-1.872.095-.355zm3.928-.687c-.639-.171-1.21-.203-1.714-.095-.511.095-.854.301-1.027.62l4.868 1.304c.009-.362-.179-.71-.564-1.046-.393-.348-.914-.61-1.563-.783zm9.757 11.261l-2.534-.679c-.587-.157-1.094-.144-1.518.04-.412.177-.705.507-.879.99a1.743 1.743 0 011.182-.08c.463.124.803.359 1.02.704.227.348.279.754.154 1.217-.124.464-.371.79-.742.977-.36.191-.772.224-1.236.1-.639-.171-1.101-.505-1.388-1.001-.284-.507-.311-1.188-.082-2.043.221-.824.646-1.4 1.275-1.73.642-.335 1.427-.379 2.354-.13l2.643.708.132-.495c.406-1.514-.164-2.479-1.709-2.893-.67-.18-1.278-.177-1.824.008a3.43 3.43 0 00-1.425.927l-.617-.91c.435-.47.994-.805 1.678-1.009.697-.21 1.53-.186 2.498.073.917.246 1.626.651 2.126 1.216l.422-1.576 1.252.335-.281 1.051c-.144.536-.466.83-.966.884.279.65.311 1.376.095 2.18l-1.466 5.47-1.236-.331 1.072-4.003zm-4.386 2.585c.237.063.442.04.614-.067.176-.12.296-.302.363-.55.066-.247.051-.46-.044-.64-.092-.19-.257-.318-.494-.381-.237-.064-.443-.036-.619.082-.172.109-.292.287-.358.534-.066.247-.053.466.04.656.095.18.261.302.498.366zm7.979-11.18l-.928 2.783-.85-.228.588-2.874 1.19.319zm2.674 14.763c-.495-.132-.855-.373-1.082-.72-.227-.348-.279-.754-.155-1.218.125-.463.372-.79.743-.977.37-.188.803-.216 1.297-.083.073.02.138.042.197.07.062.016.128.039.197.069l.803-2.999c.166-.618.133-1.135-.098-1.55-.231-.415-.661-.707-1.289-.875-.526-.141-.997-.135-1.413.019a2.834 2.834 0 00-1.087.719l-.58-.868c.359-.39.825-.668 1.4-.834.585-.164 1.279-.138 2.083.078.968.26 1.64.699 2.015 1.318.386.622.462 1.366.231 2.232l-1.222 4.559c-.124.464-.372.79-.742.977-.371.188-.803.216-1.298.083zm.136-.692c.237.063.442.04.614-.067.176-.12.296-.302.363-.55.066-.247.051-.46-.044-.64-.092-.191-.257-.318-.494-.381-.237-.064-.443-.036-.619.082-.172.109-.292.287-.358.534-.066.247-.053.466.039.656.096.18.262.302.499.366zm11.268 3.748c-.494-.133-.854-.378-1.078-.736-.224-.358-.274-.77-.15-1.233l.004-.015-3.254.585-1.175-.315 1.516-5.656a.755.755 0 01-.209-.023l-.201-.054c-.495-.132-.856-.373-1.083-.72-.227-.348-.278-.754-.154-1.218.124-.463.372-.79.742-.977.371-.188.803-.216 1.298-.083s.855.373 1.082.72c.227.349.279.754.155 1.218l-1.644 6.136.061.016 4.037-.724 1.545-5.764 1.236.331-1.288 4.806c-.03.114-.068.236-.114.367a1.056 1.056 0 01-.232.369c.399.162.685.41.861.744.175.334.207.712.093 1.135-.124.464-.373.794-.746.993-.373.198-.807.23-1.302.098zm.182-.68c.258.069.472.054.642-.044a.708.708 0 00.357-.467l.066-.247a.705.705 0 00-.076-.584c-.098-.17-.275-.29-.533-.358-.258-.07-.476-.056-.657.04a.738.738 0 00-.341.47l-.067.248a.732.732 0 00.061.58c.108.172.291.293.548.362zm-4.594-7.46c.237.064.442.042.615-.067.175-.118.296-.301.362-.548.066-.248.052-.461-.043-.642-.093-.19-.258-.317-.495-.38-.237-.064-.443-.036-.618.082-.173.109-.292.287-.358.534-.067.247-.053.466.039.656.095.18.261.302.498.366zm11.894 10.145c-.494-.133-.86-.374-1.097-.725-.235-.361-.29-.773-.166-1.237.124-.464.377-.788.758-.973.383-.195.823-.227 1.317-.094.144.038.284.092.42.162l.178-.665c.103-.38.097-.67-.016-.865-.113-.196-.382-.368-.806-.515l-3.878-1.353.194-.727c.133-.494.338-.909.615-1.243.277-.334.61-.587.999-.76a3.435 3.435 0 011.316-.276 5.59 5.59 0 011.584.209c.814.218 1.474.538 1.979.96.508.413.832.831.972 1.255l-.898.571a3.459 3.459 0 00-.77-1.084c-.32-.329-.815-.583-1.485-.762-.752-.202-1.405-.217-1.959-.045-.541.164-.897.566-1.068 1.205l-.05.185 2.944 1.004c.345.115.635.248.871.4.248.143.439.316.573.517.134.202.208.442.221.722.026.272-.01.594-.109.965l-.564 2.102c-.124.463-.378.793-.761.988-.381.185-.819.211-1.314.079zm.592-2.393a.845.845 0 00-.665.07c-.186.117-.314.308-.386.576-.072.268-.056.499.046.692a.845.845 0 00.541.393c.247.066.464.042.649-.074.196-.113.33-.304.402-.572.072-.268.051-.5-.062-.696-.103-.193-.278-.322-.525-.389zm4.577-10.269l-.928 2.783-.85-.228.588-2.874 1.19.319zm2.765 14.787c-.495-.132-.856-.372-1.083-.72-.227-.348-.278-.754-.154-1.218.124-.463.372-.789.742-.977.371-.188.803-.215 1.298-.083.072.02.138.043.197.07.062.016.127.04.196.069l.804-2.998c.165-.619.133-1.135-.098-1.55-.231-.416-.661-.708-1.29-.876-.525-.141-.996-.135-1.413.019a2.843 2.843 0 00-1.087.719l-.579-.868c.358-.39.825-.668 1.4-.834.584-.163 1.279-.137 2.082.078.969.26 1.641.699 2.016 1.319.385.622.462 1.366.23 2.231l-1.222 4.56c-.124.463-.371.789-.742.977-.37.187-.803.215-1.297.082zm.135-.692c.237.063.442.041.615-.067.175-.119.296-.302.362-.55.066-.246.052-.46-.043-.64-.093-.19-.258-.318-.495-.381-.237-.064-.443-.036-.618.083-.173.108-.292.286-.358.533-.067.247-.054.466.039.657.095.18.261.302.498.365zm5.415 2.18c-.495-.133-.854-.378-1.078-.736-.224-.359-.274-.77-.15-1.233.124-.464.373-.795.746-.993.373-.198.807-.23 1.302-.098.154.041.3.097.436.166-.006-.145.026-.346.095-.604l.601-2.24a.752.752 0 01-.209-.024l-.201-.053c-.495-.133-.856-.373-1.083-.721-.227-.348-.278-.754-.154-1.218.124-.463.372-.789.742-.977.371-.188.803-.215 1.298-.083.495.133.855.373 1.082.721.227.348.279.754.154 1.217l-1.246 4.652 2.863 2.358.062.016 1.996-7.449 1.237.331-2.261 8.439-1.159-.311-2.991-2.441a.812.812 0 01-.034.19c-.124.463-.373.794-.746.992-.374.198-.807.231-1.302.099zm.182-.68c.258.069.471.054.641-.044.18-.095.3-.251.357-.467l.067-.248a.706.706 0 00-.076-.583c-.098-.17-.276-.29-.533-.358-.258-.07-.477-.056-.657.04a.735.735 0 00-.342.47l-.066.248a.736.736 0 00.06.58c.109.172.292.293.549.362zm1.495-5.828c.237.064.442.041.615-.067.175-.119.296-.302.362-.55.066-.246.052-.46-.043-.64-.093-.19-.258-.318-.495-.381-.237-.064-.443-.036-.618.083-.173.108-.292.286-.358.533-.067.247-.053.466.039.657.095.18.261.302.498.365z"/><g filter="url(#c)"><path fill="#FA7CC7" d="M64.321 152.673l10.017 6.423 8.453-11.244 5.35 9.037 12.533-10.029.159 10.767 15.388-7.833-5.047 11.443 16.736-4.869-9.76 10.998 16.446-1.429-13.517 9.477 14.546 2.152-15.95 7.028 11.222 5.521-16.823 3.891 6.799 8.35-16.048.374 1.711 10.362-13.703-3.181-3.544 11.359-10.017-6.423-8.453 11.245-5.349-9.038-12.534 10.029-.159-10.767-15.388 7.833 5.047-11.443-16.736 4.869 9.76-10.998-16.446 1.429 13.517-9.477-14.546-2.152 15.95-7.028-11.222-5.521 16.823-3.891-6.8-8.35 16.05-.374-1.712-10.362 13.703 3.181 3.544-11.359z"/></g><path fill="#3C55AB" d="M36.099 214.025c-.641.234-1.147.264-1.518.091-.351-.18-.63-.552-.835-1.115l-6-16.488c-.205-.563-.231-1.026-.078-1.39.173-.371.58-.673 1.22-.906l3.467-1.262c.66-.24 1.167-.27 1.518-.09.364.153.652.521.864 1.104l4.803 13.196 6.787-2.471c.622-.226 1.089-.242 1.401-.048.325.168.594.543.806 1.126l.593 1.631c.212.583.252 1.052.117 1.409-.121.33-.493.608-1.114.835l-12.031 4.378zm16.4-5.968c-.642.233-1.148.263-1.518.09-.352-.18-.63-.552-.835-1.115l-6.001-16.488c-.205-.563-.23-1.026-.077-1.39.173-.371.58-.673 1.22-.906l12.06-4.39c.622-.226 1.089-.242 1.401-.048.325.168.594.543.806 1.126l.594 1.631c.212.583.25 1.052.117 1.409-.122.33-.494.608-1.115.834l-6.817 2.482.912 2.505 4.195-1.527c.621-.226 1.088-.242 1.401-.048.325.168.593.543.806 1.125l.572 1.573c.212.583.251 1.053.117 1.409-.122.33-.493.609-1.115.835l-4.194 1.527.911 2.505 6.788-2.471c.621-.226 1.088-.242 1.4-.048.326.168.594.543.806 1.126l.594 1.631c.212.583.251 1.052.117 1.409-.122.33-.493.608-1.115.835l-12.03 4.379zm15.62-5.686c-.428.156-.716.03-.864-.378-.064-.175-.093-.406-.088-.694l.903-20.089c.026-.472.118-.824.275-1.057.17-.26.458-.464.866-.612l3.175-1.156c.408-.148.75-.174 1.028-.077.29.07.596.278.919.622l13.575 14.82c.19.217.316.413.38.588.148.407.008.689-.419.845l-5.477 1.993c-.602.219-1.076.095-1.422-.373l-1.484-1.901-5.156 1.876.115 2.4c.035.581-.248.981-.85 1.2l-5.476 1.993zm8.265-11.552l-2.451-3.199.179 4.026 2.272-.827zm15.912 2.753c-.641.233-1.147.263-1.518.09-.352-.18-.63-.552-.835-1.115l-6-16.488c-.206-.563-.231-1.026-.078-1.39.173-.371.58-.673 1.22-.906l6.963-2.534c2.913-1.06 5.242-1.248 6.986-.564 1.758.658 3.06 2.153 3.908 4.483.509 1.398.698 2.671.566 3.819-.12 1.121-.576 2.134-1.369 3.038l4.819 4.811c.135.127.237.288.308.482a.71.71 0 01-.043.609c-.086.186-.246.321-.479.406l-4.923 1.791c-.311.114-.577.167-.8.16a.887.887 0 01-.548-.329l-4.128-4.633-.99.36 1.58 4.341c.205.563.22 1.03.048 1.401-.154.363-.56.665-1.221.906l-3.466 1.262zm2.395-13.178c.622-.226 1.047-.567 1.276-1.025.25-.464.254-1.027.013-1.687-.247-.68-.615-1.117-1.105-1.313-.47-.203-1.015-.192-1.636.035l-1.981.721 1.452 3.99 1.981-.721zm16.707 6.225c-.641.233-1.147.263-1.518.09-.351-.18-.63-.551-.835-1.114l-6.011-16.517c-.205-.564-.227-1.017-.067-1.362.173-.37.59-.676 1.25-.916l2.767-1.008c.408-.148.74-.203.996-.164.268.012.566.135.893.368l8.124 5.917-2.534-6.962c-.205-.564-.23-1.027-.077-1.391.173-.371.58-.673 1.221-.906l3.466-1.262c.661-.24 1.167-.27 1.518-.09.364.153.652.521.864 1.104l6.011 16.517c.205.563.221 1.03.049 1.401-.161.344-.571.637-1.232.877l-2.767 1.007c-.408.149-.746.217-1.014.204-.257-.038-.548-.174-.875-.407l-8.124-5.917 2.544 6.991c.205.563.221 1.03.048 1.401-.16.345-.571.637-1.231.877l-3.466 1.262z"/><defs><filter id="a" width="137.529" height="71.655" x="2.353" y="41.05" color-interpolation-filters="sRGB" filterUnits="userSpaceOnUse"><feFlood flood-opacity="0" result="BackgroundImageFix"/><feColorMatrix in="SourceAlpha" result="hardAlpha" values="0 0 0 0 0 0 0 0 0 0 0 0 0 0 0 0 0 0 127 0"/><feOffset dy="1"/><feGaussianBlur stdDeviation="2"/><feComposite in2="hardAlpha" operator="out"/><feColorMatrix values="0 0 0 0 0.0471588 0 0 0 0 0.0843619 0 0 0 0 0.419189 0 0 0 0.2 0"/><feBlend in2="BackgroundImageFix" result="effect1_dropShadow_1233_27527"/><feBlend in="SourceGraphic" in2="effect1_dropShadow_1233_27527" result="shape"/></filter><filter id="b" width="125.357" height="82.013" x="82.298" y="92.544" color-interpolation-filters="sRGB" filterUnits="userSpaceOnUse"><feFlood flood-opacity="0" result="BackgroundImageFix"/><feColorMatrix in="SourceAlpha" result="hardAlpha" values="0 0 0 0 0 0 0 0 0 0 0 0 0 0 0 0 0 0 127 0"/><feOffset dy="1"/><feGaussianBlur stdDeviation="2"/><feComposite in2="hardAlpha" operator="out"/><feColorMatrix values="0 0 0 0 0.0471588 0 0 0 0 0.0843619 0 0 0 0 0.419189 0 0 0 0.2 0"/><feBlend in2="BackgroundImageFix" result="effect1_dropShadow_1233_27527"/><feBlend in="SourceGraphic" in2="effect1_dropShadow_1233_27527" result="shape"/></filter><filter id="c" width="125.641" height="88.224" x="13.984" y="143.86" color-interpolation-filters="sRGB" filterUnits="userSpaceOnUse"><feFlood flood-opacity="0" result="BackgroundImageFix"/><feColorMatrix in="SourceAlpha" result="hardAlpha" values="0 0 0 0 0 0 0 0 0 0 0 0 0 0 0 0 0 0 127 0"/><feOffset dy="1"/><feGaussianBlur stdDeviation="2"/><feComposite in2="hardAlpha" operator="out"/><feColorMatrix values="0 0 0 0 0.0471588 0 0 0 0 0.0843619 0 0 0 0 0.419189 0 0 0 0.2 0"/><feBlend in2="BackgroundImageFix" result="effect1_dropShadow_1233_27527"/><feBlend in="SourceGraphic" in2="effect1_dropShadow_1233_27527" result="shape"/></filter></defs></svg>