<svg xmlns="http://www.w3.org/2000/svg" fill="none" viewBox="0 0 51 16"><path fill="#fff" d="M22.643 7.227c0-3.082.96-4.808 3.471-4.808.71-.01 1.412.158 2.04.49l-.257 1.72a4.537 4.537 0 00-1.696-.358c-.84 0-1.32.303-1.32 2.166v1.505c0 2.023.516 2.41 1.32 2.41a3.694 3.694 0 001.665-.488l.417 1.637a4.354 4.354 0 01-2.225.602c-2.468-.011-3.415-1.846-3.415-4.876zM40.54.853l.412 1.636v5.997a2.104 2.104 0 01-.975.201c-.603 0-.863-.344-.863-1.19V.852h-2.548l.41 1.636v4.503c0 2.584 1.162 3.363 2.454 3.363a3 3 0 001.163-.202l.56-.933.443.964h1.494V.853h-2.55zM11.42 2.579l.412 1.636v5.997a2.105 2.105 0 01-.976.201c-.602 0-.863-.344-.863-1.19V2.578H7.446l.412 1.636v4.506c0 2.58 1.163 3.363 2.455 3.363.397.009.792-.059 1.163-.2l.56-.933.443.961h1.494V2.58H11.42zM18.067 11.918l-.4-1.64V4.283c.305-.144.64-.213.977-.201.603 0 .86.344.86 1.19v6.647h2.55l-.412-1.64V5.777c0-2.584-1.162-3.363-2.454-3.363a3.015 3.015 0 00-1.163.202l-.56.933-.446-.961h-1.494v9.342l2.542-.01zM47.464.853h-3.236l.411 1.636v6.067l-.412 1.628h2.55V7.466h.704c1.992 0 3.141-1.004 3.141-3.299 0-2.294-1.149-3.314-3.158-3.314zm.933 3.743c0 1.02-.258 1.306-.989 1.306h-.647V2.559h.608c.745 0 1.017.258 1.017 1.25l.011.787zM3.74 2.579H.5l.412 1.636v6.067L.5 11.92h2.55V9.194h.703c1.995 0 3.141-1.006 3.141-3.3 0-2.295-1.146-3.315-3.155-3.315zm.932 3.743c0 1.02-.26 1.306-.992 1.306h-.644V4.3h.62c.745 0 1.02.258 1.02 1.25l-.004.773zM35.429 4.215l.412-1.636h-2.945l.409 1.636v2.08h-1.908v-2.08l.412-1.636h-2.962l.412 1.636v6.067l-.412 1.639h2.961l-.411-1.64V8.019h1.908v2.264l-.41 1.639h2.946l-.412-1.64V4.216zM35.84 13.639H.5v1.717h35.34V13.64z"/><path fill="#fff" d="M50.37 11.918H35.84v1.724h14.53v-1.724z"/></svg>