<svg xmlns="http://www.w3.org/2000/svg" fill="none" viewBox="0 0 38 39"><path fill="#FA7CC7" fill-rule="evenodd" d="M5.382 20.536A7.256 7.256 0 003.017 22.6l-.597.803c-1.269 1.704-1.882 4.003-1.064 6.4.685 2.01 2.153 3.385 3.344 4.271l2.791 2.078c1.195.89 2.932 1.902 5.047 1.994 2.532.11 4.578-1.125 5.862-2.85l.597-.802a7.23 7.23 0 001.3-2.873c.567-.36 1.05-.78 1.454-1.204.153.008.331.02.536.04l.016.002h.016c2.174.195 4.379.101 6.413-.555 2.436-.78 4.325-2.375 5.745-4.283 2.465-3.313 3.23-7.213 1.942-11.204-1.154-3.625-3.648-6.57-6.84-8.946-1.991-1.482-4.068-2.66-6.23-3.4A21.678 21.678 0 0017.076.882l-.117-.005h-.117c-1.359.005-3.426.45-4.856 2.37-.96 1.29-1.177 2.744-1.257 3.367l-.004.036-.457 4.023-.004.034c-.074.743-.08 2.127.598 3.484-1.597.837-2.913 2.05-3.967 3.467l-.167.225c-.491.66-1.033 1.56-1.346 2.653zm5.85-.304c-.111.131-.22.268-.326.411l-.167.225c-.462.62-.665 1.184-.61 1.69.077.523.468 1.047 1.174 1.572l3.818 2.842c.728.541 1.342.766 1.843.673.522-.076 1.014-.425 1.476-1.045l.12-.16c.117-.159.25-.297.399-.417a2.481 2.481 0 011.07-.485c.644-.152 1.556-.171 2.735-.058 1.777.159 3.256.046 4.439-.337 1.22-.388 2.307-1.224 3.263-2.508 1.56-2.096 1.957-4.327 1.191-6.692-.745-2.35-2.433-4.503-5.064-6.461-1.69-1.258-3.317-2.154-4.882-2.686a16.675 16.675 0 00-4.851-.919c-.4.002-.688.12-.863.356-.143.192-.246.531-.308 1.017l-.45 3.953c-.046.465.049.784.284.96.214.159.52.237.92.236.689.036 1.387.142 2.096.32a9.673 9.673 0 01.859.253l.018.006c.133.046.263.095.39.146.5.201.954.438 1.365.71.098.066.194.133.287.203 1.497 1.114 1.928 2.1 1.29 2.955-.302.406-.64.637-1.013.691-.373.055-1.18.069-2.424.041a34.394 34.394 0 00-1.456.006c-1.515.043-2.75.207-3.702.493-1.098.33-2.072 1-2.921 2.009zm3.754 11.276c.785-1.054.522-2.153-.786-3.298a8.109 8.109 0 00-.5-.4L10.91 25.73a7.928 7.928 0 00-.528-.362c-1.452-.908-2.57-.836-3.353.217l-.597.802c-.875 1.176-.458 2.401 1.254 3.675l2.791 2.078c1.733 1.29 3.037 1.346 3.913.17l.597-.803z" clip-rule="evenodd"/><path fill="#fff" d="M11.303 24.13c-.706-.525-1.097-1.05-1.174-1.572-.055-.506.148-1.07.61-1.69l.167-.225c.924-1.24 2.006-2.047 3.247-2.42 1.242-.372 2.961-.538 5.158-.499 1.243.028 2.051.014 2.424-.04.373-.055.711-.286 1.014-.692.637-.856.206-1.841-1.291-2.956-.663-.493-1.454-.882-2.372-1.167a11.216 11.216 0 00-2.642-.47c-.4.001-.707-.077-.921-.237-.235-.175-.33-.495-.284-.959l.45-3.953c.062-.486.165-.825.308-1.017.175-.236.463-.354.863-.356 1.707.074 3.324.38 4.851.919 1.565.532 3.192 1.428 4.882 2.686 2.631 1.958 4.32 4.112 5.064 6.461.766 2.365.369 4.596-1.191 6.692-.956 1.284-2.043 2.12-3.263 2.508-1.183.383-2.662.496-4.439.337-1.18-.113-2.091-.094-2.736.058-.629.13-1.118.43-1.468.901l-.12.16c-.462.621-.954.97-1.476 1.046-.501.093-1.115-.132-1.842-.673l-3.819-2.842zm-3.618 5.933c-1.712-1.273-2.13-2.499-1.254-3.675l.597-.802c.876-1.177 2.17-1.128 3.88.145l2.793 2.078c1.732 1.29 2.16 2.523 1.285 3.7l-.597.802c-.876 1.176-2.18 1.12-3.913-.17l-2.791-2.078z"/></svg>