<svg xmlns="http://www.w3.org/2000/svg" fill="none" viewBox="0 0 101 100"><path fill="#FA7CC7" d="M44.507 6.079c.57-1.557 2.677-1.784 3.566-.385L64.055 30.85a2 2 0 001.613.926L95.464 32.9c1.656.062 2.522 1.996 1.465 3.273l-18.992 22.96a2 2 0 00-.382 1.822l8.157 28.659c.454 1.594-1.117 3.017-2.659 2.407L55.335 81.057a2 2 0 00-1.85.2L28.741 97.88c-1.376.925-3.215-.13-3.111-1.785l1.858-29.74a2 2 0 00-.762-1.698L3.275 46.276c-1.305-1.023-.871-3.097.734-3.51l28.87-7.453a2 2 0 001.379-1.248L44.507 6.079z"/><ellipse cx="39" cy="49" fill="#3C55AB" rx="4" ry="7"/><ellipse cx="63" cy="49" fill="#3C55AB" rx="4" ry="7"/><path stroke="#FA7CC7" stroke-linecap="round" stroke-width="3" d="M25.698 23.758c-4.917-2.315-12.665-4.404-15.502-9.533-.985-1.78.001-1.984 1.573-2.55 1.198-.431 3.083.09 4.304.35 1.592.34 2.18 1.303 2.825-.889.505-1.717.784-5.121 3.165-4.283 1.762.62 2.7 3.171 2.886 4.912.393 3.662.13 7.106 1.395 10.62M81.235 7.551c-.213 2.832-.386 5.567-1.37 8.258-.185.504-.8 2.201-1.455 2.583-.177.103-.093.029.039.012 1.77-.222 3.914-.813 5.542.312 1.043.72 1.97 2.32 2.33 3.538.107.358.183.725.403 1.037.31.443.218-.665.221-.803.072-3.017-.22-6.45.985-9.284.319-.748.735-1.238 1.41-1.674.101-.064.361-.137.144-.142-2.147-.051-4.198.26-6.103-1.016-.844-.566-1.469-1.461-2.15-2.203a2.13 2.13 0 01-.496-.832M12.536 77.43c-3.585-.146-7.198-.366-10.756-.849M12.508 83.044c-2.761 2.175-4.92 4.697-7 7.479M14.373 71.082c-2.172-2.111-4.768-3.72-6.617-6.149"/><path stroke="#3C55AB" stroke-linecap="round" stroke-width="3" d="M51 63l-3.333 4.618c-.369.51-.965.51-1.334 0L43 63M59 63l-3.333 4.618c-.369.51-.965.51-1.334 0L51 63"/></svg>